Workaround SemiRound Bold Italic.ufo
<glyph name="Exclamation_Mark" format="1">
  <advance width="460"/>
  <unicode hex="0021"/>
  <outline>
    <contour>
      <point x="219" y="123" type="line" smooth="yes"/>
      <point x="223" y="159"/>
      <point x="180" y="188"/>
      <point x="122" y="188" type="curve" smooth="yes"/>
      <point x="64" y="188"/>
      <point x="13" y="159"/>
      <point x="9" y="123" type="curve" smooth="yes"/>
      <point x="0" y="60" type="line" smooth="yes"/>
      <point x="-4" y="24"/>
      <point x="39" y="-6"/>
      <point x="97" y="-6" type="curve" smooth="yes"/>
      <point x="155" y="-6"/>
      <point x="206" y="24"/>
      <point x="210" y="60" type="curve" smooth="yes"/>
    </contour>
    <contour>
      <point x="325" y="940" type="line" smooth="yes"/>
      <point x="329" y="976"/>
      <point x="286" y="1006"/>
      <point x="228" y="1006" type="curve" smooth="yes"/>
      <point x="170" y="1006"/>
      <point x="119" y="976"/>
      <point x="115" y="940" type="curve" smooth="yes"/>
      <point x="44" y="394" type="line" smooth="yes"/>
      <point x="39" y="358"/>
      <point x="82" y="328"/>
      <point x="140" y="328" type="curve" smooth="yes"/>
      <point x="198" y="328"/>
      <point x="249" y="358"/>
      <point x="254" y="394" type="curve" smooth="yes"/>
    </contour>
  </outline>
</glyph>
<glyph name="exclam" format="1">
  <advance width="484"/>
  <unicode hex="0021"/>
  <outline>
    <contour>
      <point x="245" y="178" type="line" smooth="yes"/>
      <point x="247" y="193"/>
      <point x="198" y="206"/>
      <point x="136" y="206" type="curve" smooth="yes"/>
      <point x="74" y="206"/>
      <point x="22" y="193"/>
      <point x="20" y="178" type="curve" smooth="yes"/>
      <point x="0" y="22" type="line" smooth="yes"/>
      <point x="-2" y="7"/>
      <point x="47" y="-6"/>
      <point x="109" y="-6" type="curve" smooth="yes"/>
      <point x="171" y="-6"/>
      <point x="223" y="7"/>
      <point x="225" y="22" type="curve" smooth="yes"/>
    </contour>
    <contour>
      <point x="349" y="978" type="line" smooth="yes"/>
      <point x="351" y="993"/>
      <point x="302" y="1006"/>
      <point x="240" y="1006" type="curve" smooth="yes"/>
      <point x="178" y="1006"/>
      <point x="126" y="993"/>
      <point x="124" y="978" type="curve" smooth="yes"/>
      <point x="59" y="360" type="line" smooth="yes"/>
      <point x="57" y="347"/>
      <point x="99" y="336"/>
      <point x="153" y="336" type="curve" smooth="yes"/>
      <point x="207" y="336"/>
      <point x="252" y="347"/>
      <point x="254" y="360" type="curve" smooth="yes"/>
    </contour>
  </outline>
</glyph>
<glyph name="quotedbl" format="1">
  <advance width="671"/>
  <unicode hex="0022"/>
  <outline>
    <contour>
      <point x="210" y="978" type="line" smooth="yes"/>
      <point x="213" y="988"/>
      <point x="195" y="997"/>
      <point x="162" y="1002" type="curve" smooth="yes"/>
      <point x="128" y="1007"/>
      <point x="89" y="1007"/>
      <point x="54" y="1002" type="curve" smooth="yes"/>
      <point x="19" y="997"/>
      <point x="0" y="988"/>
      <point x="0" y="978" type="curve" smooth="yes"/>
      <point x="8" y="779" type="line" smooth="yes"/>
      <point x="8" y="769"/>
      <point x="38" y="762"/>
      <point x="77" y="762" type="curve" smooth="yes"/>
      <point x="115" y="762"/>
      <point x="147" y="769"/>
      <point x="150" y="779" type="curve" smooth="yes"/>
    </contour>
    <contour>
      <point x="535" y="978" type="line" smooth="yes"/>
      <point x="538" y="988"/>
      <point x="521" y="997"/>
      <point x="487" y="1002" type="curve" smooth="yes"/>
      <point x="454" y="1007"/>
      <point x="414" y="1007"/>
      <point x="380" y="1002" type="curve" smooth="yes"/>
      <point x="345" y="997"/>
      <point x="325" y="988"/>
      <point x="326" y="978" type="curve"/>
      <point x="333" y="779" type="line" smooth="yes"/>
      <point x="333" y="769"/>
      <point x="364" y="762"/>
      <point x="402" y="762" type="curve" smooth="yes"/>
      <point x="441" y="762"/>
      <point x="473" y="769"/>
      <point x="476" y="779" type="curve" smooth="yes"/>
    </contour>
  </outline>
</glyph>
<glyph name="numbersign" format="1">
  <advance width="1146"/>
  <unicode hex="0023"/>
  <outline>
    <contour>
      <point x="613" y="603" type="line"/>
      <point x="545" y="397" type="line"/>
      <point x="398" y="397" type="line"/>
      <point x="466" y="603" type="line"/>
    </contour>
    <contour>
      <point x="823" y="603" type="line"/>
      <point x="936" y="603" type="line" smooth="yes"/>
      <point x="952" y="603"/>
      <point x="979" y="646"/>
      <point x="996" y="700" type="curve" smooth="yes"/>
      <point x="1014" y="754"/>
      <point x="1016" y="797"/>
      <point x="1000" y="797" type="curve" smooth="yes"/>
      <point x="887" y="797" type="line"/>
      <point x="947" y="980" type="line" smooth="yes"/>
      <point x="952" y="994"/>
      <point x="909" y="1006"/>
      <point x="851" y="1006" type="curve" smooth="yes"/>
      <point x="793" y="1006"/>
      <point x="742" y="994"/>
      <point x="737" y="980" type="curve" smooth="yes"/>
      <point x="677" y="797" type="line"/>
      <point x="530" y="797" type="line"/>
      <point x="590" y="980" type="line" smooth="yes"/>
      <point x="595" y="994"/>
      <point x="552" y="1006"/>
      <point x="494" y="1006" type="curve" smooth="yes"/>
      <point x="436" y="1006"/>
      <point x="385" y="994"/>
      <point x="380" y="980" type="curve" smooth="yes"/>
      <point x="320" y="797" type="line"/>
      <point x="207" y="797" type="line" smooth="yes"/>
      <point x="191" y="797"/>
      <point x="164" y="754"/>
      <point x="146" y="700" type="curve" smooth="yes"/>
      <point x="129" y="646"/>
      <point x="127" y="603"/>
      <point x="143" y="603" type="curve" smooth="yes"/>
      <point x="256" y="603" type="line"/>
      <point x="188" y="397" type="line"/>
      <point x="75" y="397" type="line" smooth="yes"/>
      <point x="59" y="397"/>
      <point x="32" y="354"/>
      <point x="14" y="300" type="curve" smooth="yes"/>
      <point x="-3" y="246"/>
      <point x="-5" y="203"/>
      <point x="11" y="203" type="curve" smooth="yes"/>
      <point x="124" y="203" type="line"/>
      <point x="64" y="20" type="line" smooth="yes"/>
      <point x="59" y="6"/>
      <point x="102" y="-6"/>
      <point x="160" y="-6" type="curve" smooth="yes"/>
      <point x="218" y="-6"/>
      <point x="269" y="6"/>
      <point x="274" y="20" type="curve" smooth="yes"/>
      <point x="334" y="203" type="line"/>
      <point x="481" y="203" type="line"/>
      <point x="421" y="20" type="line" smooth="yes"/>
      <point x="416" y="6"/>
      <point x="459" y="-6"/>
      <point x="517" y="-6" type="curve" smooth="yes"/>
      <point x="575" y="-6"/>
      <point x="626" y="6"/>
      <point x="631" y="20" type="curve" smooth="yes"/>
      <point x="691" y="203" type="line"/>
      <point x="804" y="203" type="line" smooth="yes"/>
      <point x="820" y="203"/>
      <point x="847" y="246"/>
      <point x="864" y="300" type="curve" smooth="yes"/>
      <point x="882" y="354"/>
      <point x="884" y="397"/>
      <point x="868" y="397" type="curve" smooth="yes"/>
      <point x="755" y="397" type="line"/>
    </contour>
  </outline>
</glyph>
<glyph name="dollar" format="1">
  <advance width="820"/>
  <unicode hex="0024"/>
  <outline>
    <contour>
      <point x="385" y="8" type="line"/>
      <point x="539" y="48"/>
      <point x="663" y="172"/>
      <point x="682" y="318" type="curve" smooth="yes"/>
      <point x="703" y="477"/>
      <point x="601" y="562"/>
      <point x="464" y="618" type="curve"/>
      <point x="487" y="795" type="line"/>
      <point x="492" y="792"/>
      <point x="497" y="790"/>
      <point x="501" y="787" type="curve"/>
      <point x="511" y="777"/>
      <point x="554" y="798"/>
      <point x="600" y="836" type="curve" smooth="yes"/>
      <point x="645" y="873"/>
      <point x="675" y="912"/>
      <point x="667" y="924" type="curve"/>
      <point x="624" y="961"/>
      <point x="573" y="986"/>
      <point x="514" y="998" type="curve"/>
      <point x="522" y="1060" type="line" smooth="yes"/>
      <point x="523" y="1070"/>
      <point x="491" y="1078"/>
      <point x="451" y="1078" type="curve" smooth="yes"/>
      <point x="410" y="1078"/>
      <point x="376" y="1070"/>
      <point x="375" y="1060" type="curve" smooth="yes"/>
      <point x="367" y="1001" type="line"/>
      <point x="222" y="976"/>
      <point x="100" y="863"/>
      <point x="82" y="727" type="curve" smooth="yes"/>
      <point x="64" y="584"/>
      <point x="169" y="511"/>
      <point x="297" y="463" type="curve"/>
      <point x="262" y="191" type="line"/>
      <point x="225" y="196"/>
      <point x="193" y="208"/>
      <point x="166" y="226" type="curve"/>
      <point x="157" y="236"/>
      <point x="113" y="215"/>
      <point x="68" y="177" type="curve" smooth="yes"/>
      <point x="23" y="140"/>
      <point x="-7" y="101"/>
      <point x="1" y="90" type="curve"/>
      <point x="64" y="34"/>
      <point x="142" y="3"/>
      <point x="236" y="-4" type="curve"/>
      <point x="229" y="-60" type="line" smooth="yes"/>
      <point x="228" y="-70"/>
      <point x="260" y="-78"/>
      <point x="300" y="-78" type="curve" smooth="yes"/>
      <point x="341" y="-78"/>
      <point x="375" y="-70"/>
      <point x="376" y="-60" type="curve" smooth="yes"/>
    </contour>
    <contour>
      <point x="340" y="794" type="curve"/>
      <point x="325" y="677" type="line"/>
      <point x="306" y="691"/>
      <point x="293" y="707"/>
      <point x="296" y="727" type="curve" smooth="yes"/>
      <point x="299" y="754"/>
      <point x="316" y="778"/>
    </contour>
    <contour>
      <point x="413" y="227" type="curve"/>
      <point x="435" y="395" type="line"/>
      <point x="457" y="374"/>
      <point x="471" y="349"/>
      <point x="467" y="318" type="curve" smooth="yes"/>
      <point x="463" y="283"/>
      <point x="443" y="251"/>
    </contour>
  </outline>
</glyph>
<glyph name="percent" format="1">
  <advance width="1184"/>
  <unicode hex="0025"/>
  <outline>
    <contour>
      <point x="173" y="757" type="curve" smooth="yes"/>
      <point x="180" y="809"/>
      <point x="229" y="850"/>
      <point x="283" y="850" type="curve" smooth="yes"/>
      <point x="337" y="850"/>
      <point x="375" y="809"/>
      <point x="368" y="757" type="curve" smooth="yes"/>
      <point x="362" y="706"/>
      <point x="313" y="664"/>
      <point x="259" y="664" type="curve" smooth="yes"/>
      <point x="205" y="664"/>
      <point x="166" y="706"/>
    </contour>
    <contour>
      <point x="2" y="757" type="curve" smooth="yes"/>
      <point x="-16" y="620"/>
      <point x="90" y="509"/>
      <point x="238" y="509" type="curve" smooth="yes"/>
      <point x="387" y="509"/>
      <point x="522" y="620"/>
      <point x="540" y="757" type="curve" smooth="yes"/>
      <point x="557" y="895"/>
      <point x="451" y="1006"/>
      <point x="303" y="1006" type="curve" smooth="yes"/>
      <point x="155" y="1006"/>
      <point x="20" y="895"/>
    </contour>
    <contour>
      <point x="680" y="243" type="curve" smooth="yes"/>
      <point x="687" y="294"/>
      <point x="736" y="336"/>
      <point x="790" y="336" type="curve" smooth="yes"/>
      <point x="844" y="336"/>
      <point x="882" y="294"/>
      <point x="876" y="243" type="curve" smooth="yes"/>
      <point x="869" y="191"/>
      <point x="820" y="150"/>
      <point x="766" y="150" type="curve" smooth="yes"/>
      <point x="712" y="150"/>
      <point x="674" y="191"/>
    </contour>
    <contour>
      <point x="509" y="243" type="curve" smooth="yes"/>
      <point x="491" y="105"/>
      <point x="597" y="-6"/>
      <point x="746" y="-6" type="curve" smooth="yes"/>
      <point x="894" y="-6"/>
      <point x="1029" y="105"/>
      <point x="1047" y="243" type="curve" smooth="yes"/>
      <point x="1065" y="380"/>
      <point x="959" y="491"/>
      <point x="810" y="491" type="curve" smooth="yes"/>
      <point x="662" y="491"/>
      <point x="527" y="380"/>
    </contour>
    <contour>
      <point x="1041" y="897" type="line"/>
      <point x="1047" y="902"/>
      <point x="1043" y="917"/>
      <point x="1029" y="937" type="curve" smooth="yes"/>
      <point x="1015" y="957"/>
      <point x="997" y="976"/>
      <point x="977" y="990" type="curve" smooth="yes"/>
      <point x="957" y="1005"/>
      <point x="943" y="1009"/>
      <point x="936" y="1003" type="curve"/>
      <point x="8" y="103" type="line" smooth="yes"/>
      <point x="-1" y="95"/>
      <point x="15" y="64"/>
      <point x="44" y="34" type="curve" smooth="yes"/>
      <point x="72" y="5"/>
      <point x="103" y="-12"/>
      <point x="112" y="-3" type="curve" smooth="yes"/>
    </contour>
  </outline>
</glyph>
<glyph name="ampersand" format="1">
  <advance width="932"/>
  <unicode hex="0026"/>
  <outline>
    <contour>
      <point x="346" y="637" type="curve"/>
      <point x="339" y="650"/>
      <point x="331" y="664"/>
      <point x="324" y="677" type="curve" smooth="yes"/>
      <point x="316" y="693"/>
      <point x="314" y="708"/>
      <point x="316" y="727" type="curve" smooth="yes"/>
      <point x="322" y="774"/>
      <point x="361" y="812"/>
      <point x="403" y="812" type="curve" smooth="yes"/>
      <point x="445" y="812"/>
      <point x="474" y="774"/>
      <point x="468" y="727" type="curve" smooth="yes"/>
      <point x="460" y="668"/>
      <point x="388" y="654"/>
    </contour>
    <contour>
      <point x="553" y="373" type="curve"/>
      <point x="519" y="408"/>
      <point x="485" y="445"/>
      <point x="453" y="483" type="curve"/>
      <point x="553" y="534"/>
      <point x="661" y="603"/>
      <point x="678" y="727" type="curve" smooth="yes"/>
      <point x="698" y="881"/>
      <point x="586" y="1006"/>
      <point x="428" y="1006" type="curve" smooth="yes"/>
      <point x="270" y="1006"/>
      <point x="126" y="881"/>
      <point x="106" y="727" type="curve" smooth="yes"/>
      <point x="98" y="665"/>
      <point x="109" y="613"/>
      <point x="139" y="563" type="curve" smooth="yes"/>
      <point x="145" y="554"/>
      <point x="150" y="546"/>
      <point x="156" y="537" type="curve"/>
      <point x="79" y="486"/>
      <point x="15" y="418"/>
      <point x="3" y="318" type="curve" smooth="yes"/>
      <point x="-21" y="139"/>
      <point x="111" y="-6"/>
      <point x="297" y="-6" type="curve" smooth="yes"/>
      <point x="385" y="-6"/>
      <point x="471" y="26"/>
      <point x="549" y="86" type="curve"/>
      <point x="581" y="56"/>
      <point x="613" y="25"/>
      <point x="646" y="-7" type="curve" smooth="yes"/>
      <point x="656" y="-16"/>
      <point x="697" y="10"/>
      <point x="738" y="51" type="curve" smooth="yes"/>
      <point x="779" y="93"/>
      <point x="804" y="134"/>
      <point x="794" y="144" type="curve" smooth="yes"/>
      <point x="760" y="177"/>
      <point x="726" y="208"/>
      <point x="692" y="239" type="curve"/>
      <point x="724" y="285"/>
      <point x="753" y="337"/>
      <point x="778" y="393" type="curve" smooth="yes"/>
      <point x="785" y="407"/>
      <point x="752" y="436"/>
      <point x="703" y="458" type="curve" smooth="yes"/>
      <point x="655" y="481"/>
      <point x="609" y="488"/>
      <point x="601" y="475" type="curve"/>
      <point x="586" y="438"/>
      <point x="570" y="404"/>
    </contour>
    <contour>
      <point x="259" y="394" type="curve"/>
      <point x="308" y="331"/>
      <point x="361" y="273"/>
      <point x="416" y="217" type="curve"/>
      <point x="386" y="198"/>
      <point x="354" y="188"/>
      <point x="322" y="188" type="curve" smooth="yes"/>
      <point x="252" y="188"/>
      <point x="203" y="247"/>
      <point x="213" y="318" type="curve" smooth="yes"/>
      <point x="217" y="352"/>
      <point x="235" y="376"/>
    </contour>
  </outline>
</glyph>
<glyph name="quotesingle" format="1">
  <advance width="346"/>
  <unicode hex="0027"/>
  <outline>
    <contour>
      <point x="210" y="978" type="line" smooth="yes"/>
      <point x="213" y="988"/>
      <point x="195" y="997"/>
      <point x="162" y="1002" type="curve" smooth="yes"/>
      <point x="128" y="1007"/>
      <point x="89" y="1007"/>
      <point x="54" y="1002" type="curve" smooth="yes"/>
      <point x="19" y="997"/>
      <point x="0" y="988"/>
      <point x="0" y="978" type="curve" smooth="yes"/>
      <point x="8" y="779" type="line" smooth="yes"/>
      <point x="8" y="769"/>
      <point x="38" y="762"/>
      <point x="77" y="762" type="curve" smooth="yes"/>
      <point x="115" y="762"/>
      <point x="147" y="769"/>
      <point x="150" y="779" type="curve" smooth="yes"/>
    </contour>
  </outline>
</glyph>
<glyph name="parenleft" format="1">
  <advance width="536"/>
  <unicode hex="0028"/>
  <outline>
    <contour>
      <point x="400" y="964" type="curve"/>
      <point x="406" y="978"/>
      <point x="371" y="1005"/>
      <point x="321" y="1025" type="curve" smooth="yes"/>
      <point x="271" y="1045"/>
      <point x="225" y="1050"/>
      <point x="218" y="1036" type="curve" smooth="yes"/>
      <point x="1" y="608"/>
      <point x="-54" y="192"/>
      <point x="52" y="-236" type="curve" smooth="yes"/>
      <point x="56" y="-250"/>
      <point x="103" y="-245"/>
      <point x="159" y="-225" type="curve" smooth="yes"/>
      <point x="214" y="-205"/>
      <point x="256" y="-178"/>
      <point x="253" y="-164" type="curve" smooth="yes"/>
      <point x="159" y="215"/>
      <point x="207" y="585"/>
    </contour>
  </outline>
</glyph>
<glyph name="parenright" format="1">
  <advance width="539"/>
  <unicode hex="0029"/>
  <outline>
    <contour>
      <point x="151" y="964" type="curve" smooth="yes"/>
      <point x="245" y="585"/>
      <point x="197" y="215"/>
      <point x="5" y="-164" type="curve" smooth="yes"/>
      <point x="-11" y="-196"/>
      <point x="16" y="-237"/>
      <point x="66" y="-257" type="curve" smooth="yes"/>
      <point x="117" y="-277"/>
      <point x="170" y="-268"/>
      <point x="186" y="-236" type="curve" smooth="yes"/>
      <point x="403" y="192"/>
      <point x="458" y="608"/>
      <point x="352" y="1036" type="curve" smooth="yes"/>
      <point x="344" y="1068"/>
      <point x="293" y="1077"/>
      <point x="237" y="1057" type="curve" smooth="yes"/>
      <point x="182" y="1037"/>
      <point x="143" y="996"/>
    </contour>
  </outline>
</glyph>
<glyph name="asterisk" format="1">
  <advance width="613"/>
  <unicode hex="002A"/>
  <outline>
    <contour>
      <point x="344" y="976" type="line"/>
      <point x="347" y="1001"/>
      <point x="314" y="1022"/>
      <point x="271" y="1022" type="curve" smooth="yes"/>
      <point x="227" y="1022"/>
      <point x="189" y="1001"/>
      <point x="186" y="976" type="curve"/>
      <point x="196" y="871" type="line"/>
      <point x="124" y="940" type="line"/>
      <point x="103" y="953"/>
      <point x="65" y="935"/>
      <point x="41" y="900" type="curve" smooth="yes"/>
      <point x="16" y="864"/>
      <point x="13" y="825"/>
      <point x="34" y="812" type="curve"/>
      <point x="129" y="776" type="line"/>
      <point x="24" y="740" type="line"/>
      <point x="0" y="726"/>
      <point x="-7" y="687"/>
      <point x="8" y="652" type="curve" smooth="yes"/>
      <point x="24" y="617"/>
      <point x="57" y="599"/>
      <point x="81" y="612" type="curve"/>
      <point x="171" y="681" type="line"/>
      <point x="134" y="576" type="line"/>
      <point x="131" y="551"/>
      <point x="163" y="530"/>
      <point x="207" y="530" type="curve" smooth="yes"/>
      <point x="250" y="530"/>
      <point x="288" y="551"/>
      <point x="292" y="576" type="curve"/>
      <point x="281" y="681" type="line"/>
      <point x="354" y="612" type="line"/>
      <point x="368" y="603"/>
      <point x="388" y="607"/>
      <point x="409" y="623" type="curve" smooth="yes"/>
      <point x="431" y="639"/>
      <point x="447" y="662"/>
      <point x="455" y="687" type="curve" smooth="yes"/>
      <point x="462" y="712"/>
      <point x="458" y="731"/>
      <point x="444" y="740" type="curve"/>
      <point x="349" y="776" type="line"/>
      <point x="454" y="812" type="line"/>
      <point x="478" y="825"/>
      <point x="485" y="864"/>
      <point x="469" y="900" type="curve" smooth="yes"/>
      <point x="453" y="935"/>
      <point x="421" y="953"/>
      <point x="397" y="940" type="curve"/>
      <point x="306" y="871" type="line"/>
    </contour>
  </outline>
</glyph>
<glyph name="plus" format="1">
  <advance width="838"/>
  <unicode hex="002B"/>
  <outline>
    <contour>
      <point x="234" y="413" type="line"/>
      <point x="209" y="226" type="line" smooth="yes"/>
      <point x="205" y="192"/>
      <point x="248" y="165"/>
      <point x="306" y="165" type="curve" smooth="yes"/>
      <point x="364" y="165"/>
      <point x="415" y="192"/>
      <point x="419" y="226" type="curve" smooth="yes"/>
      <point x="444" y="413" type="line"/>
      <point x="623" y="413" type="line" smooth="yes"/>
      <point x="659" y="413"/>
      <point x="694" y="456"/>
      <point x="701" y="510" type="curve" smooth="yes"/>
      <point x="708" y="564"/>
      <point x="684" y="607"/>
      <point x="648" y="607" type="curve" smooth="yes"/>
      <point x="469" y="607" type="line"/>
      <point x="493" y="794" type="line" smooth="yes"/>
      <point x="498" y="828"/>
      <point x="454" y="855"/>
      <point x="396" y="855" type="curve" smooth="yes"/>
      <point x="338" y="855"/>
      <point x="288" y="828"/>
      <point x="283" y="794" type="curve" smooth="yes"/>
      <point x="259" y="607" type="line"/>
      <point x="80" y="607" type="line" smooth="yes"/>
      <point x="43" y="607"/>
      <point x="8" y="564"/>
      <point x="1" y="510" type="curve" smooth="yes"/>
      <point x="-6" y="456"/>
      <point x="18" y="413"/>
      <point x="54" y="413" type="curve" smooth="yes"/>
    </contour>
  </outline>
</glyph>
<glyph name="comma" format="1">
  <advance width="387"/>
  <unicode hex="002C"/>
  <outline>
    <contour>
      <point x="252" y="184" type="curve" smooth="yes"/>
      <point x="254" y="200"/>
      <point x="204" y="213"/>
      <point x="140" y="213" type="curve" smooth="yes"/>
      <point x="76" y="213"/>
      <point x="23" y="200"/>
      <point x="21" y="184" type="curve" smooth="yes"/>
      <point x="0" y="23" type="line" smooth="yes"/>
      <point x="-1" y="13"/>
      <point x="19" y="4"/>
      <point x="52" y="-2" type="curve"/>
      <point x="56" y="-2"/>
      <point x="58" y="-12"/>
      <point x="57" y="-27" type="curve" smooth="yes"/>
      <point x="56" y="-41"/>
      <point x="52" y="-55"/>
      <point x="47" y="-62" type="curve"/>
      <point x="13" y="-80" type="line"/>
      <point x="8" y="-82"/>
      <point x="9" y="-98"/>
      <point x="15" y="-116" type="curve"/>
      <point x="22" y="-133"/>
      <point x="32" y="-146"/>
      <point x="37" y="-143" type="curve"/>
      <point x="172" y="-79"/>
      <point x="235" y="53"/>
    </contour>
  </outline>
</glyph>
<glyph name="hyphen" format="1">
  <advance width="588"/>
  <unicode hex="002D"/>
  <outline>
    <contour>
      <point x="373" y="413" type="line" smooth="yes"/>
      <point x="409" y="413"/>
      <point x="444" y="456"/>
      <point x="451" y="510" type="curve" smooth="yes"/>
      <point x="458" y="564"/>
      <point x="434" y="607"/>
      <point x="398" y="607" type="curve" smooth="yes"/>
      <point x="80" y="607" type="line" smooth="yes"/>
      <point x="43" y="607"/>
      <point x="8" y="564"/>
      <point x="1" y="510" type="curve" smooth="yes"/>
      <point x="-6" y="456"/>
      <point x="18" y="413"/>
      <point x="54" y="413" type="curve" smooth="yes"/>
    </contour>
  </outline>
</glyph>
<glyph name="period" format="1">
  <advance width="387"/>
  <unicode hex="002E"/>
  <outline>
    <contour>
      <point x="252" y="184" type="line" smooth="yes"/>
      <point x="254" y="200"/>
      <point x="204" y="213"/>
      <point x="140" y="213" type="curve" smooth="yes"/>
      <point x="76" y="213"/>
      <point x="23" y="200"/>
      <point x="21" y="184" type="curve" smooth="yes"/>
      <point x="0" y="23" type="line" smooth="yes"/>
      <point x="-2" y="7"/>
      <point x="48" y="-6"/>
      <point x="112" y="-6" type="curve" smooth="yes"/>
      <point x="176" y="-6"/>
      <point x="229" y="7"/>
      <point x="231" y="23" type="curve" smooth="yes"/>
    </contour>
  </outline>
</glyph>
<glyph name="slash" format="1">
  <advance width="839"/>
  <unicode hex="002F"/>
  <outline>
    <contour>
      <point x="703" y="1035" type="line" smooth="yes"/>
      <point x="709" y="1049"/>
      <point x="672" y="1074"/>
      <point x="621" y="1091" type="curve" smooth="yes"/>
      <point x="569" y="1109"/>
      <point x="522" y="1112"/>
      <point x="516" y="1098" type="curve" smooth="yes"/>
      <point x="1" y="-35" type="line" smooth="yes"/>
      <point x="-6" y="-49"/>
      <point x="31" y="-74"/>
      <point x="83" y="-91" type="curve" smooth="yes"/>
      <point x="134" y="-109"/>
      <point x="181" y="-112"/>
      <point x="187" y="-98" type="curve" smooth="yes"/>
    </contour>
  </outline>
</glyph>
<glyph name="Digit_Zero" format="1">
  <advance width="765"/>
  <unicode hex="0030"/>
  <outline>
    <contour>
      <point x="227" y="472" type="curve" smooth="yes"/>
      <point x="234" y="528" type="line" smooth="yes"/>
      <point x="252" y="666"/>
      <point x="331" y="806"/>
      <point x="409" y="806" type="curve" smooth="yes"/>
      <point x="436" y="806" type="line" smooth="yes"/>
      <point x="534" y="806"/>
      <point x="559" y="683"/>
      <point x="539" y="528" type="curve" smooth="yes"/>
      <point x="532" y="472" type="line" smooth="yes"/>
      <point x="514" y="334"/>
      <point x="434" y="194"/>
      <point x="356" y="194" type="curve" smooth="yes"/>
      <point x="330" y="194" type="line" smooth="yes"/>
      <point x="232" y="194"/>
      <point x="206" y="317"/>
    </contour>
    <contour>
      <point x="5" y="472" type="line" smooth="yes"/>
      <point x="-29" y="212"/>
      <point x="105" y="0"/>
      <point x="305" y="0" type="curve" smooth="yes"/>
      <point x="331" y="0" type="line" smooth="yes"/>
      <point x="530" y="0"/>
      <point x="719" y="212"/>
      <point x="753" y="472" type="curve" smooth="yes"/>
      <point x="760" y="528" type="line" smooth="yes"/>
      <point x="794" y="788"/>
      <point x="660" y="1000"/>
      <point x="461" y="1000" type="curve" smooth="yes"/>
      <point x="435" y="1000" type="line" smooth="yes"/>
      <point x="235" y="1000"/>
      <point x="46" y="788"/>
      <point x="12" y="528" type="curve" smooth="yes"/>
    </contour>
  </outline>
</glyph>
<glyph name="Digit_One" format="1">
  <advance width="537"/>
  <unicode hex="0031"/>
  <outline>
    <contour>
      <point x="401" y="934" type="line" smooth="yes"/>
      <point x="405" y="964"/>
      <point x="379" y="990"/>
      <point x="334" y="1001" type="curve" smooth="yes"/>
      <point x="290" y="1012"/>
      <point x="240" y="1004"/>
      <point x="204" y="981" type="curve"/>
      <point x="17" y="795" type="line" smooth="yes"/>
      <point x="-1" y="777"/>
      <point x="-5" y="749"/>
      <point x="7" y="719" type="curve"/>
      <point x="7" y="719" type="line"/>
      <point x="19" y="689"/>
      <point x="43" y="665"/>
      <point x="74" y="654" type="curve"/>
      <point x="74" y="654" type="line"/>
      <point x="105" y="642"/>
      <point x="133" y="646"/>
      <point x="151" y="665" type="curve" smooth="yes"/>
      <point x="156" y="670" type="line"/>
      <point x="77" y="60" type="line" smooth="yes"/>
      <point x="72" y="24"/>
      <point x="116" y="-6"/>
      <point x="174" y="-6" type="curve" smooth="yes"/>
      <point x="232" y="-6"/>
      <point x="282" y="24"/>
      <point x="287" y="60" type="curve" smooth="yes"/>
    </contour>
  </outline>
</glyph>
<glyph name="one" format="1">
  <advance width="562"/>
  <unicode hex="0031"/>
  <outline>
    <contour>
      <point x="426" y="977" type="line" smooth="yes"/>
      <point x="428" y="989"/>
      <point x="400" y="1000"/>
      <point x="353" y="1004" type="curve" smooth="yes"/>
      <point x="307" y="1008"/>
      <point x="257" y="1005"/>
      <point x="224" y="995" type="curve"/>
      <point x="3" y="783" type="line" smooth="yes"/>
      <point x="-8" y="772"/>
      <point x="14" y="735"/>
      <point x="52" y="700" type="curve" smooth="yes"/>
      <point x="91" y="666"/>
      <point x="131" y="646"/>
      <point x="143" y="657" type="curve" smooth="yes"/>
      <point x="179" y="693" type="line"/>
      <point x="92" y="20" type="line" smooth="yes"/>
      <point x="90" y="6"/>
      <point x="135" y="-6"/>
      <point x="193" y="-6" type="curve" smooth="yes"/>
      <point x="251" y="-6"/>
      <point x="300" y="6"/>
      <point x="302" y="20" type="curve" smooth="yes"/>
    </contour>
  </outline>
</glyph>
<glyph name="2" format="1">
  <advance width="895"/>
  <unicode hex="0032"/>
  <outline>
    <contour>
      <point x="290" y="194" type="line"/>
      <point x="617" y="194" type="line" smooth="yes"/>
      <point x="656" y="194"/>
      <point x="682" y="151"/>
      <point x="675" y="97" type="curve"/>
      <point x="675" y="97" type="line"/>
      <point x="668" y="43"/>
      <point x="631" y="0"/>
      <point x="592" y="0" type="curve" smooth="yes"/>
      <point x="74" y="0" type="line" smooth="yes"/>
      <point x="25" y="0"/>
      <point x="-7" y="54"/>
      <point x="1" y="121" type="curve"/>
      <point x="1" y="121" type="line"/>
      <point x="6" y="159"/>
      <point x="23" y="192"/>
      <point x="45" y="215" type="curve" smooth="yes"/>
      <point x="528" y="694" type="line" smooth="yes"/>
      <point x="539" y="704"/>
      <point x="546" y="716"/>
      <point x="547" y="729" type="curve"/>
      <point x="547" y="729" type="line"/>
      <point x="553" y="771"/>
      <point x="500" y="806"/>
      <point x="429" y="806" type="curve"/>
      <point x="429" y="806" type="line"/>
      <point x="370" y="806"/>
      <point x="318" y="795"/>
      <point x="280" y="774" type="curve" smooth="yes"/>
      <point x="276" y="772" type="line"/>
      <point x="251" y="743"/>
      <point x="197" y="745"/>
      <point x="157" y="777" type="curve"/>
      <point x="157" y="777" type="line"/>
      <point x="116" y="810"/>
      <point x="104" y="860"/>
      <point x="129" y="890" type="curve"/>
      <point x="125" y="888" type="line"/>
      <point x="210" y="961"/>
      <point x="325" y="1000"/>
      <point x="454" y="1000" type="curve"/>
      <point x="454" y="1000" type="line"/>
      <point x="641" y="1000"/>
      <point x="777" y="879"/>
      <point x="757" y="729" type="curve"/>
      <point x="757" y="729" type="line"/>
      <point x="751" y="684"/>
      <point x="732" y="641"/>
      <point x="703" y="604" type="curve"/>
    </contour>
  </outline>
</glyph>
<glyph name="two" format="1">
  <advance width="898"/>
  <unicode hex="0032"/>
  <outline>
    <contour>
      <point x="289" y="194" type="line"/>
      <point x="705" y="603" type="line"/>
      <point x="735" y="641"/>
      <point x="755" y="684"/>
      <point x="761" y="729" type="curve" smooth="yes"/>
      <point x="780" y="879"/>
      <point x="644" y="1000"/>
      <point x="458" y="1000" type="curve" smooth="yes"/>
      <point x="330" y="1000"/>
      <point x="212" y="960"/>
      <point x="132" y="892" type="curve" smooth="yes"/>
      <point x="120" y="881"/>
      <point x="140" y="842"/>
      <point x="175" y="805" type="curve" smooth="yes"/>
      <point x="211" y="768"/>
      <point x="249" y="746"/>
      <point x="260" y="757" type="curve" smooth="yes"/>
      <point x="292" y="787"/>
      <point x="357" y="806"/>
      <point x="432" y="806" type="curve" smooth="yes"/>
      <point x="503" y="806"/>
      <point x="556" y="771"/>
      <point x="551" y="729" type="curve" smooth="yes"/>
      <point x="549" y="716"/>
      <point x="542" y="704"/>
      <point x="531" y="694" type="curve" smooth="yes"/>
      <point x="38" y="208" type="line" smooth="yes"/>
      <point x="23" y="194"/>
      <point x="9" y="154"/>
      <point x="3" y="107" type="curve" smooth="yes"/>
      <point x="-5" y="48"/>
      <point x="3" y="0"/>
      <point x="20" y="0" type="curve" smooth="yes"/>
      <point x="638" y="0" type="line" smooth="yes"/>
      <point x="653" y="0"/>
      <point x="672" y="43"/>
      <point x="679" y="97" type="curve" smooth="yes"/>
      <point x="686" y="151"/>
      <point x="678" y="194"/>
      <point x="663" y="194" type="curve" smooth="yes"/>
    </contour>
  </outline>
</glyph>
<glyph name="Digit_Three" format="1">
  <advance width="656"/>
  <unicode hex="0033"/>
  <outline>
    <contour>
      <point x="518" y="549" type="curve"/>
      <point x="589" y="585"/>
      <point x="643" y="651"/>
      <point x="653" y="727" type="curve"/>
      <point x="653" y="727" type="line"/>
      <point x="673" y="881"/>
      <point x="552" y="1006"/>
      <point x="382" y="1006" type="curve"/>
      <point x="382" y="1006" type="line"/>
      <point x="297" y="1006"/>
      <point x="221" y="979"/>
      <point x="154" y="924" type="curve"/>
      <point x="155" y="923" type="line"/>
      <point x="127" y="896"/>
      <point x="132" y="844"/>
      <point x="168" y="806" type="curve"/>
      <point x="168" y="806" type="line"/>
      <point x="203" y="769"/>
      <point x="255" y="761"/>
      <point x="284" y="788" type="curve"/>
      <point x="285" y="787" type="line"/>
      <point x="306" y="803"/>
      <point x="330" y="812"/>
      <point x="357" y="812" type="curve"/>
      <point x="357" y="812" type="line"/>
      <point x="406" y="812"/>
      <point x="441" y="774"/>
      <point x="435" y="727" type="curve"/>
      <point x="435" y="727" type="line"/>
      <point x="429" y="680"/>
      <point x="384" y="643"/>
      <point x="335" y="643" type="curve"/>
      <point x="335" y="643" type="line"/>
      <point x="302" y="643"/>
      <point x="269" y="599"/>
      <point x="262" y="545" type="curve"/>
      <point x="262" y="545" type="line"/>
      <point x="255" y="492"/>
      <point x="276" y="448"/>
      <point x="310" y="448" type="curve"/>
      <point x="310" y="448" type="line"/>
      <point x="387" y="448"/>
      <point x="442" y="390"/>
      <point x="432" y="318" type="curve"/>
      <point x="432" y="318" type="line"/>
      <point x="423" y="247"/>
      <point x="353" y="188"/>
      <point x="276" y="188" type="curve"/>
      <point x="276" y="188" type="line"/>
      <point x="234" y="188"/>
      <point x="200" y="201"/>
      <point x="174" y="226" type="curve"/>
      <point x="173" y="225" type="line"/>
      <point x="151" y="253"/>
      <point x="97" y="244"/>
      <point x="52" y="207" type="curve"/>
      <point x="52" y="207" type="line"/>
      <point x="6" y="170"/>
      <point x="-13" y="117"/>
      <point x="9" y="90" type="curve"/>
      <point x="8" y="89" type="line"/>
      <point x="70" y="26"/>
      <point x="151" y="-6"/>
      <point x="251" y="-6" type="curve"/>
      <point x="251" y="-6" type="line"/>
      <point x="450" y="-6"/>
      <point x="630" y="139"/>
      <point x="654" y="318" type="curve"/>
      <point x="654" y="318" type="line"/>
      <point x="667" y="421"/>
      <point x="610" y="509"/>
    </contour>
  </outline>
</glyph>
<glyph name="three" format="1">
  <advance width="790"/>
  <unicode hex="0033"/>
  <outline>
    <contour>
      <point x="517" y="549" type="curve"/>
      <point x="588" y="585"/>
      <point x="642" y="651"/>
      <point x="652" y="727" type="curve" smooth="yes"/>
      <point x="672" y="881"/>
      <point x="551" y="1006"/>
      <point x="381" y="1006" type="curve" smooth="yes"/>
      <point x="296" y="1006"/>
      <point x="221" y="979"/>
      <point x="154" y="924" type="curve"/>
      <point x="128" y="898"/>
      <point x="135" y="847"/>
      <point x="171" y="810" type="curve" smooth="yes"/>
      <point x="206" y="773"/>
      <point x="257" y="763"/>
      <point x="284" y="787" type="curve"/>
      <point x="305" y="803"/>
      <point x="329" y="812"/>
      <point x="356" y="812" type="curve" smooth="yes"/>
      <point x="405" y="812"/>
      <point x="441" y="774"/>
      <point x="434" y="727" type="curve" smooth="yes"/>
      <point x="429" y="684"/>
      <point x="390" y="648"/>
      <point x="345" y="643" type="curve" smooth="yes"/>
      <point x="259" y="634" type="line" smooth="yes"/>
      <point x="232" y="631"/>
      <point x="206" y="592"/>
      <point x="200" y="545" type="curve" smooth="yes"/>
      <point x="194" y="498"/>
      <point x="210" y="460"/>
      <point x="237" y="457" type="curve" smooth="yes"/>
      <point x="325" y="447" type="line" smooth="yes"/>
      <point x="393" y="440"/>
      <point x="440" y="385"/>
      <point x="431" y="318" type="curve" smooth="yes"/>
      <point x="422" y="247"/>
      <point x="352" y="188"/>
      <point x="275" y="188" type="curve" smooth="yes"/>
      <point x="233" y="188"/>
      <point x="199" y="201"/>
      <point x="172" y="226" type="curve"/>
      <point x="152" y="251"/>
      <point x="99" y="241"/>
      <point x="54" y="203" type="curve" smooth="yes"/>
      <point x="8" y="166"/>
      <point x="-12" y="115"/>
      <point x="7" y="90" type="curve"/>
      <point x="69" y="26"/>
      <point x="150" y="-6"/>
      <point x="250" y="-6" type="curve" smooth="yes"/>
      <point x="449" y="-6"/>
      <point x="629" y="139"/>
      <point x="653" y="318" type="curve" smooth="yes"/>
      <point x="666" y="421"/>
      <point x="609" y="509"/>
    </contour>
  </outline>
</glyph>
<glyph name="Digit_Four" format="1">
  <advance width="858"/>
  <unicode hex="0034"/>
  <outline>
    <contour>
      <point x="439" y="624" type="line"/>
      <point x="412" y="417" type="line"/>
      <point x="278" y="417" type="line"/>
    </contour>
    <contour>
      <point x="597" y="223" type="line"/>
      <point x="638" y="223" type="line" smooth="yes"/>
      <point x="677" y="223"/>
      <point x="714" y="266"/>
      <point x="721" y="320" type="curve"/>
      <point x="721" y="320" type="line"/>
      <point x="728" y="374"/>
      <point x="702" y="417"/>
      <point x="663" y="417" type="curve" smooth="yes"/>
      <point x="622" y="417" type="line"/>
      <point x="689" y="930" type="line" smooth="yes"/>
      <point x="695" y="972"/>
      <point x="645" y="1006"/>
      <point x="578" y="1006" type="curve"/>
      <point x="578" y="1006" type="line"/>
      <point x="528" y="1006"/>
      <point x="482" y="986"/>
      <point x="460" y="959" type="curve" smooth="yes"/>
      <point x="32" y="409" type="line" smooth="yes"/>
      <point x="16" y="389"/>
      <point x="5" y="363"/>
      <point x="1" y="335" type="curve"/>
      <point x="1" y="335" type="line"/>
      <point x="-7" y="273"/>
      <point x="23" y="223"/>
      <point x="68" y="223" type="curve" smooth="yes"/>
      <point x="387" y="223" type="line"/>
      <point x="366" y="60" type="line" smooth="yes"/>
      <point x="361" y="24"/>
      <point x="404" y="-6"/>
      <point x="462" y="-6" type="curve" smooth="yes"/>
      <point x="520" y="-6"/>
      <point x="571" y="24"/>
      <point x="576" y="60" type="curve" smooth="yes"/>
    </contour>
  </outline>
</glyph>
<glyph name="four" format="1">
  <advance width="858"/>
  <unicode hex="0034"/>
  <outline>
    <contour>
      <point x="440" y="627" type="line"/>
      <point x="413" y="417" type="line"/>
      <point x="277" y="417" type="line"/>
    </contour>
    <contour>
      <point x="597" y="223" type="line"/>
      <point x="643" y="223" type="line" smooth="yes"/>
      <point x="679" y="223"/>
      <point x="715" y="266"/>
      <point x="721" y="320" type="curve" smooth="yes"/>
      <point x="728" y="374"/>
      <point x="705" y="417"/>
      <point x="668" y="417" type="curve" smooth="yes"/>
      <point x="623" y="417" type="line"/>
      <point x="690" y="936" type="line" smooth="yes"/>
      <point x="695" y="974"/>
      <point x="645" y="1006"/>
      <point x="578" y="1006" type="curve" smooth="yes"/>
      <point x="527" y="1006"/>
      <point x="480" y="987"/>
      <point x="459" y="960" type="curve" smooth="yes"/>
      <point x="32" y="412" type="line" smooth="yes"/>
      <point x="17" y="392"/>
      <point x="5" y="365"/>
      <point x="1" y="335" type="curve" smooth="yes"/>
      <point x="-7" y="273"/>
      <point x="21" y="223"/>
      <point x="63" y="223" type="curve" smooth="yes"/>
      <point x="387" y="223" type="line"/>
      <point x="365" y="55" type="line" smooth="yes"/>
      <point x="361" y="21"/>
      <point x="405" y="-6"/>
      <point x="463" y="-6" type="curve" smooth="yes"/>
      <point x="521" y="-6"/>
      <point x="571" y="21"/>
      <point x="575" y="55" type="curve" smooth="yes"/>
    </contour>
  </outline>
</glyph>
<glyph name="Digit_Five" format="1">
  <advance width="731"/>
  <unicode hex="0035"/>
  <outline>
    <contour>
      <point x="355" y="806" type="line"/>
      <point x="646" y="806" type="line" smooth="yes"/>
      <point x="685" y="806"/>
      <point x="723" y="849"/>
      <point x="730" y="903" type="curve"/>
      <point x="730" y="903" type="line"/>
      <point x="737" y="957"/>
      <point x="711" y="1000"/>
      <point x="671" y="1000" type="curve" smooth="yes"/>
      <point x="257" y="1000" type="line" smooth="yes"/>
      <point x="223" y="1000"/>
      <point x="190" y="967"/>
      <point x="178" y="923" type="curve" smooth="yes"/>
      <point x="68" y="531" type="line" smooth="yes"/>
      <point x="60" y="504"/>
      <point x="68" y="470"/>
      <point x="91" y="442" type="curve"/>
      <point x="91" y="442" type="line"/>
      <point x="123" y="403"/>
      <point x="174" y="391"/>
      <point x="205" y="417" type="curve"/>
      <point x="205" y="416" type="line"/>
      <point x="237" y="438"/>
      <point x="271" y="448"/>
      <point x="310" y="448" type="curve"/>
      <point x="310" y="448" type="line"/>
      <point x="387" y="448"/>
      <point x="442" y="390"/>
      <point x="432" y="318" type="curve"/>
      <point x="432" y="318" type="line"/>
      <point x="423" y="247"/>
      <point x="353" y="188"/>
      <point x="276" y="188" type="curve"/>
      <point x="276" y="188" type="line"/>
      <point x="234" y="188"/>
      <point x="200" y="201"/>
      <point x="174" y="226" type="curve"/>
      <point x="173" y="225" type="line"/>
      <point x="151" y="253"/>
      <point x="97" y="244"/>
      <point x="52" y="207" type="curve"/>
      <point x="52" y="207" type="line"/>
      <point x="6" y="170"/>
      <point x="-13" y="117"/>
      <point x="9" y="90" type="curve"/>
      <point x="8" y="89" type="line"/>
      <point x="70" y="26"/>
      <point x="151" y="-6"/>
      <point x="251" y="-6" type="curve"/>
      <point x="251" y="-6" type="line"/>
      <point x="450" y="-6"/>
      <point x="630" y="139"/>
      <point x="654" y="318" type="curve"/>
      <point x="654" y="318" type="line"/>
      <point x="677" y="497"/>
      <point x="534" y="643"/>
      <point x="335" y="643" type="curve"/>
      <point x="335" y="643" type="line"/>
      <point x="326" y="643"/>
      <point x="317" y="642"/>
      <point x="309" y="642" type="curve"/>
    </contour>
  </outline>
</glyph>
<glyph name="five" format="1">
  <advance width="861"/>
  <unicode hex="0035"/>
  <outline>
    <contour>
      <point x="349" y="806" type="line"/>
      <point x="682" y="806" type="line" smooth="yes"/>
      <point x="697" y="806"/>
      <point x="716" y="849"/>
      <point x="723" y="903" type="curve" smooth="yes"/>
      <point x="730" y="957"/>
      <point x="723" y="1000"/>
      <point x="707" y="1000" type="curve" smooth="yes"/>
      <point x="208" y="1000" type="line" smooth="yes"/>
      <point x="196" y="1000"/>
      <point x="183" y="976"/>
      <point x="174" y="941" type="curve" smooth="yes"/>
      <point x="76" y="555" type="line" smooth="yes"/>
      <point x="72" y="539"/>
      <point x="88" y="504"/>
      <point x="117" y="470" type="curve" smooth="yes"/>
      <point x="149" y="430"/>
      <point x="186" y="407"/>
      <point x="198" y="416" type="curve" smooth="yes"/>
      <point x="230" y="438"/>
      <point x="264" y="448"/>
      <point x="303" y="448" type="curve" smooth="yes"/>
      <point x="383" y="448"/>
      <point x="442" y="390"/>
      <point x="432" y="318" type="curve" smooth="yes"/>
      <point x="423" y="247"/>
      <point x="350" y="188"/>
      <point x="269" y="188" type="curve" smooth="yes"/>
      <point x="227" y="188"/>
      <point x="193" y="201"/>
      <point x="166" y="226" type="curve"/>
      <point x="157" y="236"/>
      <point x="113" y="215"/>
      <point x="68" y="177" type="curve" smooth="yes"/>
      <point x="23" y="140"/>
      <point x="-7" y="101"/>
      <point x="1" y="90" type="curve"/>
      <point x="63" y="26"/>
      <point x="144" y="-6"/>
      <point x="244" y="-6" type="curve" smooth="yes"/>
      <point x="443" y="-6"/>
      <point x="623" y="139"/>
      <point x="647" y="318" type="curve" smooth="yes"/>
      <point x="670" y="497"/>
      <point x="527" y="643"/>
      <point x="328" y="643" type="curve" smooth="yes"/>
      <point x="321" y="643"/>
      <point x="314" y="642"/>
      <point x="308" y="642" type="curve"/>
    </contour>
  </outline>
</glyph>
<glyph name="Digit_Six" format="1">
  <advance width="655"/>
  <unicode hex="0036"/>
  <outline>
    <contour>
      <point x="221" y="319" type="curve"/>
      <point x="231" y="391"/>
      <point x="286" y="450"/>
      <point x="345" y="450" type="curve"/>
      <point x="345" y="450" type="line"/>
      <point x="403" y="450"/>
      <point x="443" y="391"/>
      <point x="434" y="319" type="curve"/>
      <point x="434" y="319" type="line"/>
      <point x="424" y="247"/>
      <point x="369" y="188"/>
      <point x="311" y="188" type="curve"/>
      <point x="311" y="188" type="line"/>
      <point x="252" y="188"/>
      <point x="212" y="247"/>
    </contour>
    <contour>
      <point x="387" y="988" type="curve" smooth="yes"/>
      <point x="206" y="788"/>
      <point x="38" y="588"/>
      <point x="3" y="319" type="curve" smooth="yes"/>
      <point x="-21" y="140"/>
      <point x="106" y="-6"/>
      <point x="285" y="-6" type="curve"/>
      <point x="285" y="-6" type="line"/>
      <point x="465" y="-6"/>
      <point x="629" y="140"/>
      <point x="652" y="319" type="curve"/>
      <point x="652" y="319" type="line"/>
      <point x="674" y="485"/>
      <point x="557" y="620"/>
      <point x="391" y="620" type="curve"/>
      <point x="391" y="620" type="line"/>
      <point x="369" y="620"/>
      <point x="347" y="617"/>
      <point x="326" y="613" type="curve"/>
      <point x="326" y="613" type="line"/>
      <point x="383" y="702"/>
      <point x="455" y="783"/>
      <point x="530" y="865" type="curve" smooth="yes"/>
      <point x="556" y="894"/>
      <point x="546" y="945"/>
      <point x="506" y="979" type="curve"/>
      <point x="506" y="979" type="line"/>
      <point x="467" y="1013"/>
      <point x="414" y="1017"/>
    </contour>
  </outline>
</glyph>
<glyph name="six" format="1">
  <advance width="790"/>
  <unicode hex="0036"/>
  <outline>
    <contour>
      <point x="216" y="319" type="curve" smooth="yes"/>
      <point x="226" y="391"/>
      <point x="283" y="450"/>
      <point x="345" y="450" type="curve" smooth="yes"/>
      <point x="406" y="450"/>
      <point x="448" y="391"/>
      <point x="439" y="319" type="curve" smooth="yes"/>
      <point x="430" y="247"/>
      <point x="372" y="188"/>
      <point x="311" y="188" type="curve" smooth="yes"/>
      <point x="249" y="188"/>
      <point x="207" y="247"/>
    </contour>
    <contour>
      <point x="391" y="1013" type="curve" smooth="yes"/>
      <point x="203" y="805"/>
      <point x="39" y="596"/>
      <point x="3" y="319" type="curve" smooth="yes"/>
      <point x="-21" y="140"/>
      <point x="106" y="-6"/>
      <point x="285" y="-6" type="curve" smooth="yes"/>
      <point x="465" y="-6"/>
      <point x="629" y="140"/>
      <point x="652" y="319" type="curve" smooth="yes"/>
      <point x="674" y="485"/>
      <point x="557" y="620"/>
      <point x="391" y="620" type="curve" smooth="yes"/>
      <point x="366" y="620"/>
      <point x="341" y="616"/>
      <point x="317" y="611" type="curve"/>
      <point x="375" y="710"/>
      <point x="451" y="800"/>
      <point x="533" y="890" type="curve" smooth="yes"/>
      <point x="543" y="902"/>
      <point x="520" y="939"/>
      <point x="481" y="973" type="curve" smooth="yes"/>
      <point x="442" y="1007"/>
      <point x="401" y="1025"/>
    </contour>
  </outline>
</glyph>
<glyph name="7" format="1">
  <advance width="882"/>
  <unicode hex="0037"/>
  <outline>
    <contour>
      <point x="463" y="812" type="line"/>
      <point x="371" y="688" type="line" smooth="yes"/>
      <point x="224" y="490"/>
      <point x="129" y="295"/>
      <point x="98" y="60" type="curve" smooth="yes"/>
      <point x="94" y="24"/>
      <point x="137" y="-6"/>
      <point x="195" y="-6" type="curve" smooth="yes"/>
      <point x="253" y="-6"/>
      <point x="304" y="24"/>
      <point x="308" y="60" type="curve" smooth="yes"/>
      <point x="334" y="254"/>
      <point x="407" y="418"/>
      <point x="529" y="583" type="curve" smooth="yes"/>
      <point x="719" y="838" type="line" smooth="yes"/>
      <point x="742" y="869"/>
      <point x="751" y="910"/>
      <point x="744" y="947" type="curve"/>
      <point x="744" y="947" type="line"/>
      <point x="736" y="984"/>
      <point x="714" y="1006"/>
      <point x="684" y="1006" type="curve" smooth="yes"/>
      <point x="85" y="1006" type="line" smooth="yes"/>
      <point x="45" y="1006"/>
      <point x="8" y="962"/>
      <point x="1" y="909" type="curve"/>
      <point x="1" y="909" type="line"/>
      <point x="-6" y="855"/>
      <point x="20" y="812"/>
      <point x="59" y="812" type="curve" smooth="yes"/>
    </contour>
  </outline>
</glyph>
<glyph name="seven" format="1">
  <advance width="839"/>
  <unicode hex="0037"/>
  <outline>
    <contour>
      <point x="450" y="812" type="line"/>
      <point x="307" y="584" type="line" smooth="yes"/>
      <point x="192" y="400"/>
      <point x="114" y="228"/>
      <point x="86" y="20" type="curve"/>
      <point x="85" y="6"/>
      <point x="130" y="-6"/>
      <point x="188" y="-6" type="curve" smooth="yes"/>
      <point x="246" y="-6"/>
      <point x="295" y="6"/>
      <point x="296" y="20" type="curve"/>
      <point x="319" y="194"/>
      <point x="381" y="339"/>
      <point x="477" y="493" type="curve" smooth="yes"/>
      <point x="674" y="807" type="line" smooth="yes"/>
      <point x="689" y="832"/>
      <point x="701" y="880"/>
      <point x="703" y="927" type="curve" smooth="yes"/>
      <point x="706" y="974"/>
      <point x="698" y="1006"/>
      <point x="684" y="1006" type="curve" smooth="yes"/>
      <point x="44" y="1006" type="line" smooth="yes"/>
      <point x="28" y="1006"/>
      <point x="10" y="962"/>
      <point x="3" y="909" type="curve" smooth="yes"/>
      <point x="-4" y="855"/>
      <point x="3" y="812"/>
      <point x="18" y="812" type="curve" smooth="yes"/>
    </contour>
  </outline>
</glyph>
<glyph name="9" format="1">
  <advance width="790"/>
  <unicode hex="0039"/>
  <outline>
    <contour>
      <point x="434" y="681" type="curve"/>
      <point x="434" y="681" type="line"/>
      <point x="424" y="609"/>
      <point x="369" y="550"/>
      <point x="310" y="550" type="curve"/>
      <point x="310" y="550" type="line"/>
      <point x="252" y="550"/>
      <point x="212" y="609"/>
      <point x="221" y="681" type="curve"/>
      <point x="221" y="681" type="line"/>
      <point x="230" y="753"/>
      <point x="286" y="812"/>
      <point x="344" y="812" type="curve"/>
      <point x="344" y="812" type="line"/>
      <point x="403" y="812"/>
      <point x="443" y="753"/>
    </contour>
    <contour>
      <point x="268" y="12" type="curve" smooth="yes"/>
      <point x="449" y="212"/>
      <point x="617" y="412"/>
      <point x="652" y="681" type="curve" smooth="yes"/>
      <point x="676" y="860"/>
      <point x="549" y="1006"/>
      <point x="370" y="1006" type="curve"/>
      <point x="370" y="1006" type="line"/>
      <point x="190" y="1006"/>
      <point x="26" y="860"/>
      <point x="2" y="681" type="curve"/>
      <point x="2" y="681" type="line"/>
      <point x="-19" y="516"/>
      <point x="97" y="382"/>
      <point x="263" y="382" type="curve"/>
      <point x="263" y="382" type="line"/>
      <point x="286" y="382"/>
      <point x="308" y="385"/>
      <point x="331" y="390" type="curve"/>
      <point x="331" y="390" type="line"/>
      <point x="273" y="300"/>
      <point x="200" y="217"/>
      <point x="125" y="135" type="curve" smooth="yes"/>
      <point x="99" y="106"/>
      <point x="109" y="55"/>
      <point x="149" y="21" type="curve"/>
      <point x="149" y="21" type="line"/>
      <point x="188" y="-13"/>
      <point x="241" y="-17"/>
    </contour>
  </outline>
</glyph>
<glyph name="nine" format="1">
  <advance width="790"/>
  <unicode hex="0039"/>
  <outline>
    <contour>
      <point x="434" y="681" type="curve" smooth="yes"/>
      <point x="424" y="609"/>
      <point x="369" y="550"/>
      <point x="310" y="550" type="curve" smooth="yes"/>
      <point x="252" y="550"/>
      <point x="212" y="609"/>
      <point x="221" y="681" type="curve" smooth="yes"/>
      <point x="230" y="753"/>
      <point x="286" y="812"/>
      <point x="344" y="812" type="curve" smooth="yes"/>
      <point x="403" y="812"/>
      <point x="443" y="753"/>
    </contour>
    <contour>
      <point x="267" y="9" type="curve" smooth="yes"/>
      <point x="449" y="210"/>
      <point x="617" y="411"/>
      <point x="652" y="681" type="curve" smooth="yes"/>
      <point x="676" y="860"/>
      <point x="549" y="1006"/>
      <point x="370" y="1006" type="curve" smooth="yes"/>
      <point x="190" y="1006"/>
      <point x="26" y="860"/>
      <point x="2" y="681" type="curve" smooth="yes"/>
      <point x="-19" y="515"/>
      <point x="98" y="380"/>
      <point x="264" y="380" type="curve" smooth="yes"/>
      <point x="286" y="380"/>
      <point x="309" y="383"/>
      <point x="330" y="388" type="curve"/>
      <point x="273" y="297"/>
      <point x="200" y="215"/>
      <point x="125" y="132" type="curve" smooth="yes"/>
      <point x="100" y="105"/>
      <point x="112" y="55"/>
      <point x="152" y="22" type="curve" smooth="yes"/>
      <point x="191" y="-12"/>
      <point x="243" y="-18"/>
    </contour>
  </outline>
</glyph>
<glyph name="colon" format="1">
  <advance width="439"/>
  <unicode hex="003A"/>
  <outline>
    <contour>
      <point x="252" y="184" type="line" smooth="yes"/>
      <point x="254" y="200"/>
      <point x="204" y="213"/>
      <point x="140" y="213" type="curve" smooth="yes"/>
      <point x="76" y="213"/>
      <point x="23" y="200"/>
      <point x="21" y="184" type="curve" smooth="yes"/>
      <point x="0" y="23" type="line" smooth="yes"/>
      <point x="-2" y="7"/>
      <point x="48" y="-6"/>
      <point x="112" y="-6" type="curve" smooth="yes"/>
      <point x="176" y="-6"/>
      <point x="229" y="7"/>
      <point x="231" y="23" type="curve" smooth="yes"/>
    </contour>
    <contour>
      <point x="304" y="584" type="line" smooth="yes"/>
      <point x="306" y="600"/>
      <point x="256" y="613"/>
      <point x="192" y="613" type="curve" smooth="yes"/>
      <point x="128" y="613"/>
      <point x="75" y="600"/>
      <point x="73" y="584" type="curve" smooth="yes"/>
      <point x="52" y="423" type="line" smooth="yes"/>
      <point x="50" y="407"/>
      <point x="100" y="394"/>
      <point x="164" y="394" type="curve" smooth="yes"/>
      <point x="228" y="394"/>
      <point x="281" y="407"/>
      <point x="283" y="423" type="curve" smooth="yes"/>
    </contour>
  </outline>
</glyph>
<glyph name="semicolon" format="1">
  <advance width="434"/>
  <unicode hex="003B"/>
  <outline>
    <contour>
      <point x="246" y="153" type="curve" smooth="yes"/>
      <point x="251" y="190"/>
      <point x="203" y="220"/>
      <point x="139" y="220" type="curve" smooth="yes"/>
      <point x="76" y="220"/>
      <point x="20" y="190"/>
      <point x="15" y="153" type="curve" smooth="yes"/>
      <point x="3" y="61" type="line" smooth="yes"/>
      <point x="0" y="37"/>
      <point x="19" y="16"/>
      <point x="51" y="4" type="curve" smooth="yes"/>
      <point x="59" y="1"/>
      <point x="64" y="-10"/>
      <point x="63" y="-23" type="curve"/>
      <point x="63" y="-37"/>
      <point x="57" y="-49"/>
      <point x="48" y="-55" type="curve"/>
      <point x="13" y="-73" type="line" smooth="yes"/>
      <point x="1" y="-79"/>
      <point x="-4" y="-98"/>
      <point x="3" y="-115" type="curve" smooth="yes"/>
      <point x="10" y="-133"/>
      <point x="25" y="-142"/>
      <point x="37" y="-136" type="curve" smooth="yes"/>
      <point x="156" y="-79"/>
      <point x="230" y="30"/>
    </contour>
    <contour>
      <point x="298" y="553" type="line" smooth="yes"/>
      <point x="303" y="590"/>
      <point x="255" y="620"/>
      <point x="191" y="620" type="curve" smooth="yes"/>
      <point x="128" y="620"/>
      <point x="72" y="590"/>
      <point x="67" y="553" type="curve" smooth="yes"/>
      <point x="55" y="461" type="line" smooth="yes"/>
      <point x="51" y="424"/>
      <point x="98" y="394"/>
      <point x="162" y="394" type="curve" smooth="yes"/>
      <point x="226" y="394"/>
      <point x="282" y="424"/>
      <point x="286" y="461" type="curve" smooth="yes"/>
    </contour>
  </outline>
</glyph>
<glyph name="less" format="1">
  <advance width="768"/>
  <unicode hex="003C"/>
  <outline>
    <contour>
      <point x="485" y="190" type="line"/>
      <point x="488" y="189"/>
      <point x="492" y="190"/>
      <point x="498" y="193" type="curve"/>
      <point x="521" y="207"/>
      <point x="556" y="257"/>
      <point x="576" y="305" type="curve" smooth="yes"/>
      <point x="592" y="341"/>
      <point x="594" y="366"/>
      <point x="585" y="370" type="curve" smooth="yes"/>
      <point x="272" y="510" type="line"/>
      <point x="621" y="650" type="line" smooth="yes"/>
      <point x="632" y="654"/>
      <point x="636" y="679"/>
      <point x="630" y="715" type="curve" smooth="yes"/>
      <point x="622" y="763"/>
      <point x="600" y="813"/>
      <point x="581" y="827" type="curve"/>
      <point x="576" y="830"/>
      <point x="572" y="831"/>
      <point x="568" y="830" type="curve"/>
      <point x="46" y="621" type="line" smooth="yes"/>
      <point x="29" y="614"/>
      <point x="11" y="567"/>
      <point x="3" y="510" type="curve" smooth="yes"/>
      <point x="-4" y="453"/>
      <point x="2" y="406"/>
      <point x="17" y="399" type="curve" smooth="yes"/>
    </contour>
  </outline>
</glyph>
<glyph name="equal" format="1">
  <advance width="831"/>
  <unicode hex="003D"/>
  <outline>
    <contour>
      <point x="616" y="578" type="line" smooth="yes"/>
      <point x="652" y="578"/>
      <point x="687" y="621"/>
      <point x="694" y="675" type="curve" smooth="yes"/>
      <point x="701" y="729"/>
      <point x="677" y="772"/>
      <point x="641" y="772" type="curve" smooth="yes"/>
      <point x="123" y="772" type="line" smooth="yes"/>
      <point x="86" y="772"/>
      <point x="51" y="729"/>
      <point x="44" y="675" type="curve" smooth="yes"/>
      <point x="37" y="621"/>
      <point x="61" y="578"/>
      <point x="97" y="578" type="curve" smooth="yes"/>
    </contour>
    <contour>
      <point x="573" y="248" type="line" smooth="yes"/>
      <point x="609" y="248"/>
      <point x="644" y="291"/>
      <point x="651" y="345" type="curve" smooth="yes"/>
      <point x="658" y="399"/>
      <point x="634" y="442"/>
      <point x="598" y="442" type="curve" smooth="yes"/>
      <point x="80" y="442" type="line" smooth="yes"/>
      <point x="43" y="442"/>
      <point x="8" y="399"/>
      <point x="1" y="345" type="curve" smooth="yes"/>
      <point x="-6" y="291"/>
      <point x="18" y="248"/>
      <point x="54" y="248" type="curve" smooth="yes"/>
    </contour>
  </outline>
</glyph>
<glyph name="greater" format="1">
  <advance width="768"/>
  <unicode hex="003E"/>
  <outline>
    <contour>
      <point x="64" y="190" type="curve"/>
      <point x="586" y="399" type="line" smooth="yes"/>
      <point x="603" y="406"/>
      <point x="622" y="453"/>
      <point x="629" y="510" type="curve" smooth="yes"/>
      <point x="637" y="567"/>
      <point x="630" y="614"/>
      <point x="615" y="621" type="curve" smooth="yes"/>
      <point x="148" y="830" type="line"/>
      <point x="144" y="831"/>
      <point x="140" y="830"/>
      <point x="134" y="827" type="curve"/>
      <point x="111" y="813"/>
      <point x="76" y="763"/>
      <point x="56" y="715" type="curve" smooth="yes"/>
      <point x="41" y="679"/>
      <point x="38" y="654"/>
      <point x="48" y="650" type="curve" smooth="yes"/>
      <point x="361" y="510" type="line"/>
      <point x="11" y="370" type="line" smooth="yes"/>
      <point x="1" y="366"/>
      <point x="-3" y="341"/>
      <point x="3" y="305" type="curve" smooth="yes"/>
      <point x="10" y="257"/>
      <point x="32" y="207"/>
      <point x="52" y="193" type="curve"/>
      <point x="57" y="190"/>
      <point x="61" y="189"/>
    </contour>
  </outline>
</glyph>
<glyph name="question" format="1">
  <advance width="861"/>
  <unicode hex="003F"/>
  <outline>
    <contour>
      <point x="399" y="184" type="line" smooth="yes"/>
      <point x="401" y="200"/>
      <point x="351" y="213"/>
      <point x="288" y="213" type="curve" smooth="yes"/>
      <point x="224" y="213"/>
      <point x="170" y="200"/>
      <point x="168" y="184" type="curve" smooth="yes"/>
      <point x="147" y="23" type="line" smooth="yes"/>
      <point x="145" y="7"/>
      <point x="195" y="-6"/>
      <point x="259" y="-6" type="curve" smooth="yes"/>
      <point x="323" y="-6"/>
      <point x="376" y="7"/>
      <point x="378" y="23" type="curve" smooth="yes"/>
    </contour>
    <contour>
      <point x="0" y="764" type="curve"/>
      <point x="-3" y="754"/>
      <point x="11" y="741"/>
      <point x="39" y="727" type="curve" smooth="yes"/>
      <point x="67" y="713"/>
      <point x="101" y="702"/>
      <point x="134" y="698" type="curve" smooth="yes"/>
      <point x="166" y="693"/>
      <point x="186" y="695"/>
      <point x="191" y="704" type="curve"/>
      <point x="227" y="778"/>
      <point x="311" y="822"/>
      <point x="391" y="810" type="curve" smooth="yes"/>
      <point x="472" y="798"/>
      <point x="523" y="733"/>
      <point x="513" y="656" type="curve" smooth="yes"/>
      <point x="507" y="606"/>
      <point x="433" y="597"/>
      <point x="406" y="576" type="curve" smooth="yes"/>
      <point x="329" y="515"/>
      <point x="215" y="459"/>
      <point x="200" y="346" type="curve" smooth="yes"/>
      <point x="198" y="332"/>
      <point x="243" y="320"/>
      <point x="301" y="320" type="curve" smooth="yes"/>
      <point x="359" y="320"/>
      <point x="408" y="332"/>
      <point x="410" y="346" type="curve" smooth="yes"/>
      <point x="416" y="396"/>
      <point x="491" y="406"/>
      <point x="517" y="427" type="curve" smooth="yes"/>
      <point x="594" y="487"/>
      <point x="709" y="543"/>
      <point x="723" y="656" type="curve" smooth="yes"/>
      <point x="746" y="830"/>
      <point x="631" y="974"/>
      <point x="449" y="1002" type="curve" smooth="yes"/>
      <point x="267" y="1029"/>
      <point x="79" y="930"/>
    </contour>
  </outline>
</glyph>
<glyph name="A" format="1">
  <advance width="993"/>
  <unicode hex="0041"/>
  <outline>
    <contour>
      <point x="390" y="417" type="line"/>
      <point x="517" y="698" type="line"/>
      <point x="571" y="417" type="line"/>
    </contour>
    <contour>
      <point x="647" y="18" type="line" smooth="yes"/>
      <point x="650" y="4"/>
      <point x="700" y="-7"/>
      <point x="757" y="-6" type="curve" smooth="yes"/>
      <point x="815" y="-5"/>
      <point x="860" y="8"/>
      <point x="857" y="23" type="curve" smooth="yes"/>
      <point x="674" y="978" type="line" smooth="yes"/>
      <point x="671" y="994"/>
      <point x="620" y="1006"/>
      <point x="557" y="1006" type="curve" smooth="yes"/>
      <point x="494" y="1006"/>
      <point x="440" y="994"/>
      <point x="433" y="978" type="curve" smooth="yes"/>
      <point x="1" y="23" type="line" smooth="yes"/>
      <point x="-6" y="8"/>
      <point x="36" y="-5"/>
      <point x="93" y="-6" type="curve" smooth="yes"/>
      <point x="151" y="-7"/>
      <point x="203" y="4"/>
      <point x="209" y="18" type="curve" smooth="yes"/>
      <point x="302" y="223" type="line"/>
      <point x="608" y="223" type="line"/>
    </contour>
  </outline>
</glyph>
<glyph name="Latin_Capital_Letter_A" format="1">
  <advance width="903"/>
  <unicode hex="0041"/>
  <outline>
    <contour>
      <point x="392" y="417" type="line"/>
      <point x="536" y="705" type="line"/>
      <point x="605" y="417" type="line"/>
    </contour>
    <contour>
      <point x="694" y="45" type="line" smooth="yes"/>
      <point x="699" y="21"/>
      <point x="723" y="4"/>
      <point x="759" y="-3" type="curve" smooth="yes"/>
      <point x="795" y="-10"/>
      <point x="833" y="-5"/>
      <point x="863" y="12" type="curve" smooth="yes"/>
      <point x="894" y="28"/>
      <point x="908" y="51"/>
      <point x="902" y="75" type="curve" smooth="yes"/>
      <point x="694" y="942" type="line" smooth="yes"/>
      <point x="685" y="980"/>
      <point x="637" y="1006"/>
      <point x="575" y="1006" type="curve" smooth="yes"/>
      <point x="513" y="1006"/>
      <point x="457" y="980"/>
      <point x="438" y="942" type="curve" smooth="yes"/>
      <point x="5" y="75" type="line" smooth="yes"/>
      <point x="-13" y="39"/>
      <point x="18" y="4"/>
      <point x="73" y="-4" type="curve" smooth="yes"/>
      <point x="129" y="-12"/>
      <point x="188" y="10"/>
      <point x="206" y="45" type="curve" smooth="yes"/>
      <point x="295" y="223" type="line"/>
      <point x="651" y="223" type="line"/>
    </contour>
  </outline>
</glyph>
<glyph name="B" format="1">
  <advance width="869"/>
  <unicode hex="0042"/>
  <outline>
    <contour>
      <point x="262" y="433" type="line"/>
      <point x="408" y="433" type="line" smooth="yes"/>
      <point x="477" y="433"/>
      <point x="527" y="379"/>
      <point x="518" y="314" type="curve" smooth="yes"/>
      <point x="509" y="248"/>
      <point x="446" y="194"/>
      <point x="377" y="194" type="curve" smooth="yes"/>
      <point x="231" y="194" type="line"/>
    </contour>
    <contour>
      <point x="311" y="806" type="line"/>
      <point x="429" y="806" type="line" smooth="yes"/>
      <point x="481" y="806"/>
      <point x="518" y="766"/>
      <point x="511" y="716" type="curve" smooth="yes"/>
      <point x="505" y="667"/>
      <point x="458" y="627"/>
      <point x="406" y="627" type="curve" smooth="yes"/>
      <point x="288" y="627" type="line"/>
    </contour>
    <contour>
      <point x="352" y="0" type="line" smooth="yes"/>
      <point x="539" y="0"/>
      <point x="709" y="140"/>
      <point x="732" y="314" type="curve" smooth="yes"/>
      <point x="745" y="416"/>
      <point x="689" y="503"/>
      <point x="597" y="540" type="curve"/>
      <point x="665" y="577"/>
      <point x="715" y="642"/>
      <point x="724" y="716" type="curve" smooth="yes"/>
      <point x="745" y="873"/>
      <point x="624" y="1000"/>
      <point x="454" y="1000" type="curve" smooth="yes"/>
      <point x="247" y="1000" type="line" smooth="yes"/>
      <point x="180" y="1000"/>
      <point x="124" y="986"/>
      <point x="122" y="970" type="curve" smooth="yes"/>
      <point x="0" y="30" type="line" smooth="yes"/>
      <point x="-2" y="14"/>
      <point x="50" y="0"/>
      <point x="117" y="0" type="curve" smooth="yes"/>
    </contour>
  </outline>
</glyph>
<glyph name="C" format="1">
  <advance width="954"/>
  <unicode hex="0043"/>
  <outline>
    <contour>
      <point x="398" y="0" type="line" smooth="yes"/>
      <point x="516" y="0"/>
      <point x="629" y="53"/>
      <point x="716" y="139" type="curve" smooth="yes"/>
      <point x="733" y="156"/>
      <point x="737" y="183"/>
      <point x="725" y="213" type="curve" smooth="yes"/>
      <point x="714" y="243"/>
      <point x="691" y="268"/>
      <point x="662" y="281" type="curve" smooth="yes"/>
      <point x="633" y="295"/>
      <point x="606" y="293"/>
      <point x="587" y="277" type="curve"/>
      <point x="541" y="227"/>
      <point x="483" y="194"/>
      <point x="424" y="194" type="curve" smooth="yes"/>
      <point x="394" y="194" type="line" smooth="yes"/>
      <point x="274" y="194"/>
      <point x="212" y="318"/>
      <point x="232" y="472" type="curve" smooth="yes"/>
      <point x="239" y="528" type="line" smooth="yes"/>
      <point x="258" y="672"/>
      <point x="364" y="806"/>
      <point x="474" y="806" type="curve" smooth="yes"/>
      <point x="503" y="806" type="line" smooth="yes"/>
      <point x="568" y="806"/>
      <point x="618" y="775"/>
      <point x="649" y="724" type="curve"/>
      <point x="669" y="700"/>
      <point x="722" y="710"/>
      <point x="767" y="748" type="curve" smooth="yes"/>
      <point x="811" y="786"/>
      <point x="831" y="837"/>
      <point x="811" y="862" type="curve" smooth="yes"/>
      <point x="745" y="947"/>
      <point x="646" y="1000"/>
      <point x="528" y="1000" type="curve" smooth="yes"/>
      <point x="498" y="1000" type="line" smooth="yes"/>
      <point x="263" y="1000"/>
      <point x="46" y="788"/>
      <point x="12" y="528" type="curve" smooth="yes"/>
      <point x="4" y="472" type="line" smooth="yes"/>
      <point x="-29" y="212"/>
      <point x="133" y="0"/>
      <point x="368" y="0" type="curve" smooth="yes"/>
    </contour>
  </outline>
</glyph>
<glyph name="Latin_Capital_Letter_C" format="1">
  <advance width="820"/>
  <unicode hex="0043"/>
  <outline>
    <contour>
      <point x="398" y="0" type="line" smooth="yes"/>
      <point x="516" y="0"/>
      <point x="629" y="53"/>
      <point x="716" y="139" type="curve" smooth="yes"/>
      <point x="734" y="157"/>
      <point x="739" y="185"/>
      <point x="729" y="216" type="curve" smooth="yes"/>
      <point x="718" y="247"/>
      <point x="695" y="272"/>
      <point x="665" y="284" type="curve" smooth="yes"/>
      <point x="635" y="297"/>
      <point x="608" y="294"/>
      <point x="587" y="277" type="curve"/>
      <point x="541" y="227"/>
      <point x="483" y="194"/>
      <point x="424" y="194" type="curve" smooth="yes"/>
      <point x="394" y="194" type="line" smooth="yes"/>
      <point x="274" y="194"/>
      <point x="212" y="318"/>
      <point x="232" y="472" type="curve" smooth="yes"/>
      <point x="239" y="528" type="line" smooth="yes"/>
      <point x="258" y="672"/>
      <point x="364" y="806"/>
      <point x="474" y="806" type="curve" smooth="yes"/>
      <point x="503" y="806" type="line" smooth="yes"/>
      <point x="568" y="806"/>
      <point x="618" y="775"/>
      <point x="649" y="724" type="curve"/>
      <point x="671" y="698"/>
      <point x="725" y="707"/>
      <point x="769" y="744" type="curve" smooth="yes"/>
      <point x="814" y="782"/>
      <point x="833" y="835"/>
      <point x="811" y="862" type="curve" smooth="yes"/>
      <point x="745" y="947"/>
      <point x="646" y="1000"/>
      <point x="528" y="1000" type="curve" smooth="yes"/>
      <point x="498" y="1000" type="line" smooth="yes"/>
      <point x="263" y="1000"/>
      <point x="46" y="788"/>
      <point x="12" y="528" type="curve" smooth="yes"/>
      <point x="4" y="472" type="line" smooth="yes"/>
      <point x="-29" y="212"/>
      <point x="133" y="0"/>
      <point x="368" y="0" type="curve" smooth="yes"/>
    </contour>
  </outline>
</glyph>
<glyph name="D" format="1">
  <advance width="958"/>
  <unicode hex="0044"/>
  <outline>
    <contour>
      <point x="325" y="0" type="line" smooth="yes"/>
      <point x="559" y="0"/>
      <point x="777" y="212"/>
      <point x="811" y="472" type="curve" smooth="yes"/>
      <point x="818" y="528" type="line" smooth="yes"/>
      <point x="852" y="788"/>
      <point x="689" y="1000"/>
      <point x="455" y="1000" type="curve" smooth="yes"/>
      <point x="242" y="1000" type="line" smooth="yes"/>
      <point x="175" y="1000"/>
      <point x="117" y="969"/>
      <point x="112" y="930" type="curve" smooth="yes"/>
      <point x="0" y="70" type="line" smooth="yes"/>
      <point x="-5" y="31"/>
      <point x="45" y="0"/>
      <point x="112" y="0" type="curve" smooth="yes"/>
    </contour>
    <contour>
      <point x="306" y="806" type="line"/>
      <point x="446" y="806" type="line" smooth="yes"/>
      <point x="566" y="806"/>
      <point x="628" y="682"/>
      <point x="608" y="528" type="curve" smooth="yes"/>
      <point x="601" y="472" type="line" smooth="yes"/>
      <point x="582" y="328"/>
      <point x="476" y="194"/>
      <point x="366" y="194" type="curve" smooth="yes"/>
      <point x="226" y="194" type="line"/>
    </contour>
  </outline>
</glyph>
<glyph name="Latin_Capital_Letter_D" format="1">
  <advance width="1002"/>
  <unicode hex="0044"/>
  <outline>
    <contour>
      <point x="369" y="0" type="line" smooth="yes"/>
      <point x="604" y="0"/>
      <point x="821" y="212"/>
      <point x="855" y="472" type="curve" smooth="yes"/>
      <point x="862" y="528" type="line" smooth="yes"/>
      <point x="896" y="788"/>
      <point x="734" y="1000"/>
      <point x="499" y="1000" type="curve" smooth="yes"/>
      <point x="241" y="1000" type="line" smooth="yes"/>
      <point x="175" y="1000"/>
      <point x="116" y="966"/>
      <point x="111" y="925" type="curve" smooth="yes"/>
      <point x="0" y="75" type="line" smooth="yes"/>
      <point x="-5" y="34"/>
      <point x="45" y="0"/>
      <point x="111" y="0" type="curve" smooth="yes"/>
    </contour>
    <contour>
      <point x="305" y="806" type="line"/>
      <point x="490" y="806" type="line" smooth="yes"/>
      <point x="610" y="806"/>
      <point x="672" y="682"/>
      <point x="652" y="528" type="curve" smooth="yes"/>
      <point x="645" y="472" type="line" smooth="yes"/>
      <point x="626" y="328"/>
      <point x="521" y="194"/>
      <point x="411" y="194" type="curve" smooth="yes"/>
      <point x="226" y="194" type="line"/>
    </contour>
  </outline>
</glyph>
<glyph name="E" format="1">
  <advance width="872"/>
  <unicode hex="0045"/>
  <outline>
    <contour>
      <point x="553" y="0" type="line" smooth="yes"/>
      <point x="589" y="0"/>
      <point x="624" y="43"/>
      <point x="631" y="97" type="curve" smooth="yes"/>
      <point x="638" y="151"/>
      <point x="614" y="194"/>
      <point x="578" y="194" type="curve" smooth="yes"/>
      <point x="226" y="194" type="line"/>
      <point x="255" y="413" type="line"/>
      <point x="462" y="413" type="line" smooth="yes"/>
      <point x="498" y="413"/>
      <point x="533" y="456"/>
      <point x="540" y="510" type="curve" smooth="yes"/>
      <point x="547" y="564"/>
      <point x="524" y="607"/>
      <point x="487" y="607" type="curve" smooth="yes"/>
      <point x="280" y="607" type="line"/>
      <point x="306" y="806" type="line"/>
      <point x="657" y="806" type="line" smooth="yes"/>
      <point x="694" y="806"/>
      <point x="729" y="849"/>
      <point x="736" y="903" type="curve" smooth="yes"/>
      <point x="743" y="957"/>
      <point x="719" y="1000"/>
      <point x="683" y="1000" type="curve" smooth="yes"/>
      <point x="242" y="1000" type="line" smooth="yes"/>
      <point x="175" y="1000"/>
      <point x="117" y="969"/>
      <point x="112" y="930" type="curve" smooth="yes"/>
      <point x="0" y="70" type="line" smooth="yes"/>
      <point x="-5" y="31"/>
      <point x="45" y="0"/>
      <point x="112" y="0" type="curve" smooth="yes"/>
    </contour>
  </outline>
</glyph>
<glyph name="F" format="1">
  <advance width="901"/>
  <unicode hex="0046"/>
  <outline>
    <contour>
      <point x="210" y="60" type="curve" smooth="yes"/>
      <point x="256" y="413" type="line"/>
      <point x="469" y="413" type="line" smooth="yes"/>
      <point x="508" y="413"/>
      <point x="545" y="456"/>
      <point x="552" y="510" type="curve"/>
      <point x="552" y="510" type="line"/>
      <point x="559" y="564"/>
      <point x="533" y="607"/>
      <point x="494" y="607" type="curve" smooth="yes"/>
      <point x="281" y="607" type="line"/>
      <point x="306" y="798" type="line"/>
      <point x="680" y="798" type="line" smooth="yes"/>
      <point x="720" y="798"/>
      <point x="757" y="841"/>
      <point x="764" y="895" type="curve"/>
      <point x="764" y="895" type="line"/>
      <point x="771" y="949"/>
      <point x="745" y="992"/>
      <point x="706" y="992" type="curve" smooth="yes"/>
      <point x="243" y="1000" type="line" smooth="yes"/>
      <point x="177" y="1000"/>
      <point x="118" y="966"/>
      <point x="113" y="925" type="curve" smooth="yes"/>
      <point x="0" y="60" type="line" smooth="yes"/>
      <point x="-4" y="24"/>
      <point x="39" y="-6"/>
      <point x="97" y="-6" type="curve" smooth="yes"/>
      <point x="155" y="-6"/>
      <point x="206" y="24"/>
    </contour>
  </outline>
</glyph>
<glyph name="Latin_Capital_Letter_F" format="1">
  <advance width="761"/>
  <unicode hex="0046"/>
  <outline>
    <contour>
      <point x="210" y="60" type="curve" smooth="yes"/>
      <point x="256" y="413" type="line"/>
      <point x="469" y="413" type="line" smooth="yes"/>
      <point x="508" y="413"/>
      <point x="545" y="456"/>
      <point x="552" y="510" type="curve"/>
      <point x="552" y="510" type="line"/>
      <point x="559" y="564"/>
      <point x="533" y="607"/>
      <point x="494" y="607" type="curve" smooth="yes"/>
      <point x="281" y="607" type="line"/>
      <point x="307" y="806" type="line"/>
      <point x="676" y="806" type="line" smooth="yes"/>
      <point x="715" y="806"/>
      <point x="753" y="849"/>
      <point x="760" y="903" type="curve"/>
      <point x="760" y="903" type="line"/>
      <point x="767" y="957"/>
      <point x="741" y="1000"/>
      <point x="701" y="1000" type="curve" smooth="yes"/>
      <point x="243" y="1000" type="line" smooth="yes"/>
      <point x="177" y="1000"/>
      <point x="118" y="966"/>
      <point x="113" y="925" type="curve" smooth="yes"/>
      <point x="0" y="60" type="line" smooth="yes"/>
      <point x="-4" y="24"/>
      <point x="39" y="-6"/>
      <point x="97" y="-6" type="curve" smooth="yes"/>
      <point x="155" y="-6"/>
      <point x="206" y="24"/>
    </contour>
  </outline>
</glyph>
<glyph name="G" format="1">
  <advance width="999"/>
  <unicode hex="0047"/>
  <outline>
    <contour>
      <point x="497" y="567" type="line" smooth="yes"/>
      <point x="481" y="567"/>
      <point x="463" y="524"/>
      <point x="456" y="470" type="curve" smooth="yes"/>
      <point x="449" y="416"/>
      <point x="456" y="373"/>
      <point x="472" y="373" type="curve" smooth="yes"/>
      <point x="623" y="373" type="line"/>
      <point x="582" y="273"/>
      <point x="504" y="194"/>
      <point x="424" y="194" type="curve" smooth="yes"/>
      <point x="393" y="194" type="line" smooth="yes"/>
      <point x="268" y="194"/>
      <point x="201" y="318"/>
      <point x="221" y="472" type="curve" smooth="yes"/>
      <point x="229" y="528" type="line" smooth="yes"/>
      <point x="247" y="672"/>
      <point x="358" y="806"/>
      <point x="473" y="806" type="curve" smooth="yes"/>
      <point x="503" y="806" type="line" smooth="yes"/>
      <point x="568" y="806"/>
      <point x="618" y="775"/>
      <point x="649" y="724" type="curve"/>
      <point x="657" y="714"/>
      <point x="701" y="736"/>
      <point x="746" y="774" type="curve" smooth="yes"/>
      <point x="790" y="811"/>
      <point x="819" y="851"/>
      <point x="811" y="862" type="curve" smooth="yes"/>
      <point x="745" y="947"/>
      <point x="646" y="1000"/>
      <point x="528" y="1000" type="curve" smooth="yes"/>
      <point x="498" y="1000" type="line" smooth="yes"/>
      <point x="263" y="1000"/>
      <point x="46" y="788"/>
      <point x="12" y="528" type="curve" smooth="yes"/>
      <point x="4" y="472" type="line" smooth="yes"/>
      <point x="-29" y="212"/>
      <point x="133" y="0"/>
      <point x="368" y="0" type="curve" smooth="yes"/>
      <point x="398" y="0" type="line" smooth="yes"/>
      <point x="619" y="0"/>
      <point x="825" y="210"/>
      <point x="860" y="470" type="curve" smooth="yes"/>
      <point x="868" y="524"/>
      <point x="861" y="567"/>
      <point x="845" y="567" type="curve" smooth="yes"/>
    </contour>
  </outline>
</glyph>
<glyph name="Latin_Capital_Letter_G" format="1">
  <advance width="889"/>
  <unicode hex="0047"/>
  <outline>
    <contour>
      <point x="549" y="567" type="line" smooth="yes"/>
      <point x="510" y="567"/>
      <point x="472" y="524"/>
      <point x="465" y="470" type="curve" smooth="yes"/>
      <point x="458" y="416"/>
      <point x="484" y="373"/>
      <point x="524" y="373" type="curve" smooth="yes"/>
      <point x="647" y="373" type="line"/>
      <point x="602" y="272"/>
      <point x="515" y="194"/>
      <point x="424" y="194" type="curve" smooth="yes"/>
      <point x="394" y="194" type="line" smooth="yes"/>
      <point x="274" y="194"/>
      <point x="212" y="318"/>
      <point x="232" y="472" type="curve" smooth="yes"/>
      <point x="239" y="528" type="line" smooth="yes"/>
      <point x="258" y="672"/>
      <point x="364" y="806"/>
      <point x="474" y="806" type="curve" smooth="yes"/>
      <point x="503" y="806" type="line" smooth="yes"/>
      <point x="568" y="806"/>
      <point x="618" y="775"/>
      <point x="649" y="724" type="curve"/>
      <point x="671" y="698"/>
      <point x="725" y="707"/>
      <point x="769" y="744" type="curve" smooth="yes"/>
      <point x="814" y="782"/>
      <point x="833" y="835"/>
      <point x="811" y="862" type="curve" smooth="yes"/>
      <point x="745" y="947"/>
      <point x="646" y="1000"/>
      <point x="528" y="1000" type="curve" smooth="yes"/>
      <point x="498" y="1000" type="line" smooth="yes"/>
      <point x="263" y="1000"/>
      <point x="46" y="788"/>
      <point x="12" y="528" type="curve" smooth="yes"/>
      <point x="4" y="472" type="line" smooth="yes"/>
      <point x="-29" y="212"/>
      <point x="133" y="0"/>
      <point x="368" y="0" type="curve" smooth="yes"/>
      <point x="398" y="0" type="line" smooth="yes"/>
      <point x="633" y="0"/>
      <point x="850" y="210"/>
      <point x="887" y="470" type="curve" smooth="yes"/>
      <point x="896" y="524"/>
      <point x="870" y="567"/>
      <point x="831" y="567" type="curve" smooth="yes"/>
    </contour>
  </outline>
</glyph>
<glyph name="H" format="1">
  <advance width="998"/>
  <unicode hex="0048"/>
  <outline>
    <contour>
      <point x="257" y="413" type="line"/>
      <point x="584" y="413" type="line"/>
      <point x="537" y="55" type="line" smooth="yes"/>
      <point x="533" y="21"/>
      <point x="576" y="-6"/>
      <point x="634" y="-6" type="curve" smooth="yes"/>
      <point x="692" y="-6"/>
      <point x="743" y="21"/>
      <point x="747" y="55" type="curve" smooth="yes"/>
      <point x="863" y="945" type="line" smooth="yes"/>
      <point x="867" y="979"/>
      <point x="824" y="1006"/>
      <point x="766" y="1006" type="curve" smooth="yes"/>
      <point x="708" y="1006"/>
      <point x="657" y="979"/>
      <point x="653" y="945" type="curve" smooth="yes"/>
      <point x="609" y="607" type="line"/>
      <point x="282" y="607" type="line"/>
      <point x="326" y="945" type="line" smooth="yes"/>
      <point x="330" y="979"/>
      <point x="287" y="1006"/>
      <point x="229" y="1006" type="curve" smooth="yes"/>
      <point x="171" y="1006"/>
      <point x="120" y="979"/>
      <point x="116" y="945" type="curve" smooth="yes"/>
      <point x="0" y="55" type="line" smooth="yes"/>
      <point x="-4" y="21"/>
      <point x="39" y="-6"/>
      <point x="97" y="-6" type="curve" smooth="yes"/>
      <point x="155" y="-6"/>
      <point x="206" y="21"/>
      <point x="210" y="55" type="curve" smooth="yes"/>
    </contour>
  </outline>
</glyph>
<glyph name="Latin_Capital_Letter_H" format="1">
  <advance width="927"/>
  <unicode hex="0048"/>
  <outline>
    <contour>
      <point x="256" y="413" type="line"/>
      <point x="648" y="413" type="line"/>
      <point x="603" y="60" type="line" smooth="yes"/>
      <point x="598" y="24"/>
      <point x="641" y="-6"/>
      <point x="699" y="-6" type="curve" smooth="yes"/>
      <point x="757" y="-6"/>
      <point x="808" y="24"/>
      <point x="813" y="60" type="curve" smooth="yes"/>
      <point x="927" y="940" type="line" smooth="yes"/>
      <point x="932" y="976"/>
      <point x="889" y="1006"/>
      <point x="831" y="1006" type="curve" smooth="yes"/>
      <point x="773" y="1006"/>
      <point x="722" y="976"/>
      <point x="717" y="940" type="curve" smooth="yes"/>
      <point x="674" y="607" type="line"/>
      <point x="281" y="607" type="line"/>
      <point x="325" y="940" type="line" smooth="yes"/>
      <point x="329" y="976"/>
      <point x="286" y="1006"/>
      <point x="228" y="1006" type="curve" smooth="yes"/>
      <point x="170" y="1006"/>
      <point x="119" y="976"/>
      <point x="115" y="940" type="curve" smooth="yes"/>
      <point x="0" y="60" type="line" smooth="yes"/>
      <point x="-4" y="24"/>
      <point x="39" y="-6"/>
      <point x="97" y="-6" type="curve" smooth="yes"/>
      <point x="155" y="-6"/>
      <point x="206" y="24"/>
      <point x="210" y="60" type="curve" smooth="yes"/>
    </contour>
  </outline>
</glyph>
<glyph name="I" format="1">
  <advance width="470"/>
  <unicode hex="0049"/>
  <outline>
    <contour>
      <point x="335" y="980" type="line" smooth="yes"/>
      <point x="337" y="994"/>
      <point x="291" y="1006"/>
      <point x="233" y="1006" type="curve" smooth="yes"/>
      <point x="175" y="1006"/>
      <point x="127" y="994"/>
      <point x="125" y="980" type="curve" smooth="yes"/>
      <point x="0" y="20" type="line" smooth="yes"/>
      <point x="-2" y="6"/>
      <point x="44" y="-6"/>
      <point x="102" y="-6" type="curve" smooth="yes"/>
      <point x="160" y="-6"/>
      <point x="208" y="6"/>
      <point x="210" y="20" type="curve" smooth="yes"/>
    </contour>
  </outline>
</glyph>
<glyph name="Latin_Capital_Letter_I" format="1">
  <advance width="325"/>
  <unicode hex="0049"/>
  <outline>
    <contour>
      <point x="325" y="940" type="line" smooth="yes"/>
      <point x="329" y="976"/>
      <point x="286" y="1006"/>
      <point x="228" y="1006" type="curve" smooth="yes"/>
      <point x="170" y="1006"/>
      <point x="119" y="976"/>
      <point x="115" y="940" type="curve" smooth="yes"/>
      <point x="0" y="60" type="line" smooth="yes"/>
      <point x="-4" y="24"/>
      <point x="39" y="-6"/>
      <point x="97" y="-6" type="curve" smooth="yes"/>
      <point x="155" y="-6"/>
      <point x="206" y="24"/>
      <point x="210" y="60" type="curve" smooth="yes"/>
    </contour>
  </outline>
</glyph>
<glyph name="J" format="1">
  <advance width="704"/>
  <unicode hex="004A"/>
  <outline>
    <contour>
      <point x="253" y="172" type="line"/>
      <point x="254" y="179"/>
      <point x="244" y="184"/>
      <point x="227" y="187" type="curve" smooth="yes"/>
      <point x="209" y="190"/>
      <point x="190" y="188"/>
      <point x="176" y="184" type="curve"/>
      <point x="153" y="212"/>
      <point x="98" y="204"/>
      <point x="52" y="166" type="curve" smooth="yes"/>
      <point x="6" y="128"/>
      <point x="-13" y="75"/>
      <point x="10" y="46" type="curve"/>
      <point x="78" y="-6"/>
      <point x="182" y="-20"/>
      <point x="284" y="8" type="curve" smooth="yes"/>
      <point x="386" y="36"/>
      <point x="454" y="98"/>
      <point x="463" y="172" type="curve" smooth="yes"/>
      <point x="568" y="980" type="line" smooth="yes"/>
      <point x="570" y="994"/>
      <point x="525" y="1006"/>
      <point x="467" y="1006" type="curve" smooth="yes"/>
      <point x="409" y="1006"/>
      <point x="360" y="994"/>
      <point x="358" y="980" type="curve" smooth="yes"/>
    </contour>
  </outline>
</glyph>
<glyph name="K" format="1">
  <advance width="920"/>
  <unicode hex="004B"/>
  <outline>
    <contour>
      <point x="254" y="358" type="line"/>
      <point x="276" y="382" type="line"/>
      <point x="460" y="10" type="line"/>
      <point x="459" y="-5"/>
      <point x="505" y="-8"/>
      <point x="562" y="3" type="curve" smooth="yes"/>
      <point x="620" y="13"/>
      <point x="667" y="34"/>
      <point x="668" y="48" type="curve"/>
      <point x="416" y="538" type="line"/>
      <point x="784" y="948" type="line"/>
      <point x="787" y="963"/>
      <point x="746" y="985"/>
      <point x="691" y="997" type="curve" smooth="yes"/>
      <point x="637" y="1009"/>
      <point x="591" y="1006"/>
      <point x="588" y="992" type="curve"/>
      <point x="292" y="648" type="line"/>
      <point x="335" y="980" type="line" smooth="yes"/>
      <point x="337" y="994"/>
      <point x="291" y="1006"/>
      <point x="233" y="1006" type="curve" smooth="yes"/>
      <point x="175" y="1006"/>
      <point x="127" y="994"/>
      <point x="125" y="980" type="curve" smooth="yes"/>
      <point x="0" y="20" type="line" smooth="yes"/>
      <point x="-2" y="6"/>
      <point x="44" y="-6"/>
      <point x="102" y="-6" type="curve" smooth="yes"/>
      <point x="160" y="-6"/>
      <point x="208" y="6"/>
      <point x="210" y="20" type="curve" smooth="yes"/>
    </contour>
  </outline>
</glyph>
<glyph name="Latin_Capital_Letter_K" format="1">
  <advance width="918"/>
  <unicode hex="004B"/>
  <outline>
    <contour>
      <point x="236" y="257" type="line"/>
      <point x="310" y="348" type="line"/>
      <point x="462" y="36" type="line" smooth="yes"/>
      <point x="479" y="2"/>
      <point x="537" y="-14"/>
      <point x="593" y="-1" type="curve" smooth="yes"/>
      <point x="649" y="12"/>
      <point x="681" y="50"/>
      <point x="664" y="83" type="curve" smooth="yes"/>
      <point x="451" y="521" type="line"/>
      <point x="771" y="914" type="line" smooth="yes"/>
      <point x="798" y="948"/>
      <point x="778" y="986"/>
      <point x="727" y="1001" type="curve" smooth="yes"/>
      <point x="675" y="1015"/>
      <point x="612" y="999"/>
      <point x="584" y="966" type="curve" smooth="yes"/>
      <point x="279" y="591" type="line"/>
      <point x="325" y="940" type="line" smooth="yes"/>
      <point x="329" y="976"/>
      <point x="286" y="1006"/>
      <point x="228" y="1006" type="curve" smooth="yes"/>
      <point x="170" y="1006"/>
      <point x="119" y="976"/>
      <point x="115" y="940" type="curve" smooth="yes"/>
      <point x="0" y="60" type="line" smooth="yes"/>
      <point x="-4" y="24"/>
      <point x="39" y="-6"/>
      <point x="97" y="-6" type="curve" smooth="yes"/>
      <point x="155" y="-6"/>
      <point x="206" y="24"/>
      <point x="210" y="60" type="curve" smooth="yes"/>
    </contour>
  </outline>
</glyph>
<glyph name="L" format="1">
  <advance width="779"/>
  <unicode hex="004C"/>
  <outline>
    <contour>
      <point x="599" y="0" type="line" smooth="yes"/>
      <point x="615" y="0"/>
      <point x="634" y="43"/>
      <point x="640" y="97" type="curve" smooth="yes"/>
      <point x="647" y="151"/>
      <point x="640" y="194"/>
      <point x="625" y="194" type="curve" smooth="yes"/>
      <point x="231" y="194" type="line"/>
      <point x="333" y="980" type="line" smooth="yes"/>
      <point x="335" y="994"/>
      <point x="290" y="1006"/>
      <point x="232" y="1006" type="curve" smooth="yes"/>
      <point x="174" y="1006"/>
      <point x="125" y="994"/>
      <point x="123" y="980" type="curve" smooth="yes"/>
      <point x="0" y="30" type="line" smooth="yes"/>
      <point x="-2" y="14"/>
      <point x="50" y="0"/>
      <point x="117" y="0" type="curve" smooth="yes"/>
    </contour>
  </outline>
</glyph>
<glyph name="Latin_Capital_Letter_M" format="1">
  <advance width="1129"/>
  <unicode hex="004D"/>
  <outline>
    <contour>
      <point x="445" y="57" type="line" smooth="yes"/>
      <point x="451" y="21"/>
      <point x="495" y="-5"/>
      <point x="553" y="-6" type="curve" smooth="yes"/>
      <point x="612" y="-7"/>
      <point x="664" y="18"/>
      <point x="682" y="53" type="curve"/>
      <point x="890" y="572" type="line"/>
      <point x="918" y="52" type="line" smooth="yes"/>
      <point x="920" y="28"/>
      <point x="940" y="9"/>
      <point x="975" y="-1" type="curve" smooth="yes"/>
      <point x="1009" y="-10"/>
      <point x="1047" y="-7"/>
      <point x="1080" y="7" type="curve" smooth="yes"/>
      <point x="1113" y="22"/>
      <point x="1130" y="44"/>
      <point x="1129" y="68" type="curve" smooth="yes"/>
      <point x="1072" y="939" type="line" smooth="yes"/>
      <point x="1070" y="976"/>
      <point x="1026" y="1004"/>
      <point x="967" y="1006" type="curve" smooth="yes"/>
      <point x="908" y="1008"/>
      <point x="853" y="983"/>
      <point x="836" y="947" type="curve"/>
      <point x="598" y="347" type="line"/>
      <point x="525" y="943" type="line" smooth="yes"/>
      <point x="519" y="981"/>
      <point x="471" y="1007"/>
      <point x="411" y="1006" type="curve" smooth="yes"/>
      <point x="350" y="1005"/>
      <point x="298" y="977"/>
      <point x="286" y="939" type="curve" smooth="yes"/>
      <point x="2" y="68" type="line" smooth="yes"/>
      <point x="-5" y="44"/>
      <point x="7" y="22"/>
      <point x="36" y="7" type="curve" smooth="yes"/>
      <point x="65" y="-7"/>
      <point x="102" y="-10"/>
      <point x="139" y="-1" type="curve" smooth="yes"/>
      <point x="176" y="9"/>
      <point x="201" y="28"/>
      <point x="209" y="52" type="curve" smooth="yes"/>
      <point x="375" y="581" type="line"/>
    </contour>
  </outline>
</glyph>
<glyph name="M" format="1">
  <advance width="1198"/>
  <unicode hex="004D"/>
  <outline>
    <contour>
      <point x="405" y="445" type="line" smooth="yes"/>
      <point x="413" y="430"/>
      <point x="462" y="420"/>
      <point x="521" y="420" type="curve" smooth="yes"/>
      <point x="581" y="420"/>
      <point x="632" y="430"/>
      <point x="644" y="445" type="curve" smooth="yes"/>
      <point x="813" y="671" type="line"/>
      <point x="729" y="20" type="line" smooth="yes"/>
      <point x="727" y="6"/>
      <point x="772" y="-6"/>
      <point x="830" y="-6" type="curve" smooth="yes"/>
      <point x="888" y="-6"/>
      <point x="937" y="6"/>
      <point x="939" y="20" type="curve" smooth="yes"/>
      <point x="1063" y="976" type="line" smooth="yes"/>
      <point x="1065" y="991"/>
      <point x="1019" y="1004"/>
      <point x="956" y="1006" type="curve" smooth="yes"/>
      <point x="893" y="1007"/>
      <point x="836" y="996"/>
      <point x="824" y="981" type="curve" smooth="yes"/>
      <point x="545" y="605" type="line"/>
      <point x="365" y="981" type="line"/>
      <point x="356" y="996"/>
      <point x="302" y="1007"/>
      <point x="239" y="1006" type="curve" smooth="yes"/>
      <point x="176" y="1004"/>
      <point x="126" y="991"/>
      <point x="124" y="976" type="curve" smooth="yes"/>
      <point x="0" y="20" type="line" smooth="yes"/>
      <point x="-2" y="6"/>
      <point x="44" y="-6"/>
      <point x="102" y="-6" type="curve" smooth="yes"/>
      <point x="160" y="-6"/>
      <point x="208" y="6"/>
      <point x="210" y="20" type="curve" smooth="yes"/>
      <point x="295" y="671" type="line"/>
    </contour>
  </outline>
</glyph>
<glyph name="Latin_Capital_Letter_N" format="1">
  <advance width="1018"/>
  <unicode hex="004E"/>
  <outline>
    <contour>
      <point x="277" y="573" type="line"/>
      <point x="532" y="43" type="line" smooth="yes"/>
      <point x="548" y="8"/>
      <point x="601" y="-11"/>
      <point x="660" y="-5" type="curve" smooth="yes"/>
      <point x="719" y="2"/>
      <point x="764" y="33"/>
      <point x="769" y="70" type="curve" smooth="yes"/>
      <point x="882" y="940" type="line" smooth="yes"/>
      <point x="887" y="976"/>
      <point x="843" y="1006"/>
      <point x="785" y="1006" type="curve" smooth="yes"/>
      <point x="727" y="1006"/>
      <point x="677" y="976"/>
      <point x="672" y="940" type="curve" smooth="yes"/>
      <point x="605" y="427" type="line"/>
      <point x="351" y="957" type="line" smooth="yes"/>
      <point x="334" y="992"/>
      <point x="281" y="1011"/>
      <point x="222" y="1005" type="curve" smooth="yes"/>
      <point x="163" y="998"/>
      <point x="118" y="967"/>
      <point x="114" y="930" type="curve" smooth="yes"/>
      <point x="0" y="60" type="line" smooth="yes"/>
      <point x="-4" y="24"/>
      <point x="39" y="-6"/>
      <point x="97" y="-6" type="curve" smooth="yes"/>
      <point x="155" y="-6"/>
      <point x="206" y="24"/>
      <point x="210" y="60" type="curve" smooth="yes"/>
    </contour>
  </outline>
</glyph>
<glyph name="N" format="1">
  <advance width="1019"/>
  <unicode hex="004E"/>
  <outline>
    <contour>
      <point x="278" y="576" type="line"/>
      <point x="531" y="41" type="line" smooth="yes"/>
      <point x="546" y="8"/>
      <point x="600" y="-11"/>
      <point x="659" y="-5" type="curve" smooth="yes"/>
      <point x="719" y="1"/>
      <point x="764" y="30"/>
      <point x="769" y="64" type="curve" smooth="yes"/>
      <point x="883" y="945" type="line" smooth="yes"/>
      <point x="887" y="979"/>
      <point x="844" y="1006"/>
      <point x="786" y="1006" type="curve" smooth="yes"/>
      <point x="728" y="1006"/>
      <point x="677" y="979"/>
      <point x="673" y="945" type="curve" smooth="yes"/>
      <point x="605" y="424" type="line"/>
      <point x="352" y="959" type="line" smooth="yes"/>
      <point x="337" y="992"/>
      <point x="284" y="1011"/>
      <point x="224" y="1005" type="curve" smooth="yes"/>
      <point x="165" y="999"/>
      <point x="119" y="970"/>
      <point x="115" y="936" type="curve" smooth="yes"/>
      <point x="0" y="55" type="line" smooth="yes"/>
      <point x="-4" y="21"/>
      <point x="39" y="-6"/>
      <point x="97" y="-6" type="curve" smooth="yes"/>
      <point x="155" y="-6"/>
      <point x="206" y="21"/>
      <point x="210" y="55" type="curve" smooth="yes"/>
    </contour>
  </outline>
</glyph>
<glyph name="Latin_Capital_Letter_P" format="1">
  <advance width="747"/>
  <unicode hex="0050"/>
  <outline>
    <contour>
      <point x="210" y="60" type="curve" smooth="yes"/>
      <point x="248" y="353" type="line"/>
      <point x="353" y="353" type="line" smooth="yes"/>
      <point x="546" y="353"/>
      <point x="720" y="495"/>
      <point x="743" y="670" type="curve" smooth="yes"/>
      <point x="745" y="683" type="line" smooth="yes"/>
      <point x="767" y="858"/>
      <point x="630" y="1000"/>
      <point x="437" y="1000" type="curve" smooth="yes"/>
      <point x="243" y="1000" type="line" smooth="yes"/>
      <point x="177" y="1000"/>
      <point x="118" y="966"/>
      <point x="113" y="925" type="curve" smooth="yes"/>
      <point x="0" y="60" type="line" smooth="yes"/>
      <point x="-4" y="24"/>
      <point x="39" y="-6"/>
      <point x="97" y="-6" type="curve" smooth="yes"/>
      <point x="155" y="-6"/>
      <point x="206" y="24"/>
    </contour>
    <contour>
      <point x="307" y="806" type="line"/>
      <point x="412" y="806" type="line" smooth="yes"/>
      <point x="482" y="806"/>
      <point x="533" y="751"/>
      <point x="524" y="683" type="curve"/>
      <point x="523" y="670" type="line"/>
      <point x="514" y="601"/>
      <point x="449" y="547"/>
      <point x="378" y="547" type="curve" smooth="yes"/>
      <point x="274" y="547" type="line"/>
    </contour>
  </outline>
</glyph>
<glyph name="P" format="1">
  <advance width="874"/>
  <unicode hex="0050"/>
  <outline>
    <contour>
      <point x="210" y="55" type="curve" smooth="yes"/>
      <point x="249" y="353" type="line"/>
      <point x="344" y="353" type="line" smooth="yes"/>
      <point x="537" y="353"/>
      <point x="712" y="495"/>
      <point x="735" y="670" type="curve"/>
      <point x="736" y="683" type="line"/>
      <point x="759" y="858"/>
      <point x="621" y="1000"/>
      <point x="429" y="1000" type="curve" smooth="yes"/>
      <point x="244" y="1000" type="line" smooth="yes"/>
      <point x="177" y="1000"/>
      <point x="119" y="969"/>
      <point x="114" y="930" type="curve" smooth="yes"/>
      <point x="0" y="55" type="line" smooth="yes"/>
      <point x="-4" y="21"/>
      <point x="39" y="-6"/>
      <point x="97" y="-6" type="curve" smooth="yes"/>
      <point x="155" y="-6"/>
      <point x="206" y="21"/>
    </contour>
    <contour>
      <point x="308" y="806" type="line"/>
      <point x="403" y="806" type="line" smooth="yes"/>
      <point x="473" y="806"/>
      <point x="525" y="751"/>
      <point x="516" y="683" type="curve" smooth="yes"/>
      <point x="514" y="670" type="line" smooth="yes"/>
      <point x="505" y="601"/>
      <point x="441" y="547"/>
      <point x="370" y="547" type="curve" smooth="yes"/>
      <point x="274" y="547" type="line"/>
    </contour>
  </outline>
</glyph>
<glyph name="Q" format="1">
  <advance width="1031"/>
  <unicode hex="0051"/>
  <outline>
    <contour>
      <point x="231" y="472" type="curve" smooth="yes"/>
      <point x="238" y="528" type="line" smooth="yes"/>
      <point x="256" y="672"/>
      <point x="362" y="806"/>
      <point x="472" y="806" type="curve" smooth="yes"/>
      <point x="503" y="806" type="line" smooth="yes"/>
      <point x="623" y="806"/>
      <point x="685" y="682"/>
      <point x="665" y="528" type="curve" smooth="yes"/>
      <point x="658" y="472" type="line" smooth="yes"/>
      <point x="640" y="328"/>
      <point x="534" y="194"/>
      <point x="424" y="194" type="curve" smooth="yes"/>
      <point x="393" y="194" type="line" smooth="yes"/>
      <point x="273" y="194"/>
      <point x="211" y="318"/>
    </contour>
    <contour>
      <point x="4" y="472" type="line" smooth="yes"/>
      <point x="-29" y="212"/>
      <point x="133" y="0"/>
      <point x="368" y="0" type="curve" smooth="yes"/>
      <point x="388" y="0" type="line"/>
      <point x="598" y="-211" type="line" smooth="yes"/>
      <point x="614" y="-227"/>
      <point x="642" y="-228"/>
      <point x="674" y="-212" type="curve"/>
      <point x="674" y="-212" type="line"/>
      <point x="706" y="-197"/>
      <point x="734" y="-170"/>
      <point x="750" y="-138" type="curve"/>
      <point x="750" y="-138" type="line"/>
      <point x="765" y="-106"/>
      <point x="765" y="-79"/>
      <point x="749" y="-62" type="curve"/>
      <point x="598" y="52" type="line"/>
      <point x="746" y="130"/>
      <point x="861" y="289"/>
      <point x="884" y="472" type="curve" smooth="yes"/>
      <point x="892" y="528" type="line" smooth="yes"/>
      <point x="925" y="788"/>
      <point x="763" y="1000"/>
      <point x="528" y="1000" type="curve" smooth="yes"/>
      <point x="498" y="1000" type="line" smooth="yes"/>
      <point x="263" y="1000"/>
      <point x="46" y="788"/>
      <point x="12" y="528" type="curve" smooth="yes"/>
    </contour>
  </outline>
</glyph>
<glyph name="R" format="1">
  <advance width="874"/>
  <unicode hex="0052"/>
  <outline>
    <contour>
      <point x="249" y="353" type="line"/>
      <point x="342" y="353" type="line"/>
      <point x="446" y="39" type="line" smooth="yes"/>
      <point x="457" y="7"/>
      <point x="512" y="-12"/>
      <point x="569" y="-4" type="curve" smooth="yes"/>
      <point x="626" y="5"/>
      <point x="664" y="38"/>
      <point x="653" y="71" type="curve" smooth="yes"/>
      <point x="542" y="404" type="line"/>
      <point x="644" y="461"/>
      <point x="720" y="559"/>
      <point x="735" y="670" type="curve"/>
      <point x="736" y="683" type="line"/>
      <point x="759" y="858"/>
      <point x="621" y="1000"/>
      <point x="429" y="1000" type="curve" smooth="yes"/>
      <point x="244" y="1000" type="line" smooth="yes"/>
      <point x="177" y="1000"/>
      <point x="119" y="969"/>
      <point x="114" y="930" type="curve" smooth="yes"/>
      <point x="0" y="55" type="line" smooth="yes"/>
      <point x="-4" y="21"/>
      <point x="39" y="-6"/>
      <point x="97" y="-6" type="curve" smooth="yes"/>
      <point x="155" y="-6"/>
      <point x="206" y="21"/>
      <point x="210" y="55" type="curve" smooth="yes"/>
    </contour>
    <contour>
      <point x="308" y="806" type="line"/>
      <point x="403" y="806" type="line" smooth="yes"/>
      <point x="473" y="806"/>
      <point x="525" y="751"/>
      <point x="516" y="683" type="curve" smooth="yes"/>
      <point x="514" y="670" type="line" smooth="yes"/>
      <point x="505" y="601"/>
      <point x="441" y="547"/>
      <point x="370" y="547" type="curve" smooth="yes"/>
      <point x="274" y="547" type="line"/>
    </contour>
  </outline>
</glyph>
<glyph name="S" format="1">
  <advance width="826"/>
  <unicode hex="0053"/>
  <outline>
    <contour>
      <point x="688" y="318" type="curve" smooth="yes"/>
      <point x="711" y="497"/>
      <point x="579" y="583"/>
      <point x="416" y="638" type="curve" smooth="yes"/>
      <point x="377" y="653"/>
      <point x="302" y="680"/>
      <point x="307" y="727" type="curve" smooth="yes"/>
      <point x="312" y="774"/>
      <point x="357" y="812"/>
      <point x="406" y="812" type="curve" smooth="yes"/>
      <point x="447" y="812"/>
      <point x="480" y="803"/>
      <point x="507" y="787" type="curve"/>
      <point x="528" y="763"/>
      <point x="581" y="773"/>
      <point x="626" y="810" type="curve" smooth="yes"/>
      <point x="672" y="847"/>
      <point x="692" y="898"/>
      <point x="673" y="924" type="curve"/>
      <point x="611" y="979"/>
      <point x="530" y="1006"/>
      <point x="431" y="1006" type="curve" smooth="yes"/>
      <point x="262" y="1006"/>
      <point x="108" y="881"/>
      <point x="88" y="727" type="curve" smooth="yes"/>
      <point x="68" y="573"/>
      <point x="191" y="500"/>
      <point x="332" y="453" type="curve" smooth="yes"/>
      <point x="392" y="431"/>
      <point x="475" y="390"/>
      <point x="466" y="318" type="curve" smooth="yes"/>
      <point x="457" y="247"/>
      <point x="387" y="188"/>
      <point x="310" y="188" type="curve" smooth="yes"/>
      <point x="255" y="188"/>
      <point x="209" y="201"/>
      <point x="172" y="226" type="curve"/>
      <point x="152" y="251"/>
      <point x="99" y="241"/>
      <point x="54" y="203" type="curve" smooth="yes"/>
      <point x="8" y="166"/>
      <point x="-12" y="115"/>
      <point x="7" y="90" type="curve"/>
      <point x="79" y="26"/>
      <point x="171" y="-6"/>
      <point x="285" y="-6" type="curve" smooth="yes"/>
      <point x="484" y="-6"/>
      <point x="665" y="139"/>
    </contour>
  </outline>
</glyph>
<glyph name="Latin_Capital_Letter_T" format="1">
  <advance width="950"/>
  <unicode hex="0054"/>
  <outline>
    <contour>
      <point x="500" y="806" type="line"/>
      <point x="730" y="806" type="line" smooth="yes"/>
      <point x="769" y="806"/>
      <point x="806" y="849"/>
      <point x="813" y="903" type="curve"/>
      <point x="813" y="903" type="line"/>
      <point x="820" y="957"/>
      <point x="794" y="1000"/>
      <point x="755" y="1000" type="curve" smooth="yes"/>
      <point x="85" y="1000" type="line" smooth="yes"/>
      <point x="45" y="1000"/>
      <point x="8" y="957"/>
      <point x="1" y="903" type="curve"/>
      <point x="1" y="903" type="line"/>
      <point x="-6" y="849"/>
      <point x="20" y="806"/>
      <point x="59" y="806" type="curve" smooth="yes"/>
      <point x="290" y="806" type="line"/>
      <point x="193" y="60" type="line" smooth="yes"/>
      <point x="188" y="24"/>
      <point x="231" y="-6"/>
      <point x="289" y="-6" type="curve" smooth="yes"/>
      <point x="347" y="-6"/>
      <point x="398" y="24"/>
      <point x="403" y="60" type="curve" smooth="yes"/>
    </contour>
  </outline>
</glyph>
<glyph name="T" format="1">
  <advance width="944"/>
  <unicode hex="0054"/>
  <outline>
    <contour>
      <point x="497" y="806" type="line"/>
      <point x="765" y="806" type="line" smooth="yes"/>
      <point x="781" y="806"/>
      <point x="799" y="849"/>
      <point x="806" y="903" type="curve" smooth="yes"/>
      <point x="813" y="957"/>
      <point x="806" y="1000"/>
      <point x="790" y="1000" type="curve" smooth="yes"/>
      <point x="44" y="1000" type="line" smooth="yes"/>
      <point x="28" y="1000"/>
      <point x="10" y="957"/>
      <point x="3" y="903" type="curve" smooth="yes"/>
      <point x="-4" y="849"/>
      <point x="3" y="806"/>
      <point x="18" y="806" type="curve" smooth="yes"/>
      <point x="287" y="806" type="line"/>
      <point x="185" y="20" type="line" smooth="yes"/>
      <point x="183" y="6"/>
      <point x="228" y="-6"/>
      <point x="286" y="-6" type="curve" smooth="yes"/>
      <point x="344" y="-6"/>
      <point x="393" y="6"/>
      <point x="395" y="20" type="curve" smooth="yes"/>
    </contour>
  </outline>
</glyph>
<glyph name="U" format="1">
  <advance width="981"/>
  <unicode hex="0055"/>
  <outline>
    <contour>
      <point x="344" y="0" type="line" smooth="yes"/>
      <point x="551" y="0"/>
      <point x="745" y="212"/>
      <point x="779" y="472" type="curve" smooth="yes"/>
      <point x="845" y="980" type="line" smooth="yes"/>
      <point x="847" y="994"/>
      <point x="802" y="1006"/>
      <point x="744" y="1006" type="curve" smooth="yes"/>
      <point x="686" y="1006"/>
      <point x="637" y="994"/>
      <point x="635" y="980" type="curve" smooth="yes"/>
      <point x="569" y="472" type="line" smooth="yes"/>
      <point x="551" y="333"/>
      <point x="461" y="194"/>
      <point x="370" y="194" type="curve" smooth="yes"/>
      <point x="342" y="194" type="line" smooth="yes"/>
      <point x="232" y="194"/>
      <point x="195" y="318"/>
      <point x="215" y="472" type="curve" smooth="yes"/>
      <point x="281" y="980" type="line" smooth="yes"/>
      <point x="283" y="994"/>
      <point x="237" y="1006"/>
      <point x="179" y="1006" type="curve" smooth="yes"/>
      <point x="121" y="1006"/>
      <point x="73" y="994"/>
      <point x="71" y="980" type="curve" smooth="yes"/>
      <point x="5" y="472" type="line" smooth="yes"/>
      <point x="-29" y="212"/>
      <point x="111" y="0"/>
      <point x="317" y="0" type="curve" smooth="yes"/>
    </contour>
  </outline>
</glyph>
<glyph name="V" format="1">
  <advance width="976"/>
  <unicode hex="0056"/>
  <outline>
    <contour>
      <point x="179" y="19" type="line"/>
      <point x="187" y="5"/>
      <point x="235" y="-6"/>
      <point x="295" y="-6" type="curve" smooth="yes"/>
      <point x="354" y="-6"/>
      <point x="406" y="5"/>
      <point x="417" y="19" type="curve"/>
      <point x="840" y="960" type="line" smooth="yes"/>
      <point x="844" y="969"/>
      <point x="830" y="980"/>
      <point x="799" y="988" type="curve" smooth="yes"/>
      <point x="769" y="997"/>
      <point x="732" y="1002"/>
      <point x="698" y="1001" type="curve" smooth="yes"/>
      <point x="664" y="1001"/>
      <point x="642" y="995"/>
      <point x="637" y="986" type="curve"/>
      <point x="337" y="318" type="line"/>
      <point x="210" y="986" type="line" smooth="yes"/>
      <point x="207" y="1000"/>
      <point x="158" y="1005"/>
      <point x="100" y="998" type="curve" smooth="yes"/>
      <point x="42" y="991"/>
      <point x="-3" y="974"/>
      <point x="0" y="960" type="curve" smooth="yes"/>
    </contour>
  </outline>
</glyph>
<glyph name="Latin_Capital_Letter_W" format="1">
  <advance width="1490"/>
  <unicode hex="0057"/>
  <outline>
    <contour>
      <point x="150" y="56" type="line" smooth="yes"/>
      <point x="157" y="20"/>
      <point x="202" y="-6"/>
      <point x="261" y="-6" type="curve" smooth="yes"/>
      <point x="320" y="-6"/>
      <point x="372" y="20"/>
      <point x="388" y="56" type="curve" smooth="yes"/>
      <point x="642" y="669" type="line"/>
      <point x="737" y="56" type="line" smooth="yes"/>
      <point x="743" y="20"/>
      <point x="789" y="-6"/>
      <point x="847" y="-6" type="curve" smooth="yes"/>
      <point x="906" y="-6"/>
      <point x="959" y="20"/>
      <point x="974" y="56" type="curve" smooth="yes"/>
      <point x="1351" y="928" type="line" smooth="yes"/>
      <point x="1366" y="964"/>
      <point x="1333" y="998"/>
      <point x="1277" y="1005" type="curve" smooth="yes"/>
      <point x="1221" y="1011"/>
      <point x="1163" y="988"/>
      <point x="1148" y="952" type="curve" smooth="yes"/>
      <point x="891" y="333" type="line"/>
      <point x="796" y="944" type="line" smooth="yes"/>
      <point x="790" y="980"/>
      <point x="745" y="1006"/>
      <point x="686" y="1006" type="curve" smooth="yes"/>
      <point x="627" y="1006"/>
      <point x="575" y="980"/>
      <point x="559" y="944" type="curve" smooth="yes"/>
      <point x="306" y="333" type="line"/>
      <point x="210" y="952" type="line" smooth="yes"/>
      <point x="204" y="988"/>
      <point x="152" y="1011"/>
      <point x="94" y="1005" type="curve" smooth="yes"/>
      <point x="36" y="998"/>
      <point x="-6" y="964"/>
      <point x="1" y="928" type="curve" smooth="yes"/>
    </contour>
  </outline>
</glyph>
<glyph name="W" format="1">
  <advance width="1352"/>
  <unicode hex="0057"/>
  <outline>
    <contour>
      <point x="114" y="19" type="line"/>
      <point x="119" y="5"/>
      <point x="166" y="-6"/>
      <point x="225" y="-6" type="curve" smooth="yes"/>
      <point x="284" y="-6"/>
      <point x="333" y="5"/>
      <point x="343" y="19" type="curve"/>
      <point x="563" y="614" type="line"/>
      <point x="628" y="19" type="line"/>
      <point x="633" y="5"/>
      <point x="680" y="-6"/>
      <point x="739" y="-6" type="curve" smooth="yes"/>
      <point x="798" y="-6"/>
      <point x="847" y="5"/>
      <point x="857" y="19" type="curve"/>
      <point x="1216" y="963" type="line" smooth="yes"/>
      <point x="1221" y="977"/>
      <point x="1180" y="993"/>
      <point x="1123" y="999" type="curve" smooth="yes"/>
      <point x="1067" y="1005"/>
      <point x="1016" y="998"/>
      <point x="1011" y="983" type="curve" smooth="yes"/>
      <point x="790" y="385" type="line"/>
      <point x="725" y="981" type="line"/>
      <point x="719" y="995"/>
      <point x="672" y="1006"/>
      <point x="613" y="1006" type="curve" smooth="yes"/>
      <point x="555" y="1006"/>
      <point x="505" y="995"/>
      <point x="496" y="981" type="curve"/>
      <point x="276" y="385" type="line"/>
      <point x="210" y="983" type="line" smooth="yes"/>
      <point x="208" y="998"/>
      <point x="160" y="1005"/>
      <point x="102" y="999" type="curve" smooth="yes"/>
      <point x="44" y="993"/>
      <point x="-2" y="977"/>
      <point x="0" y="963" type="curve" smooth="yes"/>
    </contour>
  </outline>
</glyph>
<glyph name="Latin_Capital_Letter_X" format="1">
  <advance width="973"/>
  <unicode hex="0058"/>
  <outline>
    <contour>
      <point x="394" y="308" type="line"/>
      <point x="516" y="37" type="line" smooth="yes"/>
      <point x="526" y="15"/>
      <point x="553" y="-1"/>
      <point x="591" y="-5" type="curve" smooth="yes"/>
      <point x="628" y="-9"/>
      <point x="665" y="-1"/>
      <point x="692" y="18" type="curve" smooth="yes"/>
      <point x="720" y="36"/>
      <point x="729" y="60"/>
      <point x="719" y="82" type="curve" smooth="yes"/>
      <point x="530" y="500" type="line"/>
      <point x="828" y="918" type="line" smooth="yes"/>
      <point x="844" y="940"/>
      <point x="840" y="964"/>
      <point x="818" y="982" type="curve" smooth="yes"/>
      <point x="795" y="1001"/>
      <point x="761" y="1009"/>
      <point x="722" y="1005" type="curve" smooth="yes"/>
      <point x="683" y="1001"/>
      <point x="652" y="985"/>
      <point x="636" y="963" type="curve" smooth="yes"/>
      <point x="444" y="692" type="line"/>
      <point x="321" y="963" type="line" smooth="yes"/>
      <point x="306" y="997"/>
      <point x="248" y="1014"/>
      <point x="192" y="1002" type="curve" smooth="yes"/>
      <point x="136" y="989"/>
      <point x="103" y="952"/>
      <point x="118" y="918" type="curve" smooth="yes"/>
      <point x="307" y="500" type="line"/>
      <point x="10" y="82" type="line" smooth="yes"/>
      <point x="-15" y="48"/>
      <point x="9" y="11"/>
      <point x="61" y="-2" type="curve" smooth="yes"/>
      <point x="114" y="-14"/>
      <point x="177" y="3"/>
      <point x="201" y="37" type="curve" smooth="yes"/>
    </contour>
  </outline>
</glyph>
<glyph name="X" format="1">
  <advance width="941"/>
  <unicode hex="0058"/>
  <outline>
    <contour>
      <point x="375" y="282" type="line"/>
      <point x="479" y="9" type="line" smooth="yes"/>
      <point x="484" y="-4"/>
      <point x="535" y="-7"/>
      <point x="592" y="4" type="curve" smooth="yes"/>
      <point x="650" y="14"/>
      <point x="692" y="34"/>
      <point x="687" y="47" type="curve" smooth="yes"/>
      <point x="514" y="500" type="line"/>
      <point x="805" y="953" type="line" smooth="yes"/>
      <point x="813" y="966"/>
      <point x="776" y="986"/>
      <point x="721" y="996" type="curve" smooth="yes"/>
      <point x="666" y="1007"/>
      <point x="615" y="1004"/>
      <point x="606" y="991" type="curve" smooth="yes"/>
      <point x="431" y="718" type="line"/>
      <point x="327" y="991" type="line" smooth="yes"/>
      <point x="322" y="1004"/>
      <point x="271" y="1007"/>
      <point x="214" y="996" type="curve" smooth="yes"/>
      <point x="156" y="986"/>
      <point x="114" y="966"/>
      <point x="119" y="953" type="curve" smooth="yes"/>
      <point x="292" y="500" type="line"/>
      <point x="1" y="47" type="line"/>
      <point x="-4" y="38"/>
      <point x="9" y="27"/>
      <point x="37" y="17" type="curve" smooth="yes"/>
      <point x="66" y="6"/>
      <point x="102" y="-1"/>
      <point x="137" y="-2" type="curve" smooth="yes"/>
      <point x="171" y="-4"/>
      <point x="194" y="0"/>
      <point x="200" y="9" type="curve" smooth="yes"/>
    </contour>
  </outline>
</glyph>
<glyph name="Latin_Capital_Letter_Y" format="1">
  <advance width="948"/>
  <unicode hex="0059"/>
  <outline>
    <contour>
      <point x="243" y="487" type="line"/>
      <point x="187" y="60" type="line" smooth="yes"/>
      <point x="182" y="24"/>
      <point x="226" y="-6"/>
      <point x="283" y="-6" type="curve" smooth="yes"/>
      <point x="341" y="-6"/>
      <point x="392" y="24"/>
      <point x="397" y="60" type="curve" smooth="yes"/>
      <point x="453" y="487" type="line"/>
      <point x="801" y="914" type="line" smooth="yes"/>
      <point x="828" y="948"/>
      <point x="808" y="986"/>
      <point x="757" y="1001" type="curve" smooth="yes"/>
      <point x="705" y="1015"/>
      <point x="642" y="999"/>
      <point x="614" y="966" type="curve" smooth="yes"/>
      <point x="371" y="667" type="line"/>
      <point x="205" y="966" type="line" smooth="yes"/>
      <point x="187" y="999"/>
      <point x="127" y="1015"/>
      <point x="72" y="1001" type="curve" smooth="yes"/>
      <point x="17" y="986"/>
      <point x="-13" y="948"/>
      <point x="5" y="914" type="curve" smooth="yes"/>
    </contour>
  </outline>
</glyph>
<glyph name="Y" format="1">
  <advance width="901"/>
  <unicode hex="0059"/>
  <outline>
    <contour>
      <point x="219" y="499" type="line"/>
      <point x="156" y="20" type="line"/>
      <point x="155" y="6"/>
      <point x="200" y="-6"/>
      <point x="258" y="-6" type="curve" smooth="yes"/>
      <point x="316" y="-6"/>
      <point x="365" y="6"/>
      <point x="366" y="20" type="curve"/>
      <point x="429" y="499" type="line"/>
      <point x="764" y="950" type="line" smooth="yes"/>
      <point x="774" y="963"/>
      <point x="738" y="983"/>
      <point x="684" y="995" type="curve" smooth="yes"/>
      <point x="630" y="1007"/>
      <point x="578" y="1006"/>
      <point x="568" y="993" type="curve" smooth="yes"/>
      <point x="347" y="682" type="line"/>
      <point x="208" y="992" type="line" smooth="yes"/>
      <point x="202" y="1006"/>
      <point x="151" y="1007"/>
      <point x="93" y="995" type="curve" smooth="yes"/>
      <point x="36" y="983"/>
      <point x="-5" y="963"/>
      <point x="1" y="950" type="curve" smooth="yes"/>
    </contour>
  </outline>
</glyph>
<glyph name="Latin_Capital_Letter_Z" format="1">
  <advance width="914"/>
  <unicode hex="005A"/>
  <outline>
    <contour>
      <point x="521" y="806" type="line"/>
      <point x="36" y="204" type="line" smooth="yes"/>
      <point x="7" y="167"/>
      <point x="-6" y="118"/>
      <point x="3" y="73" type="curve"/>
      <point x="3" y="73" type="line"/>
      <point x="11" y="27"/>
      <point x="38" y="0"/>
      <point x="74" y="0" type="curve" smooth="yes"/>
      <point x="592" y="0" type="line" smooth="yes"/>
      <point x="631" y="0"/>
      <point x="668" y="43"/>
      <point x="675" y="97" type="curve"/>
      <point x="675" y="97" type="line"/>
      <point x="682" y="151"/>
      <point x="656" y="194"/>
      <point x="617" y="194" type="curve" smooth="yes"/>
      <point x="258" y="194" type="line"/>
      <point x="743" y="796" type="line" smooth="yes"/>
      <point x="772" y="833"/>
      <point x="784" y="882"/>
      <point x="776" y="927" type="curve"/>
      <point x="776" y="927" type="line"/>
      <point x="767" y="973"/>
      <point x="740" y="1000"/>
      <point x="704" y="1000" type="curve" smooth="yes"/>
      <point x="187" y="1000" type="line" smooth="yes"/>
      <point x="148" y="1000"/>
      <point x="110" y="957"/>
      <point x="103" y="903" type="curve"/>
      <point x="103" y="903" type="line"/>
      <point x="96" y="849"/>
      <point x="122" y="806"/>
      <point x="161" y="806" type="curve" smooth="yes"/>
    </contour>
  </outline>
</glyph>
<glyph name="Z" format="1">
  <advance width="917"/>
  <unicode hex="005A"/>
  <outline>
    <contour>
      <point x="527" y="806" type="line"/>
      <point x="32" y="182" type="line" smooth="yes"/>
      <point x="7" y="150"/>
      <point x="-5" y="106"/>
      <point x="2" y="65" type="curve" smooth="yes"/>
      <point x="8" y="25"/>
      <point x="30" y="0"/>
      <point x="60" y="0" type="curve" smooth="yes"/>
      <point x="599" y="0" type="line" smooth="yes"/>
      <point x="635" y="0"/>
      <point x="670" y="43"/>
      <point x="677" y="97" type="curve" smooth="yes"/>
      <point x="684" y="151"/>
      <point x="660" y="194"/>
      <point x="624" y="194" type="curve" smooth="yes"/>
      <point x="255" y="194" type="line"/>
      <point x="750" y="818" type="line" smooth="yes"/>
      <point x="775" y="850"/>
      <point x="787" y="894"/>
      <point x="780" y="935" type="curve" smooth="yes"/>
      <point x="774" y="975"/>
      <point x="752" y="1000"/>
      <point x="722" y="1000" type="curve" smooth="yes"/>
      <point x="183" y="1000" type="line" smooth="yes"/>
      <point x="147" y="1000"/>
      <point x="112" y="957"/>
      <point x="105" y="903" type="curve" smooth="yes"/>
      <point x="98" y="849"/>
      <point x="122" y="806"/>
      <point x="158" y="806" type="curve" smooth="yes"/>
    </contour>
  </outline>
</glyph>
<glyph name="bracketleft" format="1">
  <advance width="639"/>
  <unicode hex="005B"/>
  <outline>
    <contour>
      <point x="329" y="-100" type="line" smooth="yes"/>
      <point x="344" y="-100"/>
      <point x="363" y="-57"/>
      <point x="370" y="-3" type="curve" smooth="yes"/>
      <point x="377" y="51"/>
      <point x="370" y="94"/>
      <point x="354" y="94" type="curve" smooth="yes"/>
      <point x="208" y="94" type="line"/>
      <point x="314" y="906" type="line"/>
      <point x="459" y="906" type="line" smooth="yes"/>
      <point x="475" y="906"/>
      <point x="494" y="949"/>
      <point x="500" y="1003" type="curve" smooth="yes"/>
      <point x="507" y="1057"/>
      <point x="500" y="1100"/>
      <point x="485" y="1100" type="curve" smooth="yes"/>
      <point x="273" y="1100" type="line" smooth="yes"/>
      <point x="206" y="1100"/>
      <point x="150" y="1086"/>
      <point x="148" y="1070" type="curve" smooth="yes"/>
      <point x="0" y="-70" type="line" smooth="yes"/>
      <point x="-2" y="-86"/>
      <point x="50" y="-100"/>
      <point x="117" y="-100" type="curve" smooth="yes"/>
    </contour>
  </outline>
</glyph>
<glyph name="backslash" format="1">
  <advance width="548"/>
  <unicode hex="005C"/>
  <outline>
    <contour>
      <point x="1" y="1003" type="curve" smooth="yes"/>
      <point x="209" y="-67" type="line" smooth="yes"/>
      <point x="215" y="-99"/>
      <point x="266" y="-111"/>
      <point x="322" y="-93" type="curve" smooth="yes"/>
      <point x="378" y="-76"/>
      <point x="419" y="-35"/>
      <point x="412" y="-3" type="curve" smooth="yes"/>
      <point x="204" y="1067" type="line" smooth="yes"/>
      <point x="198" y="1099"/>
      <point x="147" y="1111"/>
      <point x="91" y="1093" type="curve" smooth="yes"/>
      <point x="35" y="1076"/>
      <point x="-6" y="1035"/>
    </contour>
  </outline>
</glyph>
<glyph name="bracketright" format="1">
  <advance width="632"/>
  <unicode hex="005D"/>
  <outline>
    <contour>
      <point x="54" y="-100" type="curve" smooth="yes"/>
      <point x="229" y="-100" type="line" smooth="yes"/>
      <point x="296" y="-100"/>
      <point x="354" y="-69"/>
      <point x="359" y="-30" type="curve" smooth="yes"/>
      <point x="496" y="1030" type="line" smooth="yes"/>
      <point x="502" y="1069"/>
      <point x="452" y="1100"/>
      <point x="385" y="1100" type="curve" smooth="yes"/>
      <point x="210" y="1100" type="line" smooth="yes"/>
      <point x="174" y="1100"/>
      <point x="139" y="1057"/>
      <point x="132" y="1003" type="curve" smooth="yes"/>
      <point x="125" y="949"/>
      <point x="149" y="906"/>
      <point x="185" y="906" type="curve" smooth="yes"/>
      <point x="293" y="906" type="line"/>
      <point x="188" y="94" type="line"/>
      <point x="80" y="94" type="line" smooth="yes"/>
      <point x="43" y="94"/>
      <point x="8" y="51"/>
      <point x="1" y="-3" type="curve" smooth="yes"/>
      <point x="-6" y="-57"/>
      <point x="18" y="-100"/>
    </contour>
  </outline>
</glyph>
<glyph name="asciicircum" format="1">
  <advance width="699"/>
  <unicode hex="005E"/>
  <outline>
    <contour>
      <point x="2" y="753" type="line"/>
      <point x="-1" y="749"/>
      <point x="-1" y="742"/>
      <point x="5" y="733" type="curve"/>
      <point x="20" y="707"/>
      <point x="66" y="671"/>
      <point x="108" y="653" type="curve" smooth="yes"/>
      <point x="135" y="641"/>
      <point x="153" y="640"/>
      <point x="159" y="647" type="curve" smooth="yes"/>
      <point x="288" y="801" type="line"/>
      <point x="378" y="647" type="line" smooth="yes"/>
      <point x="382" y="640"/>
      <point x="401" y="641"/>
      <point x="431" y="653" type="curve" smooth="yes"/>
      <point x="478" y="671"/>
      <point x="533" y="707"/>
      <point x="555" y="733" type="curve" smooth="yes"/>
      <point x="562" y="742"/>
      <point x="565" y="749"/>
      <point x="563" y="753" type="curve"/>
      <point x="431" y="981" type="line" smooth="yes"/>
      <point x="423" y="995"/>
      <point x="375" y="1006"/>
      <point x="315" y="1006" type="curve" smooth="yes"/>
      <point x="256" y="1006"/>
      <point x="205" y="995"/>
      <point x="193" y="981" type="curve" smooth="yes"/>
    </contour>
  </outline>
</glyph>
<glyph name="underscore" format="1">
  <advance width="966"/>
  <unicode hex="005F"/>
  <outline>
    <contour>
      <point x="787" y="-217" type="line" smooth="yes"/>
      <point x="802" y="-217"/>
      <point x="821" y="-174"/>
      <point x="828" y="-120" type="curve" smooth="yes"/>
      <point x="835" y="-66"/>
      <point x="828" y="-23"/>
      <point x="812" y="-23" type="curve" smooth="yes"/>
      <point x="44" y="-23" type="line" smooth="yes"/>
      <point x="28" y="-23"/>
      <point x="10" y="-66"/>
      <point x="3" y="-120" type="curve" smooth="yes"/>
      <point x="-4" y="-174"/>
      <point x="3" y="-217"/>
      <point x="18" y="-217" type="curve" smooth="yes"/>
    </contour>
  </outline>
</glyph>
<glyph name="grave" format="1">
  <advance width="421"/>
  <unicode hex="0060"/>
  <outline>
    <contour>
      <point x="170" y="992" type="line" smooth="yes"/>
      <point x="156" y="1011"/>
      <point x="128" y="1010"/>
      <point x="94" y="991" type="curve" smooth="yes"/>
      <point x="59" y="973"/>
      <point x="29" y="941"/>
      <point x="12" y="906" type="curve" smooth="yes"/>
      <point x="-5" y="871"/>
      <point x="-4" y="843"/>
      <point x="15" y="831" type="curve" smooth="yes"/>
      <point x="176" y="731" type="line" smooth="yes"/>
      <point x="194" y="720"/>
      <point x="227" y="733"/>
      <point x="254" y="762" type="curve" smooth="yes"/>
      <point x="282" y="790"/>
      <point x="293" y="824"/>
      <point x="281" y="840" type="curve" smooth="yes"/>
    </contour>
  </outline>
</glyph>
<glyph name="a" format="1">
  <advance width="824"/>
  <unicode hex="0061"/>
  <outline>
    <contour>
      <point x="439" y="325" type="curve" smooth="yes"/>
      <point x="430" y="250"/>
      <point x="372" y="188"/>
      <point x="310" y="188" type="curve" smooth="yes"/>
      <point x="248" y="188"/>
      <point x="206" y="250"/>
      <point x="216" y="325" type="curve" smooth="yes"/>
      <point x="226" y="400"/>
      <point x="284" y="462"/>
      <point x="346" y="462" type="curve" smooth="yes"/>
      <point x="407" y="462"/>
      <point x="449" y="400"/>
    </contour>
    <contour>
      <point x="478" y="624" type="line"/>
      <point x="447" y="644"/>
      <point x="411" y="656"/>
      <point x="371" y="656" type="curve" smooth="yes"/>
      <point x="191" y="656"/>
      <point x="27" y="508"/>
      <point x="3" y="325" type="curve" smooth="yes"/>
      <point x="-21" y="142"/>
      <point x="105" y="-6"/>
      <point x="285" y="-6" type="curve" smooth="yes"/>
      <point x="325" y="-6"/>
      <point x="364" y="6"/>
      <point x="400" y="26" type="curve"/>
      <point x="400" y="20" type="line"/>
      <point x="398" y="6"/>
      <point x="443" y="-6"/>
      <point x="501" y="-6" type="curve" smooth="yes"/>
      <point x="559" y="-6"/>
      <point x="608" y="6"/>
      <point x="610" y="20" type="curve" smooth="yes"/>
      <point x="689" y="630" type="line" smooth="yes"/>
      <point x="691" y="644"/>
      <point x="645" y="656"/>
      <point x="587" y="656" type="curve" smooth="yes"/>
      <point x="529" y="656"/>
      <point x="481" y="644"/>
      <point x="479" y="630" type="curve" smooth="yes"/>
    </contour>
  </outline>
</glyph>
<glyph name="b" format="1">
  <advance width="824"/>
  <unicode hex="0062"/>
  <outline>
    <contour>
      <point x="250" y="325" type="curve" smooth="yes"/>
      <point x="259" y="400"/>
      <point x="317" y="462"/>
      <point x="379" y="462" type="curve" smooth="yes"/>
      <point x="441" y="462"/>
      <point x="483" y="400"/>
      <point x="473" y="325" type="curve" smooth="yes"/>
      <point x="463" y="250"/>
      <point x="405" y="188"/>
      <point x="343" y="188" type="curve" smooth="yes"/>
      <point x="282" y="188"/>
      <point x="240" y="250"/>
    </contour>
    <contour>
      <point x="288" y="624" type="curve"/>
      <point x="335" y="980" type="line" smooth="yes"/>
      <point x="337" y="994"/>
      <point x="291" y="1006"/>
      <point x="233" y="1006" type="curve" smooth="yes"/>
      <point x="175" y="1006"/>
      <point x="127" y="994"/>
      <point x="125" y="980" type="curve" smooth="yes"/>
      <point x="0" y="20" type="line" smooth="yes"/>
      <point x="-2" y="6"/>
      <point x="44" y="-6"/>
      <point x="102" y="-6" type="curve" smooth="yes"/>
      <point x="160" y="-6"/>
      <point x="208" y="6"/>
      <point x="210" y="20" type="curve" smooth="yes"/>
      <point x="211" y="26" type="line"/>
      <point x="242" y="6"/>
      <point x="278" y="-6"/>
      <point x="318" y="-6" type="curve" smooth="yes"/>
      <point x="498" y="-6"/>
      <point x="662" y="142"/>
      <point x="686" y="325" type="curve" smooth="yes"/>
      <point x="710" y="508"/>
      <point x="584" y="656"/>
      <point x="404" y="656" type="curve" smooth="yes"/>
      <point x="364" y="656"/>
      <point x="325" y="644"/>
    </contour>
  </outline>
</glyph>
<glyph name="c" format="1">
  <advance width="742"/>
  <unicode hex="0063"/>
  <outline>
    <contour>
      <point x="371" y="656" type="curve" smooth="yes"/>
      <point x="191" y="656"/>
      <point x="27" y="508"/>
      <point x="3" y="325" type="curve" smooth="yes"/>
      <point x="-21" y="142"/>
      <point x="105" y="-6"/>
      <point x="285" y="-6" type="curve" smooth="yes"/>
      <point x="380" y="-6"/>
      <point x="464" y="23"/>
      <point x="541" y="81" type="curve"/>
      <point x="553" y="92"/>
      <point x="535" y="132"/>
      <point x="502" y="171" type="curve" smooth="yes"/>
      <point x="469" y="210"/>
      <point x="432" y="233"/>
      <point x="419" y="223" type="curve" smooth="yes"/>
      <point x="386" y="200"/>
      <point x="350" y="188"/>
      <point x="310" y="188" type="curve" smooth="yes"/>
      <point x="248" y="188"/>
      <point x="206" y="250"/>
      <point x="216" y="325" type="curve" smooth="yes"/>
      <point x="226" y="400"/>
      <point x="284" y="462"/>
      <point x="346" y="462" type="curve" smooth="yes"/>
      <point x="386" y="462"/>
      <point x="419" y="450"/>
      <point x="446" y="427" type="curve"/>
      <point x="456" y="417"/>
      <point x="498" y="440"/>
      <point x="542" y="479" type="curve" smooth="yes"/>
      <point x="586" y="518"/>
      <point x="613" y="558"/>
      <point x="605" y="569" type="curve"/>
      <point x="543" y="627"/>
      <point x="466" y="656"/>
    </contour>
  </outline>
</glyph>
<glyph name="f" format="1">
  <advance width="690"/>
  <unicode hex="0066"/>
  <outline>
    <contour>
      <point x="76" y="456" type="line"/>
      <point x="19" y="20" type="line" smooth="yes"/>
      <point x="17" y="6"/>
      <point x="63" y="-6"/>
      <point x="121" y="-6" type="curve" smooth="yes"/>
      <point x="179" y="-6"/>
      <point x="227" y="6"/>
      <point x="229" y="20" type="curve" smooth="yes"/>
      <point x="286" y="456" type="line"/>
      <point x="376" y="456" type="line" smooth="yes"/>
      <point x="392" y="456"/>
      <point x="410" y="499"/>
      <point x="417" y="553" type="curve" smooth="yes"/>
      <point x="424" y="607"/>
      <point x="417" y="650"/>
      <point x="401" y="650" type="curve" smooth="yes"/>
      <point x="311" y="650" type="line"/>
      <point x="322" y="734" type="line" smooth="yes"/>
      <point x="325" y="759"/>
      <point x="342" y="781"/>
      <point x="370" y="797" type="curve" smooth="yes"/>
      <point x="399" y="812"/>
      <point x="430" y="816"/>
      <point x="459" y="808" type="curve"/>
      <point x="473" y="803"/>
      <point x="504" y="840"/>
      <point x="529" y="891" type="curve" smooth="yes"/>
      <point x="553" y="942"/>
      <point x="562" y="987"/>
      <point x="548" y="992" type="curve"/>
      <point x="455" y="1020"/>
      <point x="357" y="1007"/>
      <point x="267" y="954" type="curve" smooth="yes"/>
      <point x="178" y="901"/>
      <point x="124" y="824"/>
      <point x="112" y="734" type="curve" smooth="yes"/>
      <point x="101" y="650" type="line"/>
      <point x="44" y="650" type="line" smooth="yes"/>
      <point x="28" y="650"/>
      <point x="10" y="607"/>
      <point x="3" y="553" type="curve" smooth="yes"/>
      <point x="-4" y="499"/>
      <point x="3" y="456"/>
      <point x="18" y="456" type="curve" smooth="yes"/>
    </contour>
  </outline>
</glyph>
<glyph name="g" format="1">
  <advance width="841"/>
  <unicode hex="0067"/>
  <outline>
    <contour>
      <point x="417" y="26" type="curve"/>
      <point x="414" y="0" type="line"/>
      <point x="411" y="-21" type="line" smooth="yes"/>
      <point x="405" y="-71"/>
      <point x="349" y="-112"/>
      <point x="286" y="-112" type="curve" smooth="yes"/>
      <point x="241" y="-112"/>
      <point x="204" y="-100"/>
      <point x="177" y="-79" type="curve"/>
      <point x="169" y="-68"/>
      <point x="124" y="-86"/>
      <point x="76" y="-119" type="curve" smooth="yes"/>
      <point x="27" y="-153"/>
      <point x="-6" y="-190"/>
      <point x="1" y="-202" type="curve"/>
      <point x="61" y="-270"/>
      <point x="151" y="-306"/>
      <point x="261" y="-306" type="curve" smooth="yes"/>
      <point x="439" y="-306"/>
      <point x="601" y="-178"/>
      <point x="621" y="-21" type="curve" smooth="yes"/>
      <point x="624" y="0" type="line"/>
      <point x="706" y="630" type="line" smooth="yes"/>
      <point x="708" y="644"/>
      <point x="662" y="656"/>
      <point x="604" y="656" type="curve" smooth="yes"/>
      <point x="546" y="656"/>
      <point x="498" y="644"/>
      <point x="496" y="630" type="curve" smooth="yes"/>
      <point x="495" y="624" type="line"/>
      <point x="464" y="644"/>
      <point x="427" y="656"/>
      <point x="388" y="656" type="curve" smooth="yes"/>
      <point x="208" y="656"/>
      <point x="43" y="508"/>
      <point x="20" y="325" type="curve" smooth="yes"/>
      <point x="-4" y="142"/>
      <point x="122" y="-6"/>
      <point x="302" y="-6" type="curve" smooth="yes"/>
      <point x="341" y="-6"/>
      <point x="381" y="6"/>
    </contour>
    <contour>
      <point x="233" y="325" type="curve" smooth="yes"/>
      <point x="243" y="400"/>
      <point x="301" y="462"/>
      <point x="362" y="462" type="curve" smooth="yes"/>
      <point x="424" y="462"/>
      <point x="466" y="400"/>
      <point x="456" y="325" type="curve" smooth="yes"/>
      <point x="446" y="250"/>
      <point x="388" y="188"/>
      <point x="327" y="188" type="curve" smooth="yes"/>
      <point x="265" y="188"/>
      <point x="223" y="250"/>
    </contour>
  </outline>
</glyph>
<glyph name="h" format="1">
  <advance width="765"/>
  <unicode hex="0068"/>
  <outline>
    <contour>
      <point x="0" y="20" type="line" smooth="yes"/>
      <point x="-2" y="6"/>
      <point x="44" y="-6"/>
      <point x="102" y="-6" type="curve" smooth="yes"/>
      <point x="160" y="-6"/>
      <point x="208" y="6"/>
      <point x="210" y="20" type="curve" smooth="yes"/>
      <point x="267" y="455" type="line"/>
      <point x="267" y="455"/>
      <point x="313" y="514"/>
      <point x="361" y="514" type="curve" smooth="yes"/>
      <point x="397" y="514"/>
      <point x="423" y="487"/>
      <point x="419" y="455" type="curve" smooth="yes"/>
      <point x="362" y="20" type="line" smooth="yes"/>
      <point x="360" y="6"/>
      <point x="406" y="-6"/>
      <point x="464" y="-6" type="curve" smooth="yes"/>
      <point x="522" y="-6"/>
      <point x="570" y="6"/>
      <point x="572" y="20" type="curve" smooth="yes"/>
      <point x="629" y="455" type="line" smooth="yes"/>
      <point x="643" y="563"/>
      <point x="557" y="650"/>
      <point x="437" y="650" type="curve" smooth="yes"/>
      <point x="383" y="650"/>
      <point x="329" y="626"/>
      <point x="285" y="593" type="curve"/>
      <point x="335" y="980" type="line" smooth="yes"/>
      <point x="337" y="994"/>
      <point x="291" y="1006"/>
      <point x="233" y="1006" type="curve" smooth="yes"/>
      <point x="175" y="1006"/>
      <point x="127" y="994"/>
      <point x="125" y="980" type="curve" smooth="yes"/>
    </contour>
  </outline>
</glyph>
<glyph name="i" format="1">
  <advance width="463"/>
  <unicode hex="0069"/>
  <outline>
    <contour>
      <point x="289" y="630" type="line" smooth="yes"/>
      <point x="291" y="644"/>
      <point x="246" y="656"/>
      <point x="188" y="656" type="curve" smooth="yes"/>
      <point x="130" y="656"/>
      <point x="81" y="644"/>
      <point x="79" y="630" type="curve" smooth="yes"/>
      <point x="0" y="20" type="line" smooth="yes"/>
      <point x="-2" y="6"/>
      <point x="44" y="-6"/>
      <point x="102" y="-6" type="curve" smooth="yes"/>
      <point x="160" y="-6"/>
      <point x="208" y="6"/>
      <point x="210" y="20" type="curve" smooth="yes"/>
    </contour>
    <contour>
      <point x="327" y="924" type="line" smooth="yes"/>
      <point x="329" y="938"/>
      <point x="284" y="950"/>
      <point x="226" y="950" type="curve" smooth="yes"/>
      <point x="168" y="950"/>
      <point x="119" y="938"/>
      <point x="117" y="924" type="curve" smooth="yes"/>
      <point x="99" y="782" type="line" smooth="yes"/>
      <point x="97" y="768"/>
      <point x="143" y="756"/>
      <point x="201" y="756" type="curve" smooth="yes"/>
      <point x="259" y="756"/>
      <point x="307" y="768"/>
      <point x="309" y="782" type="curve" smooth="yes"/>
    </contour>
  </outline>
</glyph>
<glyph name="j" format="1">
  <advance width="732"/>
  <unicode hex="006A"/>
  <outline>
    <contour>
      <point x="558" y="630" type="line" smooth="yes"/>
      <point x="560" y="644"/>
      <point x="515" y="656"/>
      <point x="457" y="656" type="curve" smooth="yes"/>
      <point x="399" y="656"/>
      <point x="350" y="644"/>
      <point x="348" y="630" type="curve" smooth="yes"/>
      <point x="253" y="-99" type="line"/>
      <point x="253" y="-104"/>
      <point x="241" y="-109"/>
      <point x="221" y="-111" type="curve" smooth="yes"/>
      <point x="202" y="-113"/>
      <point x="181" y="-112"/>
      <point x="166" y="-108" type="curve"/>
      <point x="157" y="-98"/>
      <point x="113" y="-120"/>
      <point x="68" y="-157" type="curve" smooth="yes"/>
      <point x="23" y="-194"/>
      <point x="-7" y="-233"/>
      <point x="1" y="-245" type="curve"/>
      <point x="69" y="-306"/>
      <point x="174" y="-323"/>
      <point x="278" y="-290" type="curve" smooth="yes"/>
      <point x="382" y="-257"/>
      <point x="452" y="-185"/>
      <point x="463" y="-99" type="curve" smooth="yes"/>
    </contour>
    <contour>
      <point x="596" y="924" type="line" smooth="yes"/>
      <point x="598" y="938"/>
      <point x="553" y="950"/>
      <point x="495" y="950" type="curve" smooth="yes"/>
      <point x="437" y="950"/>
      <point x="388" y="938"/>
      <point x="386" y="924" type="curve" smooth="yes"/>
      <point x="368" y="782" type="line" smooth="yes"/>
      <point x="366" y="768"/>
      <point x="412" y="756"/>
      <point x="470" y="756" type="curve" smooth="yes"/>
      <point x="528" y="756"/>
      <point x="576" y="768"/>
      <point x="578" y="782" type="curve" smooth="yes"/>
    </contour>
  </outline>
</glyph>
<glyph name="k" format="1">
  <advance width="796"/>
  <unicode hex="006B"/>
  <outline>
    <contour>
      <point x="0" y="20" type="line" smooth="yes"/>
      <point x="-2" y="6"/>
      <point x="44" y="-6"/>
      <point x="102" y="-6" type="curve" smooth="yes"/>
      <point x="160" y="-6"/>
      <point x="208" y="6"/>
      <point x="210" y="20" type="curve" smooth="yes"/>
      <point x="233" y="194" type="line"/>
      <point x="270" y="222" type="line"/>
      <point x="434" y="-13" type="line" smooth="yes"/>
      <point x="441" y="-24"/>
      <point x="486" y="-5"/>
      <point x="533" y="30" type="curve" smooth="yes"/>
      <point x="580" y="65"/>
      <point x="612" y="103"/>
      <point x="604" y="114" type="curve" smooth="yes"/>
      <point x="440" y="349" type="line"/>
      <point x="656" y="510" type="line" smooth="yes"/>
      <point x="664" y="516"/>
      <point x="662" y="536"/>
      <point x="649" y="563" type="curve" smooth="yes"/>
      <point x="636" y="590"/>
      <point x="617" y="618"/>
      <point x="596" y="639" type="curve" smooth="yes"/>
      <point x="575" y="660"/>
      <point x="558" y="669"/>
      <point x="549" y="662" type="curve" smooth="yes"/>
      <point x="266" y="451" type="line"/>
      <point x="335" y="980" type="line" smooth="yes"/>
      <point x="337" y="994"/>
      <point x="291" y="1006"/>
      <point x="233" y="1006" type="curve" smooth="yes"/>
      <point x="175" y="1006"/>
      <point x="127" y="994"/>
      <point x="125" y="980" type="curve" smooth="yes"/>
    </contour>
  </outline>
</glyph>
<glyph name="m" format="1">
  <advance width="1127"/>
  <unicode hex="006D"/>
  <outline>
    <contour>
      <point x="0" y="20" type="line" smooth="yes"/>
      <point x="-2" y="6"/>
      <point x="44" y="-6"/>
      <point x="102" y="-6" type="curve" smooth="yes"/>
      <point x="160" y="-6"/>
      <point x="208" y="6"/>
      <point x="210" y="20" type="curve" smooth="yes"/>
      <point x="267" y="455" type="line"/>
      <point x="267" y="455"/>
      <point x="313" y="514"/>
      <point x="361" y="514" type="curve" smooth="yes"/>
      <point x="397" y="514"/>
      <point x="423" y="487"/>
      <point x="419" y="455" type="curve" smooth="yes"/>
      <point x="362" y="20" type="line" smooth="yes"/>
      <point x="360" y="6"/>
      <point x="406" y="-6"/>
      <point x="464" y="-6" type="curve" smooth="yes"/>
      <point x="522" y="-6"/>
      <point x="570" y="6"/>
      <point x="572" y="20" type="curve" smooth="yes"/>
      <point x="629" y="455" type="line"/>
      <point x="629" y="455"/>
      <point x="675" y="514"/>
      <point x="723" y="514" type="curve" smooth="yes"/>
      <point x="759" y="514"/>
      <point x="785" y="487"/>
      <point x="781" y="455" type="curve" smooth="yes"/>
      <point x="724" y="20" type="line" smooth="yes"/>
      <point x="722" y="6"/>
      <point x="768" y="-6"/>
      <point x="826" y="-6" type="curve" smooth="yes"/>
      <point x="884" y="-6"/>
      <point x="932" y="6"/>
      <point x="934" y="20" type="curve" smooth="yes"/>
      <point x="991" y="455" type="line" smooth="yes"/>
      <point x="1005" y="563"/>
      <point x="919" y="650"/>
      <point x="799" y="650" type="curve" smooth="yes"/>
      <point x="727" y="650"/>
      <point x="657" y="608"/>
      <point x="608" y="561" type="curve"/>
      <point x="576" y="615"/>
      <point x="513" y="650"/>
      <point x="437" y="650" type="curve" smooth="yes"/>
      <point x="383" y="650"/>
      <point x="329" y="626"/>
      <point x="285" y="593" type="curve"/>
      <point x="289" y="630" type="line" smooth="yes"/>
      <point x="291" y="644"/>
      <point x="246" y="656"/>
      <point x="188" y="656" type="curve" smooth="yes"/>
      <point x="130" y="656"/>
      <point x="81" y="644"/>
      <point x="79" y="630" type="curve" smooth="yes"/>
    </contour>
  </outline>
</glyph>
<glyph name="n" format="1">
  <advance width="765"/>
  <unicode hex="006E"/>
  <outline>
    <contour>
      <point x="0" y="20" type="line" smooth="yes"/>
      <point x="-2" y="6"/>
      <point x="44" y="-6"/>
      <point x="102" y="-6" type="curve" smooth="yes"/>
      <point x="160" y="-6"/>
      <point x="208" y="6"/>
      <point x="210" y="20" type="curve" smooth="yes"/>
      <point x="267" y="455" type="line"/>
      <point x="267" y="455"/>
      <point x="313" y="514"/>
      <point x="361" y="514" type="curve" smooth="yes"/>
      <point x="397" y="514"/>
      <point x="423" y="487"/>
      <point x="419" y="455" type="curve" smooth="yes"/>
      <point x="362" y="20" type="line" smooth="yes"/>
      <point x="360" y="6"/>
      <point x="406" y="-6"/>
      <point x="464" y="-6" type="curve" smooth="yes"/>
      <point x="522" y="-6"/>
      <point x="570" y="6"/>
      <point x="572" y="20" type="curve" smooth="yes"/>
      <point x="629" y="455" type="line" smooth="yes"/>
      <point x="643" y="563"/>
      <point x="557" y="650"/>
      <point x="437" y="650" type="curve" smooth="yes"/>
      <point x="383" y="650"/>
      <point x="329" y="626"/>
      <point x="285" y="593" type="curve"/>
      <point x="289" y="630" type="line" smooth="yes"/>
      <point x="291" y="644"/>
      <point x="246" y="656"/>
      <point x="188" y="656" type="curve" smooth="yes"/>
      <point x="130" y="656"/>
      <point x="81" y="644"/>
      <point x="79" y="630" type="curve" smooth="yes"/>
    </contour>
  </outline>
</glyph>
<glyph name="o" format="1">
  <advance width="791"/>
  <unicode hex="006F"/>
  <outline>
    <contour>
      <point x="3" y="325" type="curve" smooth="yes"/>
      <point x="-21" y="142"/>
      <point x="105" y="-6"/>
      <point x="285" y="-6" type="curve" smooth="yes"/>
      <point x="464" y="-6"/>
      <point x="629" y="142"/>
      <point x="653" y="325" type="curve" smooth="yes"/>
      <point x="677" y="508"/>
      <point x="550" y="656"/>
      <point x="371" y="656" type="curve" smooth="yes"/>
      <point x="191" y="656"/>
      <point x="27" y="508"/>
    </contour>
    <contour>
      <point x="216" y="325" type="curve" smooth="yes"/>
      <point x="226" y="400"/>
      <point x="284" y="462"/>
      <point x="346" y="462" type="curve" smooth="yes"/>
      <point x="407" y="462"/>
      <point x="449" y="400"/>
      <point x="439" y="325" type="curve" smooth="yes"/>
      <point x="430" y="250"/>
      <point x="372" y="188"/>
      <point x="310" y="188" type="curve" smooth="yes"/>
      <point x="248" y="188"/>
      <point x="206" y="250"/>
    </contour>
  </outline>
</glyph>
<glyph name="p" format="1">
  <advance width="863"/>
  <unicode hex="0070"/>
  <outline>
    <contour>
      <point x="289" y="325" type="curve" smooth="yes"/>
      <point x="298" y="400"/>
      <point x="356" y="462"/>
      <point x="418" y="462" type="curve" smooth="yes"/>
      <point x="480" y="462"/>
      <point x="522" y="400"/>
      <point x="512" y="325" type="curve" smooth="yes"/>
      <point x="502" y="250"/>
      <point x="444" y="188"/>
      <point x="382" y="188" type="curve" smooth="yes"/>
      <point x="321" y="188"/>
      <point x="279" y="250"/>
    </contour>
    <contour>
      <point x="250" y="26" type="line"/>
      <point x="281" y="6"/>
      <point x="317" y="-6"/>
      <point x="357" y="-6" type="curve" smooth="yes"/>
      <point x="537" y="-6"/>
      <point x="701" y="142"/>
      <point x="725" y="325" type="curve" smooth="yes"/>
      <point x="749" y="508"/>
      <point x="623" y="656"/>
      <point x="443" y="656" type="curve" smooth="yes"/>
      <point x="403" y="656"/>
      <point x="364" y="644"/>
      <point x="327" y="624" type="curve"/>
      <point x="328" y="630" type="line" smooth="yes"/>
      <point x="330" y="644"/>
      <point x="285" y="656"/>
      <point x="227" y="656" type="curve" smooth="yes"/>
      <point x="169" y="656"/>
      <point x="120" y="644"/>
      <point x="118" y="630" type="curve" smooth="yes"/>
      <point x="0" y="-280" type="line" smooth="yes"/>
      <point x="-2" y="-294"/>
      <point x="44" y="-306"/>
      <point x="102" y="-306" type="curve" smooth="yes"/>
      <point x="160" y="-306"/>
      <point x="208" y="-294"/>
      <point x="210" y="-280" type="curve" smooth="yes"/>
    </contour>
  </outline>
</glyph>
<glyph name="q" format="1">
  <advance width="824"/>
  <unicode hex="0071"/>
  <outline>
    <contour>
      <point x="439" y="325" type="curve" smooth="yes"/>
      <point x="430" y="250"/>
      <point x="372" y="188"/>
      <point x="310" y="188" type="curve" smooth="yes"/>
      <point x="248" y="188"/>
      <point x="206" y="250"/>
      <point x="216" y="325" type="curve" smooth="yes"/>
      <point x="226" y="400"/>
      <point x="284" y="462"/>
      <point x="346" y="462" type="curve" smooth="yes"/>
      <point x="407" y="462"/>
      <point x="449" y="400"/>
    </contour>
    <contour>
      <point x="400" y="26" type="curve"/>
      <point x="361" y="-280" type="line" smooth="yes"/>
      <point x="359" y="-294"/>
      <point x="404" y="-306"/>
      <point x="462" y="-306" type="curve" smooth="yes"/>
      <point x="520" y="-306"/>
      <point x="569" y="-294"/>
      <point x="571" y="-280" type="curve" smooth="yes"/>
      <point x="689" y="630" type="line" smooth="yes"/>
      <point x="691" y="644"/>
      <point x="645" y="656"/>
      <point x="587" y="656" type="curve" smooth="yes"/>
      <point x="529" y="656"/>
      <point x="481" y="644"/>
      <point x="479" y="630" type="curve" smooth="yes"/>
      <point x="478" y="624" type="line"/>
      <point x="447" y="644"/>
      <point x="411" y="656"/>
      <point x="371" y="656" type="curve" smooth="yes"/>
      <point x="191" y="656"/>
      <point x="27" y="508"/>
      <point x="3" y="325" type="curve" smooth="yes"/>
      <point x="-21" y="142"/>
      <point x="105" y="-6"/>
      <point x="285" y="-6" type="curve" smooth="yes"/>
      <point x="325" y="-6"/>
      <point x="364" y="6"/>
    </contour>
  </outline>
</glyph>
<glyph name="r" format="1">
  <advance width="656"/>
  <unicode hex="0072"/>
  <outline>
    <contour>
      <point x="0" y="20" type="line" smooth="yes"/>
      <point x="-2" y="6"/>
      <point x="44" y="-6"/>
      <point x="102" y="-6" type="curve" smooth="yes"/>
      <point x="160" y="-6"/>
      <point x="208" y="6"/>
      <point x="210" y="20" type="curve" smooth="yes"/>
      <point x="252" y="345" type="line" smooth="yes"/>
      <point x="260" y="406"/>
      <point x="361" y="456"/>
      <point x="477" y="456" type="curve" smooth="yes"/>
      <point x="492" y="456"/>
      <point x="511" y="499"/>
      <point x="518" y="553" type="curve" smooth="yes"/>
      <point x="525" y="607"/>
      <point x="518" y="650"/>
      <point x="502" y="650" type="curve" smooth="yes"/>
      <point x="386" y="650"/>
      <point x="285" y="601"/>
      <point x="278" y="540" type="curve"/>
      <point x="289" y="630" type="line" smooth="yes"/>
      <point x="291" y="644"/>
      <point x="246" y="656"/>
      <point x="188" y="656" type="curve" smooth="yes"/>
      <point x="130" y="656"/>
      <point x="81" y="644"/>
      <point x="79" y="630" type="curve" smooth="yes"/>
    </contour>
  </outline>
</glyph>
<glyph name="s" format="1">
  <advance width="708"/>
  <unicode hex="0073"/>
  <outline>
    <contour>
      <point x="524" y="208" type="curve" smooth="yes"/>
      <point x="540" y="326"/>
      <point x="426" y="381"/>
      <point x="318" y="418" type="curve" smooth="yes"/>
      <point x="309" y="421"/>
      <point x="264" y="431"/>
      <point x="265" y="442" type="curve" smooth="yes"/>
      <point x="266" y="453"/>
      <point x="278" y="462"/>
      <point x="291" y="462" type="curve" smooth="yes"/>
      <point x="357" y="462"/>
      <point x="401" y="427"/>
      <point x="451" y="397" type="curve" smooth="yes"/>
      <point x="464" y="390"/>
      <point x="500" y="422"/>
      <point x="532" y="470" type="curve" smooth="yes"/>
      <point x="564" y="517"/>
      <point x="581" y="561"/>
      <point x="568" y="569" type="curve" smooth="yes"/>
      <point x="490" y="615"/>
      <point x="416" y="656"/>
      <point x="316" y="656" type="curve" smooth="yes"/>
      <point x="186" y="656"/>
      <point x="69" y="560"/>
      <point x="53" y="442" type="curve" smooth="yes"/>
      <point x="38" y="324"/>
      <point x="126" y="269"/>
      <point x="234" y="232" type="curve" smooth="yes"/>
      <point x="244" y="229"/>
      <point x="313" y="219"/>
      <point x="312" y="208" type="curve" smooth="yes"/>
      <point x="311" y="197"/>
      <point x="281" y="188"/>
      <point x="246" y="188" type="curve" smooth="yes"/>
      <point x="190" y="188"/>
      <point x="158" y="230"/>
      <point x="116" y="253" type="curve" smooth="yes"/>
      <point x="104" y="260"/>
      <point x="68" y="226"/>
      <point x="38" y="178" type="curve" smooth="yes"/>
      <point x="7" y="130"/>
      <point x="-8" y="85"/>
      <point x="4" y="78" type="curve" smooth="yes"/>
      <point x="73" y="41"/>
      <point x="133" y="-6"/>
      <point x="220" y="-6" type="curve" smooth="yes"/>
      <point x="373" y="-6"/>
      <point x="509" y="90"/>
    </contour>
  </outline>
</glyph>
<glyph name="t" format="1">
  <advance width="555"/>
  <unicode hex="0074"/>
  <outline>
    <contour>
      <point x="101" y="650" type="line"/>
      <point x="44" y="650" type="line" smooth="yes"/>
      <point x="28" y="650"/>
      <point x="10" y="607"/>
      <point x="3" y="553" type="curve" smooth="yes"/>
      <point x="-4" y="499"/>
      <point x="3" y="456"/>
      <point x="18" y="456" type="curve" smooth="yes"/>
      <point x="76" y="456" type="line"/>
      <point x="45" y="218" type="line" smooth="yes"/>
      <point x="35" y="144"/>
      <point x="62" y="81"/>
      <point x="121" y="37" type="curve" smooth="yes"/>
      <point x="181" y="-7"/>
      <point x="255" y="-18"/>
      <point x="335" y="5" type="curve"/>
      <point x="350" y="11"/>
      <point x="353" y="56"/>
      <point x="342" y="107" type="curve" smooth="yes"/>
      <point x="330" y="158"/>
      <point x="309" y="195"/>
      <point x="294" y="190" type="curve"/>
      <point x="283" y="187"/>
      <point x="273" y="188"/>
      <point x="265" y="194" type="curve" smooth="yes"/>
      <point x="257" y="200"/>
      <point x="254" y="209"/>
      <point x="255" y="218" type="curve" smooth="yes"/>
      <point x="286" y="456" type="line"/>
      <point x="376" y="456" type="line" smooth="yes"/>
      <point x="392" y="456"/>
      <point x="410" y="499"/>
      <point x="417" y="553" type="curve" smooth="yes"/>
      <point x="424" y="607"/>
      <point x="417" y="650"/>
      <point x="401" y="650" type="curve" smooth="yes"/>
      <point x="311" y="650" type="line"/>
      <point x="334" y="825" type="line" smooth="yes"/>
      <point x="336" y="839"/>
      <point x="290" y="851"/>
      <point x="232" y="851" type="curve" smooth="yes"/>
      <point x="174" y="851"/>
      <point x="126" y="839"/>
      <point x="124" y="825" type="curve" smooth="yes"/>
    </contour>
  </outline>
</glyph>
<glyph name="u" format="1">
  <advance width="765"/>
  <unicode hex="0075"/>
  <outline>
    <contour>
      <point x="630" y="630" type="line" smooth="yes"/>
      <point x="632" y="644"/>
      <point x="586" y="656"/>
      <point x="528" y="656" type="curve" smooth="yes"/>
      <point x="470" y="656"/>
      <point x="422" y="644"/>
      <point x="420" y="630" type="curve" smooth="yes"/>
      <point x="363" y="195" type="line"/>
      <point x="363" y="195"/>
      <point x="317" y="137"/>
      <point x="269" y="137" type="curve" smooth="yes"/>
      <point x="233" y="137"/>
      <point x="207" y="163"/>
      <point x="211" y="195" type="curve" smooth="yes"/>
      <point x="268" y="630" type="line" smooth="yes"/>
      <point x="270" y="644"/>
      <point x="224" y="656"/>
      <point x="166" y="656" type="curve" smooth="yes"/>
      <point x="108" y="656"/>
      <point x="60" y="644"/>
      <point x="58" y="630" type="curve" smooth="yes"/>
      <point x="1" y="195" type="line" smooth="yes"/>
      <point x="-13" y="87"/>
      <point x="73" y="0"/>
      <point x="193" y="0" type="curve" smooth="yes"/>
      <point x="247" y="0"/>
      <point x="301" y="24"/>
      <point x="345" y="57" type="curve"/>
      <point x="341" y="20" type="line" smooth="yes"/>
      <point x="339" y="6"/>
      <point x="384" y="-6"/>
      <point x="442" y="-6" type="curve" smooth="yes"/>
      <point x="500" y="-6"/>
      <point x="549" y="6"/>
      <point x="551" y="20" type="curve" smooth="yes"/>
    </contour>
  </outline>
</glyph>
<glyph name="v" format="1">
  <advance width="750"/>
  <unicode hex="0076"/>
  <outline>
    <contour>
      <point x="111" y="18" type="line"/>
      <point x="118" y="4"/>
      <point x="164" y="-6"/>
      <point x="221" y="-6" type="curve" smooth="yes"/>
      <point x="278" y="-6"/>
      <point x="327" y="4"/>
      <point x="339" y="18" type="curve"/>
      <point x="614" y="615" type="line" smooth="yes"/>
      <point x="621" y="629"/>
      <point x="581" y="647"/>
      <point x="525" y="654" type="curve" smooth="yes"/>
      <point x="469" y="661"/>
      <point x="418" y="656"/>
      <point x="412" y="642" type="curve" smooth="yes"/>
      <point x="264" y="303" type="line"/>
      <point x="210" y="641" type="line"/>
      <point x="207" y="655"/>
      <point x="158" y="661"/>
      <point x="100" y="654" type="curve" smooth="yes"/>
      <point x="42" y="647"/>
      <point x="-3" y="630"/>
      <point x="0" y="616" type="curve" smooth="yes"/>
    </contour>
  </outline>
</glyph>
<glyph name="x" format="1">
  <advance width="829"/>
  <unicode hex="0078"/>
  <outline>
    <contour>
      <point x="326" y="165" type="line"/>
      <point x="405" y="16" type="line" smooth="yes"/>
      <point x="413" y="2"/>
      <point x="466" y="-8"/>
      <point x="523" y="-5" type="curve" smooth="yes"/>
      <point x="581" y="-3"/>
      <point x="621" y="10"/>
      <point x="613" y="25" type="curve" smooth="yes"/>
      <point x="453" y="325" type="line"/>
      <point x="692" y="625" type="line"/>
      <point x="699" y="635"/>
      <point x="687" y="644"/>
      <point x="658" y="650" type="curve" smooth="yes"/>
      <point x="629" y="656"/>
      <point x="591" y="658"/>
      <point x="555" y="654" type="curve" smooth="yes"/>
      <point x="518" y="651"/>
      <point x="493" y="643"/>
      <point x="485" y="634" type="curve"/>
      <point x="368" y="485" type="line"/>
      <point x="288" y="634" type="line" smooth="yes"/>
      <point x="281" y="648"/>
      <point x="228" y="658"/>
      <point x="170" y="655" type="curve" smooth="yes"/>
      <point x="113" y="653"/>
      <point x="72" y="640"/>
      <point x="80" y="625" type="curve" smooth="yes"/>
      <point x="240" y="325" type="line"/>
      <point x="2" y="25" type="line" smooth="yes"/>
      <point x="-9" y="10"/>
      <point x="28" y="-3"/>
      <point x="85" y="-5" type="curve" smooth="yes"/>
      <point x="141" y="-8"/>
      <point x="197" y="2"/>
      <point x="208" y="16" type="curve" smooth="yes"/>
    </contour>
  </outline>
</glyph>
<glyph name="y" format="1">
  <advance width="797"/>
  <unicode hex="0079"/>
  <outline>
    <contour>
      <point x="1" y="-254" type="line" smooth="yes"/>
      <point x="-6" y="-268"/>
      <point x="32" y="-289"/>
      <point x="86" y="-301" type="curve" smooth="yes"/>
      <point x="140" y="-313"/>
      <point x="190" y="-312"/>
      <point x="197" y="-298" type="curve" smooth="yes"/>
      <point x="661" y="604" type="line" smooth="yes"/>
      <point x="668" y="618"/>
      <point x="630" y="639"/>
      <point x="576" y="651" type="curve" smooth="yes"/>
      <point x="522" y="663"/>
      <point x="472" y="662"/>
      <point x="465" y="648" type="curve" smooth="yes"/>
      <point x="329" y="385" type="line"/>
      <point x="262" y="648" type="line" smooth="yes"/>
      <point x="259" y="662"/>
      <point x="210" y="663"/>
      <point x="152" y="651" type="curve" smooth="yes"/>
      <point x="95" y="639"/>
      <point x="51" y="618"/>
      <point x="55" y="604" type="curve" smooth="yes"/>
      <point x="183" y="100" type="line"/>
    </contour>
  </outline>
</glyph>
<glyph name="z" format="1">
  <advance width="812"/>
  <unicode hex="007A"/>
  <outline>
    <contour>
      <point x="575" y="0" type="line" smooth="yes"/>
      <point x="591" y="0"/>
      <point x="609" y="43"/>
      <point x="616" y="97" type="curve" smooth="yes"/>
      <point x="623" y="151"/>
      <point x="616" y="194"/>
      <point x="600" y="194" type="curve" smooth="yes"/>
      <point x="322" y="194" type="line"/>
      <point x="637" y="440" type="line" smooth="yes"/>
      <point x="654" y="453"/>
      <point x="670" y="502"/>
      <point x="675" y="556" type="curve" smooth="yes"/>
      <point x="680" y="610"/>
      <point x="673" y="650"/>
      <point x="657" y="650" type="curve" smooth="yes"/>
      <point x="102" y="650" type="line" smooth="yes"/>
      <point x="86" y="650"/>
      <point x="68" y="607"/>
      <point x="61" y="553" type="curve" smooth="yes"/>
      <point x="54" y="499"/>
      <point x="61" y="456"/>
      <point x="77" y="456" type="curve" smooth="yes"/>
      <point x="355" y="456" type="line"/>
      <point x="40" y="210" type="line" smooth="yes"/>
      <point x="23" y="197"/>
      <point x="7" y="148"/>
      <point x="1" y="94" type="curve" smooth="yes"/>
      <point x="-4" y="40"/>
      <point x="4" y="0"/>
      <point x="20" y="0" type="curve" smooth="yes"/>
    </contour>
  </outline>
</glyph>
<glyph name="braceleft" format="1">
  <advance width="654"/>
  <unicode hex="007B"/>
  <outline>
    <contour>
      <point x="190" y="500" type="curve"/>
      <point x="249" y="528"/>
      <point x="298" y="578"/>
      <point x="308" y="650" type="curve" smooth="yes"/>
      <point x="328" y="807" type="line" smooth="yes"/>
      <point x="335" y="862"/>
      <point x="385" y="906"/>
      <point x="439" y="906" type="curve" smooth="yes"/>
      <point x="476" y="906"/>
      <point x="511" y="949"/>
      <point x="518" y="1003" type="curve" smooth="yes"/>
      <point x="525" y="1057"/>
      <point x="501" y="1100"/>
      <point x="465" y="1100" type="curve" smooth="yes"/>
      <point x="303" y="1100"/>
      <point x="179" y="955"/>
      <point x="160" y="807" type="curve" smooth="yes"/>
      <point x="140" y="650" type="line" smooth="yes"/>
      <point x="136" y="621"/>
      <point x="109" y="597"/>
      <point x="80" y="597" type="curve" smooth="yes"/>
      <point x="43" y="597"/>
      <point x="8" y="554"/>
      <point x="1" y="500" type="curve" smooth="yes"/>
      <point x="-6" y="446"/>
      <point x="18" y="403"/>
      <point x="54" y="403" type="curve" smooth="yes"/>
      <point x="84" y="403"/>
      <point x="105" y="379"/>
      <point x="101" y="350" type="curve" smooth="yes"/>
      <point x="80" y="193" type="line" smooth="yes"/>
      <point x="61" y="45"/>
      <point x="147" y="-100"/>
      <point x="309" y="-100" type="curve" smooth="yes"/>
      <point x="345" y="-100"/>
      <point x="380" y="-57"/>
      <point x="387" y="-3" type="curve" smooth="yes"/>
      <point x="394" y="51"/>
      <point x="370" y="94"/>
      <point x="334" y="94" type="curve" smooth="yes"/>
      <point x="280" y="94"/>
      <point x="241" y="138"/>
      <point x="248" y="193" type="curve" smooth="yes"/>
      <point x="269" y="350" type="line" smooth="yes"/>
      <point x="278" y="422"/>
      <point x="242" y="472"/>
    </contour>
  </outline>
</glyph>
<glyph name="bar" format="1">
  <advance width="488"/>
  <unicode hex="007C"/>
  <outline>
    <contour>
      <point x="352" y="1045" type="line" smooth="yes"/>
      <point x="356" y="1079"/>
      <point x="313" y="1106"/>
      <point x="255" y="1106" type="curve" smooth="yes"/>
      <point x="197" y="1106"/>
      <point x="146" y="1079"/>
      <point x="142" y="1045" type="curve" smooth="yes"/>
      <point x="0" y="-45" type="line" smooth="yes"/>
      <point x="-4" y="-79"/>
      <point x="39" y="-106"/>
      <point x="97" y="-106" type="curve" smooth="yes"/>
      <point x="155" y="-106"/>
      <point x="206" y="-79"/>
      <point x="210" y="-45" type="curve" smooth="yes"/>
    </contour>
  </outline>
</glyph>
<glyph name="braceright" format="1">
  <advance width="657"/>
  <unicode hex="007D"/>
  <outline>
    <contour>
      <point x="360" y="500" type="curve"/>
      <point x="284" y="466"/>
      <point x="220" y="403"/>
      <point x="208" y="312" type="curve" smooth="yes"/>
      <point x="197" y="230" type="line" smooth="yes"/>
      <point x="187" y="155"/>
      <point x="119" y="94"/>
      <point x="44" y="94" type="curve" smooth="yes"/>
      <point x="28" y="94"/>
      <point x="10" y="51"/>
      <point x="3" y="-3" type="curve" smooth="yes"/>
      <point x="-4" y="-57"/>
      <point x="3" y="-100"/>
      <point x="18" y="-100" type="curve" smooth="yes"/>
      <point x="201" y="-100"/>
      <point x="343" y="62"/>
      <point x="365" y="230" type="curve" smooth="yes"/>
      <point x="376" y="312" type="line" smooth="yes"/>
      <point x="382" y="362"/>
      <point x="428" y="403"/>
      <point x="478" y="403" type="curve" smooth="yes"/>
      <point x="494" y="403"/>
      <point x="512" y="446"/>
      <point x="519" y="500" type="curve" smooth="yes"/>
      <point x="526" y="554"/>
      <point x="519" y="597"/>
      <point x="504" y="597" type="curve" smooth="yes"/>
      <point x="453" y="597"/>
      <point x="418" y="638"/>
      <point x="425" y="688" type="curve" smooth="yes"/>
      <point x="435" y="770" type="line" smooth="yes"/>
      <point x="457" y="938"/>
      <point x="357" y="1100"/>
      <point x="174" y="1100" type="curve" smooth="yes"/>
      <point x="159" y="1100"/>
      <point x="140" y="1057"/>
      <point x="133" y="1003" type="curve" smooth="yes"/>
      <point x="126" y="949"/>
      <point x="134" y="906"/>
      <point x="149" y="906" type="curve" smooth="yes"/>
      <point x="224" y="906"/>
      <point x="277" y="845"/>
      <point x="267" y="770" type="curve" smooth="yes"/>
      <point x="257" y="688" type="line" smooth="yes"/>
      <point x="245" y="597"/>
      <point x="293" y="534"/>
    </contour>
  </outline>
</glyph>
<glyph name="asciitilde" format="1">
  <advance width="689"/>
  <unicode hex="007E"/>
  <outline>
    <contour>
      <point x="148" y="443" type="curve" smooth="yes"/>
      <point x="172" y="478"/>
      <point x="211" y="433"/>
      <point x="220" y="427" type="curve"/>
      <point x="315" y="371"/>
      <point x="465" y="374"/>
      <point x="547" y="493" type="curve" smooth="yes"/>
      <point x="558" y="510"/>
      <point x="555" y="532"/>
      <point x="539" y="554" type="curve" smooth="yes"/>
      <point x="522" y="576"/>
      <point x="496" y="591"/>
      <point x="468" y="596" type="curve" smooth="yes"/>
      <point x="439" y="601"/>
      <point x="417" y="594"/>
      <point x="405" y="577" type="curve" smooth="yes"/>
      <point x="381" y="542"/>
      <point x="343" y="587"/>
      <point x="333" y="593" type="curve" smooth="yes"/>
      <point x="238" y="649"/>
      <point x="88" y="646"/>
      <point x="7" y="527" type="curve" smooth="yes"/>
      <point x="-11" y="501"/>
      <point x="7" y="462"/>
      <point x="46" y="439" type="curve" smooth="yes"/>
      <point x="85" y="416"/>
      <point x="131" y="418"/>
    </contour>
  </outline>
</glyph>
<glyph name="exclamdown" format="1">
  <advance width="484"/>
  <unicode hex="00A1"/>
  <outline>
    <contour>
      <point x="329" y="822" type="curve" smooth="yes"/>
      <point x="349" y="978" type="line" smooth="yes"/>
      <point x="351" y="993"/>
      <point x="302" y="1006"/>
      <point x="240" y="1006" type="curve" smooth="yes"/>
      <point x="178" y="1006"/>
      <point x="126" y="993"/>
      <point x="124" y="978" type="curve" smooth="yes"/>
      <point x="104" y="822" type="line" smooth="yes"/>
      <point x="102" y="807"/>
      <point x="151" y="794"/>
      <point x="213" y="794" type="curve" smooth="yes"/>
      <point x="275" y="794"/>
      <point x="327" y="807"/>
    </contour>
    <contour>
      <point x="225" y="22" type="curve" smooth="yes"/>
      <point x="290" y="640" type="line" smooth="yes"/>
      <point x="292" y="653"/>
      <point x="250" y="664"/>
      <point x="196" y="664" type="curve" smooth="yes"/>
      <point x="142" y="664"/>
      <point x="97" y="653"/>
      <point x="95" y="640" type="curve" smooth="yes"/>
      <point x="0" y="22" type="line" smooth="yes"/>
      <point x="-2" y="7"/>
      <point x="47" y="-6"/>
      <point x="109" y="-6" type="curve" smooth="yes"/>
      <point x="171" y="-6"/>
      <point x="223" y="7"/>
    </contour>
  </outline>
</glyph>
<glyph name="dieresis" format="1">
  <advance width="739"/>
  <unicode hex="00A8"/>
  <outline>
    <contour>
      <point x="220" y="945" type="line" smooth="yes"/>
      <point x="224" y="979"/>
      <point x="181" y="1006"/>
      <point x="123" y="1006" type="curve" smooth="yes"/>
      <point x="65" y="1006"/>
      <point x="14" y="979"/>
      <point x="10" y="945" type="curve" smooth="yes"/>
      <point x="0" y="872" type="line" smooth="yes"/>
      <point x="-4" y="839"/>
      <point x="39" y="812"/>
      <point x="97" y="812" type="curve" smooth="yes"/>
      <point x="155" y="812"/>
      <point x="206" y="839"/>
      <point x="210" y="872" type="curve" smooth="yes"/>
    </contour>
    <contour>
      <point x="603" y="945" type="line" smooth="yes"/>
      <point x="607" y="979"/>
      <point x="564" y="1006"/>
      <point x="506" y="1006" type="curve" smooth="yes"/>
      <point x="448" y="1006"/>
      <point x="397" y="979"/>
      <point x="393" y="945" type="curve" smooth="yes"/>
      <point x="384" y="872" type="line" smooth="yes"/>
      <point x="379" y="839"/>
      <point x="423" y="812"/>
      <point x="481" y="812" type="curve" smooth="yes"/>
      <point x="539" y="812"/>
      <point x="589" y="839"/>
      <point x="594" y="872" type="curve" smooth="yes"/>
    </contour>
  </outline>
</glyph>
<glyph name="macron" format="1">
  <advance width="638"/>
  <unicode hex="00AF"/>
  <outline>
    <contour>
      <point x="423" y="781" type="line" smooth="yes"/>
      <point x="459" y="781"/>
      <point x="494" y="824"/>
      <point x="501" y="878" type="curve" smooth="yes"/>
      <point x="508" y="932"/>
      <point x="484" y="975"/>
      <point x="448" y="975" type="curve" smooth="yes"/>
      <point x="80" y="975" type="line" smooth="yes"/>
      <point x="43" y="975"/>
      <point x="8" y="932"/>
      <point x="1" y="878" type="curve" smooth="yes"/>
      <point x="-6" y="824"/>
      <point x="18" y="781"/>
      <point x="54" y="781" type="curve" smooth="yes"/>
    </contour>
  </outline>
</glyph>
<glyph name="acute" format="1">
  <advance width="435"/>
  <unicode hex="00B4"/>
  <outline>
    <contour>
      <point x="162" y="992" type="curve" smooth="yes"/>
      <point x="11" y="840" type="line" smooth="yes"/>
      <point x="-6" y="824"/>
      <point x="-3" y="790"/>
      <point x="17" y="762" type="curve" smooth="yes"/>
      <point x="37" y="733"/>
      <point x="67" y="720"/>
      <point x="87" y="731" type="curve" smooth="yes"/>
      <point x="274" y="831" type="line" smooth="yes"/>
      <point x="296" y="843"/>
      <point x="305" y="871"/>
      <point x="297" y="906" type="curve" smooth="yes"/>
      <point x="289" y="941"/>
      <point x="267" y="973"/>
      <point x="237" y="991" type="curve" smooth="yes"/>
      <point x="208" y="1010"/>
      <point x="180" y="1011"/>
    </contour>
  </outline>
</glyph>
<glyph name="periodcentered" format="1">
  <advance width="379"/>
  <unicode hex="00B7"/>
  <outline>
    <contour>
      <point x="243" y="546" type="line" smooth="yes"/>
      <point x="248" y="583"/>
      <point x="200" y="613"/>
      <point x="136" y="613" type="curve" smooth="yes"/>
      <point x="73" y="613"/>
      <point x="17" y="583"/>
      <point x="12" y="546" type="curve" smooth="yes"/>
      <point x="0" y="454" type="line" smooth="yes"/>
      <point x="-5" y="417"/>
      <point x="43" y="387"/>
      <point x="107" y="387" type="curve" smooth="yes"/>
      <point x="171" y="387"/>
      <point x="226" y="417"/>
      <point x="231" y="454" type="curve" smooth="yes"/>
    </contour>
  </outline>
</glyph>
<glyph name="Agrave" format="1">
  <advance width="993"/>
  <unicode hex="00C0"/>
  <outline>
    <contour>
      <point x="390" y="417" type="line"/>
      <point x="517" y="698" type="line"/>
      <point x="571" y="417" type="line"/>
    </contour>
    <contour>
      <point x="647" y="18" type="line" smooth="yes"/>
      <point x="650" y="4"/>
      <point x="700" y="-7"/>
      <point x="757" y="-6" type="curve" smooth="yes"/>
      <point x="815" y="-5"/>
      <point x="860" y="8"/>
      <point x="857" y="23" type="curve" smooth="yes"/>
      <point x="674" y="978" type="line" smooth="yes"/>
      <point x="671" y="994"/>
      <point x="620" y="1006"/>
      <point x="557" y="1006" type="curve" smooth="yes"/>
      <point x="494" y="1006"/>
      <point x="440" y="994"/>
      <point x="433" y="978" type="curve" smooth="yes"/>
      <point x="1" y="23" type="line" smooth="yes"/>
      <point x="-6" y="8"/>
      <point x="36" y="-5"/>
      <point x="93" y="-6" type="curve" smooth="yes"/>
      <point x="151" y="-7"/>
      <point x="203" y="4"/>
      <point x="209" y="18" type="curve" smooth="yes"/>
      <point x="302" y="223" type="line"/>
      <point x="608" y="223" type="line"/>
    </contour>
    <contour>
      <point x="536" y="1349" type="line"/>
      <point x="530" y="1356"/>
      <point x="511" y="1347"/>
      <point x="482" y="1324" type="curve" smooth="yes"/>
      <point x="453" y="1301"/>
      <point x="424" y="1271"/>
      <point x="403" y="1242" type="curve" smooth="yes"/>
      <point x="381" y="1212"/>
      <point x="373" y="1192"/>
      <point x="381" y="1187" type="curve" smooth="yes"/>
      <point x="543" y="1086" type="line" smooth="yes"/>
      <point x="551" y="1081"/>
      <point x="579" y="1100"/>
      <point x="608" y="1130" type="curve" smooth="yes"/>
      <point x="636" y="1159"/>
      <point x="654" y="1188"/>
      <point x="648" y="1196" type="curve" smooth="yes"/>
    </contour>
  </outline>
</glyph>
<glyph name="Aacute" format="1">
  <advance width="993"/>
  <unicode hex="00C1"/>
  <outline>
    <contour>
      <point x="386" y="417" type="line"/>
      <point x="510" y="675" type="line"/>
      <point x="566" y="417" type="line"/>
    </contour>
    <contour>
      <point x="648" y="43" type="line" smooth="yes"/>
      <point x="655" y="10"/>
      <point x="708" y="-11"/>
      <point x="766" y="-5" type="curve" smooth="yes"/>
      <point x="823" y="2"/>
      <point x="864" y="34"/>
      <point x="857" y="67" type="curve" smooth="yes"/>
      <point x="664" y="950" type="line" smooth="yes"/>
      <point x="656" y="983"/>
      <point x="611" y="1006"/>
      <point x="553" y="1006" type="curve" smooth="yes"/>
      <point x="494" y="1006"/>
      <point x="443" y="983"/>
      <point x="427" y="950" type="curve" smooth="yes"/>
      <point x="4" y="67" type="line" smooth="yes"/>
      <point x="-12" y="34"/>
      <point x="21" y="2"/>
      <point x="77" y="-5" type="curve" smooth="yes"/>
      <point x="133" y="-11"/>
      <point x="191" y="10"/>
      <point x="207" y="43" type="curve" smooth="yes"/>
      <point x="293" y="223" type="line"/>
      <point x="609" y="223" type="line"/>
    </contour>
    <contour>
      <point x="483" y="1347" type="curve" smooth="yes"/>
      <point x="352" y="1195" type="line" smooth="yes"/>
      <point x="338" y="1179"/>
      <point x="345" y="1145"/>
      <point x="368" y="1117" type="curve" smooth="yes"/>
      <point x="392" y="1088"/>
      <point x="424" y="1075"/>
      <point x="443" y="1086" type="curve" smooth="yes"/>
      <point x="617" y="1186" type="line" smooth="yes"/>
      <point x="637" y="1198"/>
      <point x="642" y="1226"/>
      <point x="630" y="1261" type="curve" smooth="yes"/>
      <point x="617" y="1296"/>
      <point x="591" y="1327"/>
      <point x="559" y="1346" type="curve" smooth="yes"/>
      <point x="527" y="1365"/>
      <point x="499" y="1366"/>
    </contour>
  </outline>
</glyph>
<glyph name="Acircumflex" format="1">
  <advance width="993"/>
  <unicode hex="00C2"/>
  <outline>
    <contour>
      <point x="390" y="417" type="line"/>
      <point x="517" y="698" type="line"/>
      <point x="571" y="417" type="line"/>
    </contour>
    <contour>
      <point x="647" y="18" type="line" smooth="yes"/>
      <point x="650" y="4"/>
      <point x="700" y="-7"/>
      <point x="757" y="-6" type="curve" smooth="yes"/>
      <point x="815" y="-5"/>
      <point x="860" y="8"/>
      <point x="857" y="23" type="curve" smooth="yes"/>
      <point x="674" y="978" type="line" smooth="yes"/>
      <point x="671" y="994"/>
      <point x="620" y="1006"/>
      <point x="557" y="1006" type="curve" smooth="yes"/>
      <point x="494" y="1006"/>
      <point x="440" y="994"/>
      <point x="433" y="978" type="curve" smooth="yes"/>
      <point x="1" y="23" type="line" smooth="yes"/>
      <point x="-6" y="8"/>
      <point x="36" y="-5"/>
      <point x="93" y="-6" type="curve" smooth="yes"/>
      <point x="151" y="-7"/>
      <point x="203" y="4"/>
      <point x="209" y="18" type="curve" smooth="yes"/>
      <point x="302" y="223" type="line"/>
      <point x="608" y="223" type="line"/>
    </contour>
    <contour>
      <point x="351" y="1194" type="line"/>
      <point x="348" y="1190"/>
      <point x="348" y="1184"/>
      <point x="354" y="1174" type="curve" smooth="yes"/>
      <point x="369" y="1148"/>
      <point x="415" y="1112"/>
      <point x="457" y="1094" type="curve" smooth="yes"/>
      <point x="484" y="1083"/>
      <point x="502" y="1081"/>
      <point x="509" y="1088" type="curve"/>
      <point x="578" y="1166" type="line"/>
      <point x="626" y="1088" type="line"/>
      <point x="631" y="1081"/>
      <point x="650" y="1083"/>
      <point x="680" y="1094" type="curve" smooth="yes"/>
      <point x="727" y="1112"/>
      <point x="782" y="1148"/>
      <point x="804" y="1174" type="curve" smooth="yes"/>
      <point x="812" y="1184"/>
      <point x="814" y="1190"/>
      <point x="811" y="1194" type="curve"/>
      <point x="719" y="1342" type="line" smooth="yes"/>
      <point x="711" y="1356"/>
      <point x="663" y="1367"/>
      <point x="604" y="1367" type="curve" smooth="yes"/>
      <point x="545" y="1367"/>
      <point x="494" y="1356"/>
      <point x="482" y="1342" type="curve" smooth="yes"/>
    </contour>
  </outline>
</glyph>
<glyph name="Atilde" format="1">
  <advance width="993"/>
  <unicode hex="00C3"/>
  <outline>
    <contour>
      <point x="386" y="417" type="line"/>
      <point x="510" y="675" type="line"/>
      <point x="566" y="417" type="line"/>
    </contour>
    <contour>
      <point x="648" y="43" type="line" smooth="yes"/>
      <point x="655" y="10"/>
      <point x="708" y="-11"/>
      <point x="766" y="-5" type="curve" smooth="yes"/>
      <point x="823" y="2"/>
      <point x="864" y="34"/>
      <point x="857" y="67" type="curve" smooth="yes"/>
      <point x="664" y="950" type="line" smooth="yes"/>
      <point x="656" y="983"/>
      <point x="611" y="1006"/>
      <point x="553" y="1006" type="curve" smooth="yes"/>
      <point x="494" y="1006"/>
      <point x="443" y="983"/>
      <point x="427" y="950" type="curve" smooth="yes"/>
      <point x="4" y="67" type="line" smooth="yes"/>
      <point x="-12" y="34"/>
      <point x="21" y="2"/>
      <point x="77" y="-5" type="curve" smooth="yes"/>
      <point x="133" y="-11"/>
      <point x="191" y="10"/>
      <point x="207" y="43" type="curve" smooth="yes"/>
      <point x="293" y="223" type="line"/>
      <point x="609" y="223" type="line"/>
    </contour>
    <contour>
      <point x="330" y="1133" type="curve" smooth="yes"/>
      <point x="346" y="1161"/>
      <point x="381" y="1125"/>
      <point x="390" y="1120" type="curve" smooth="yes"/>
      <point x="471" y="1075"/>
      <point x="591" y="1077"/>
      <point x="644" y="1173" type="curve" smooth="yes"/>
      <point x="651" y="1186"/>
      <point x="647" y="1204"/>
      <point x="631" y="1221" type="curve" smooth="yes"/>
      <point x="615" y="1239"/>
      <point x="593" y="1251"/>
      <point x="570" y="1255" type="curve" smooth="yes"/>
      <point x="547" y="1259"/>
      <point x="529" y="1253"/>
      <point x="522" y="1240" type="curve" smooth="yes"/>
      <point x="506" y="1211"/>
      <point x="471" y="1248"/>
      <point x="463" y="1252" type="curve" smooth="yes"/>
      <point x="381" y="1297"/>
      <point x="261" y="1295"/>
      <point x="208" y="1200" type="curve" smooth="yes"/>
      <point x="197" y="1179"/>
      <point x="215" y="1148"/>
      <point x="249" y="1129" type="curve" smooth="yes"/>
      <point x="283" y="1111"/>
      <point x="319" y="1112"/>
    </contour>
  </outline>
</glyph>
<glyph name="Adieresis" format="1">
  <advance width="1020"/>
  <unicode hex="00C4"/>
  <outline>
    <contour>
      <point x="390" y="417" type="line"/>
      <point x="517" y="698" type="line"/>
      <point x="571" y="417" type="line"/>
    </contour>
    <contour>
      <point x="647" y="18" type="line" smooth="yes"/>
      <point x="650" y="4"/>
      <point x="700" y="-7"/>
      <point x="757" y="-6" type="curve" smooth="yes"/>
      <point x="815" y="-5"/>
      <point x="860" y="8"/>
      <point x="857" y="23" type="curve" smooth="yes"/>
      <point x="674" y="978" type="line" smooth="yes"/>
      <point x="671" y="994"/>
      <point x="620" y="1006"/>
      <point x="557" y="1006" type="curve" smooth="yes"/>
      <point x="494" y="1006"/>
      <point x="440" y="994"/>
      <point x="433" y="978" type="curve" smooth="yes"/>
      <point x="1" y="23" type="line" smooth="yes"/>
      <point x="-6" y="8"/>
      <point x="36" y="-5"/>
      <point x="93" y="-6" type="curve" smooth="yes"/>
      <point x="151" y="-7"/>
      <point x="203" y="4"/>
      <point x="209" y="18" type="curve" smooth="yes"/>
      <point x="302" y="223" type="line"/>
      <point x="608" y="223" type="line"/>
    </contour>
    <contour>
      <point x="502" y="1249" type="line" smooth="yes"/>
      <point x="504" y="1263"/>
      <point x="458" y="1275"/>
      <point x="400" y="1275" type="curve" smooth="yes"/>
      <point x="342" y="1275"/>
      <point x="294" y="1263"/>
      <point x="292" y="1249" type="curve" smooth="yes"/>
      <point x="273" y="1107" type="line"/>
      <point x="272" y="1093"/>
      <point x="317" y="1081"/>
      <point x="375" y="1081" type="curve" smooth="yes"/>
      <point x="433" y="1081"/>
      <point x="482" y="1093"/>
      <point x="483" y="1107" type="curve"/>
    </contour>
    <contour>
      <point x="885" y="1249" type="line" smooth="yes"/>
      <point x="887" y="1263"/>
      <point x="841" y="1275"/>
      <point x="783" y="1275" type="curve" smooth="yes"/>
      <point x="725" y="1275"/>
      <point x="677" y="1263"/>
      <point x="675" y="1249" type="curve" smooth="yes"/>
      <point x="657" y="1107" type="line" smooth="yes"/>
      <point x="655" y="1093"/>
      <point x="700" y="1081"/>
      <point x="758" y="1081" type="curve" smooth="yes"/>
      <point x="816" y="1081"/>
      <point x="865" y="1093"/>
      <point x="867" y="1107" type="curve" smooth="yes"/>
    </contour>
  </outline>
</glyph>
<glyph name="Aring" format="1">
  <advance width="993"/>
  <unicode hex="00C5"/>
  <outline>
    <contour>
      <point x="390" y="417" type="line"/>
      <point x="517" y="698" type="line"/>
      <point x="571" y="417" type="line"/>
    </contour>
    <contour>
      <point x="647" y="18" type="line" smooth="yes"/>
      <point x="650" y="4"/>
      <point x="700" y="-7"/>
      <point x="757" y="-6" type="curve" smooth="yes"/>
      <point x="815" y="-5"/>
      <point x="860" y="8"/>
      <point x="857" y="23" type="curve" smooth="yes"/>
      <point x="674" y="978" type="line" smooth="yes"/>
      <point x="671" y="994"/>
      <point x="620" y="1006"/>
      <point x="557" y="1006" type="curve" smooth="yes"/>
      <point x="494" y="1006"/>
      <point x="440" y="994"/>
      <point x="433" y="978" type="curve" smooth="yes"/>
      <point x="1" y="23" type="line" smooth="yes"/>
      <point x="-6" y="8"/>
      <point x="36" y="-5"/>
      <point x="93" y="-6" type="curve" smooth="yes"/>
      <point x="151" y="-7"/>
      <point x="203" y="4"/>
      <point x="209" y="18" type="curve" smooth="yes"/>
      <point x="302" y="223" type="line"/>
      <point x="608" y="223" type="line"/>
    </contour>
    <contour>
      <point x="505" y="1314" type="curve" smooth="yes"/>
      <point x="512" y="1362"/>
      <point x="558" y="1401"/>
      <point x="608" y="1401" type="curve" smooth="yes"/>
      <point x="659" y="1401"/>
      <point x="695" y="1362"/>
      <point x="689" y="1314" type="curve" smooth="yes"/>
      <point x="682" y="1266"/>
      <point x="636" y="1227"/>
      <point x="586" y="1227" type="curve" smooth="yes"/>
      <point x="535" y="1227"/>
      <point x="499" y="1266"/>
    </contour>
    <contour>
      <point x="345" y="1314" type="curve" smooth="yes"/>
      <point x="328" y="1185"/>
      <point x="427" y="1081"/>
      <point x="567" y="1081" type="curve" smooth="yes"/>
      <point x="706" y="1081"/>
      <point x="832" y="1185"/>
      <point x="849" y="1314" type="curve" smooth="yes"/>
      <point x="866" y="1443"/>
      <point x="766" y="1547"/>
      <point x="627" y="1547" type="curve" smooth="yes"/>
      <point x="488" y="1547"/>
      <point x="362" y="1443"/>
    </contour>
  </outline>
</glyph>
<glyph name="Egrave" format="1">
  <advance width="872"/>
  <unicode hex="00C8"/>
  <outline>
    <contour>
      <point x="553" y="0" type="line" smooth="yes"/>
      <point x="589" y="0"/>
      <point x="624" y="43"/>
      <point x="631" y="97" type="curve" smooth="yes"/>
      <point x="638" y="151"/>
      <point x="614" y="194"/>
      <point x="578" y="194" type="curve" smooth="yes"/>
      <point x="226" y="194" type="line"/>
      <point x="255" y="413" type="line"/>
      <point x="462" y="413" type="line" smooth="yes"/>
      <point x="498" y="413"/>
      <point x="533" y="456"/>
      <point x="540" y="510" type="curve" smooth="yes"/>
      <point x="547" y="564"/>
      <point x="524" y="607"/>
      <point x="487" y="607" type="curve" smooth="yes"/>
      <point x="280" y="607" type="line"/>
      <point x="306" y="806" type="line"/>
      <point x="657" y="806" type="line" smooth="yes"/>
      <point x="694" y="806"/>
      <point x="729" y="849"/>
      <point x="736" y="903" type="curve" smooth="yes"/>
      <point x="743" y="957"/>
      <point x="719" y="1000"/>
      <point x="683" y="1000" type="curve" smooth="yes"/>
      <point x="242" y="1000" type="line" smooth="yes"/>
      <point x="175" y="1000"/>
      <point x="117" y="969"/>
      <point x="112" y="930" type="curve" smooth="yes"/>
      <point x="0" y="70" type="line" smooth="yes"/>
      <point x="-5" y="31"/>
      <point x="45" y="0"/>
      <point x="112" y="0" type="curve" smooth="yes"/>
    </contour>
    <contour>
      <point x="312" y="1347" type="line" smooth="yes"/>
      <point x="296" y="1366"/>
      <point x="268" y="1365"/>
      <point x="236" y="1346" type="curve" smooth="yes"/>
      <point x="204" y="1327"/>
      <point x="178" y="1296"/>
      <point x="166" y="1261" type="curve" smooth="yes"/>
      <point x="153" y="1226"/>
      <point x="158" y="1198"/>
      <point x="179" y="1186" type="curve" smooth="yes"/>
      <point x="353" y="1086" type="line" smooth="yes"/>
      <point x="371" y="1075"/>
      <point x="403" y="1088"/>
      <point x="427" y="1117" type="curve" smooth="yes"/>
      <point x="450" y="1145"/>
      <point x="457" y="1179"/>
      <point x="443" y="1195" type="curve" smooth="yes"/>
    </contour>
  </outline>
</glyph>
<glyph name="Eacute" format="1">
  <advance width="872"/>
  <unicode hex="00C9"/>
  <outline>
    <contour>
      <point x="553" y="0" type="line" smooth="yes"/>
      <point x="589" y="0"/>
      <point x="624" y="43"/>
      <point x="631" y="97" type="curve" smooth="yes"/>
      <point x="638" y="151"/>
      <point x="614" y="194"/>
      <point x="578" y="194" type="curve" smooth="yes"/>
      <point x="226" y="194" type="line"/>
      <point x="255" y="413" type="line"/>
      <point x="462" y="413" type="line" smooth="yes"/>
      <point x="498" y="413"/>
      <point x="533" y="456"/>
      <point x="540" y="510" type="curve" smooth="yes"/>
      <point x="547" y="564"/>
      <point x="524" y="607"/>
      <point x="487" y="607" type="curve" smooth="yes"/>
      <point x="280" y="607" type="line"/>
      <point x="306" y="806" type="line"/>
      <point x="657" y="806" type="line" smooth="yes"/>
      <point x="694" y="806"/>
      <point x="729" y="849"/>
      <point x="736" y="903" type="curve" smooth="yes"/>
      <point x="743" y="957"/>
      <point x="719" y="1000"/>
      <point x="683" y="1000" type="curve" smooth="yes"/>
      <point x="242" y="1000" type="line" smooth="yes"/>
      <point x="175" y="1000"/>
      <point x="117" y="969"/>
      <point x="112" y="930" type="curve" smooth="yes"/>
      <point x="0" y="70" type="line" smooth="yes"/>
      <point x="-5" y="31"/>
      <point x="45" y="0"/>
      <point x="112" y="0" type="curve" smooth="yes"/>
    </contour>
    <contour>
      <point x="426" y="1347" type="curve" smooth="yes"/>
      <point x="295" y="1195" type="line" smooth="yes"/>
      <point x="281" y="1179"/>
      <point x="288" y="1145"/>
      <point x="311" y="1117" type="curve" smooth="yes"/>
      <point x="335" y="1088"/>
      <point x="367" y="1075"/>
      <point x="385" y="1086" type="curve" smooth="yes"/>
      <point x="559" y="1186" type="line" smooth="yes"/>
      <point x="580" y="1198"/>
      <point x="585" y="1226"/>
      <point x="572" y="1261" type="curve" smooth="yes"/>
      <point x="560" y="1296"/>
      <point x="534" y="1327"/>
      <point x="502" y="1346" type="curve" smooth="yes"/>
      <point x="470" y="1365"/>
      <point x="442" y="1366"/>
    </contour>
  </outline>
</glyph>
<glyph name="Ecircumflex" format="1">
  <advance width="879"/>
  <unicode hex="00CA"/>
  <outline>
    <contour>
      <point x="595" y="0" type="line" smooth="yes"/>
      <point x="611" y="0"/>
      <point x="629" y="43"/>
      <point x="636" y="97" type="curve" smooth="yes"/>
      <point x="643" y="151"/>
      <point x="636" y="194"/>
      <point x="620" y="194" type="curve" smooth="yes"/>
      <point x="231" y="194" type="line"/>
      <point x="260" y="413" type="line"/>
      <point x="467" y="413" type="line" smooth="yes"/>
      <point x="483" y="413"/>
      <point x="501" y="456"/>
      <point x="508" y="510" type="curve" smooth="yes"/>
      <point x="515" y="564"/>
      <point x="508" y="607"/>
      <point x="492" y="607" type="curve" smooth="yes"/>
      <point x="285" y="607" type="line"/>
      <point x="311" y="806" type="line"/>
      <point x="700" y="806" type="line" smooth="yes"/>
      <point x="715" y="806"/>
      <point x="734" y="849"/>
      <point x="741" y="903" type="curve" smooth="yes"/>
      <point x="748" y="957"/>
      <point x="741" y="1000"/>
      <point x="725" y="1000" type="curve" smooth="yes"/>
      <point x="247" y="1000" type="line" smooth="yes"/>
      <point x="180" y="1000"/>
      <point x="124" y="986"/>
      <point x="122" y="970" type="curve" smooth="yes"/>
      <point x="0" y="30" type="line" smooth="yes"/>
      <point x="-2" y="14"/>
      <point x="50" y="0"/>
      <point x="117" y="0" type="curve" smooth="yes"/>
    </contour>
    <contour>
      <point x="234" y="1188" type="line"/>
      <point x="231" y="1184"/>
      <point x="231" y="1178"/>
      <point x="237" y="1168" type="curve" smooth="yes"/>
      <point x="252" y="1142"/>
      <point x="298" y="1107"/>
      <point x="340" y="1088" type="curve" smooth="yes"/>
      <point x="367" y="1077"/>
      <point x="385" y="1075"/>
      <point x="391" y="1082" type="curve" smooth="yes"/>
      <point x="461" y="1160" type="line"/>
      <point x="509" y="1082" type="line"/>
      <point x="514" y="1075"/>
      <point x="533" y="1077"/>
      <point x="563" y="1088" type="curve" smooth="yes"/>
      <point x="609" y="1107"/>
      <point x="665" y="1142"/>
      <point x="687" y="1168" type="curve"/>
      <point x="694" y="1178"/>
      <point x="697" y="1184"/>
      <point x="694" y="1188" type="curve"/>
      <point x="602" y="1336" type="line" smooth="yes"/>
      <point x="593" y="1350"/>
      <point x="546" y="1361"/>
      <point x="487" y="1361" type="curve" smooth="yes"/>
      <point x="428" y="1361"/>
      <point x="377" y="1350"/>
      <point x="365" y="1336" type="curve" smooth="yes"/>
    </contour>
  </outline>
</glyph>
